<svg width="46" height="33" viewBox="0 0 46 33" fill="none" xmlns="http://www.w3.org/2000/svg">
<path d="M18.0963 4.67391C18.0963 4.67391 17.7253 5.27681 16.9833 6.48261C16.2412 7.59565 15.3601 9.03333 14.3398 10.7957C13.3195 12.4652 12.4384 14.1348 11.6963 15.8043C12.2528 15.8043 13.134 16.3145 14.3398 17.3348C15.6384 18.3551 16.7978 19.5145 17.8181 20.813C18.9311 22.0188 19.4876 23.0391 19.4876 23.8739C19.4876 26.471 18.6065 28.558 16.8441 30.1348C15.1746 31.7116 13.0412 32.5 10.4441 32.5C7.9398 32.5 5.71371 31.5725 3.76589 29.7174C1.91081 27.8623 0.983276 25.6362 0.983276 23.0391C0.983276 20.3493 1.58617 17.7058 2.79197 15.1087C3.99777 12.4188 5.38907 9.96087 6.96589 7.73478C8.63545 5.5087 10.0731 3.74638 11.2789 2.44783C12.5775 1.14928 13.2268 0.5 13.2268 0.5L18.0963 4.67391ZM43.8355 4.67391C43.8355 4.67391 43.4644 5.27681 42.7224 6.48261C41.9804 7.59565 41.0992 9.03333 40.0789 10.7957C39.0586 12.4652 38.1775 14.1348 37.4355 15.8043C37.992 15.8043 38.8731 16.3145 40.0789 17.3348C41.3775 18.3551 42.5369 19.5145 43.5572 20.813C44.6702 22.0188 45.2268 23.0391 45.2268 23.8739C45.2268 26.471 44.3456 28.558 42.5833 30.1348C40.9137 31.7116 38.7804 32.5 36.1833 32.5C33.6789 32.5 31.4528 31.5725 29.505 29.7174C27.6499 27.8623 26.7224 25.6362 26.7224 23.0391C26.7224 20.3493 27.3253 17.7058 28.5311 15.1087C29.7369 12.4188 31.1282 9.96087 32.705 7.73478C34.3746 5.5087 35.8123 3.74638 37.0181 2.44783C38.3166 1.14928 38.9659 0.5 38.9659 0.5L43.8355 4.67391Z" fill="#FFD700"/>
</svg>
