<svg width="45" height="33" viewBox="0 0 45 33" fill="none" xmlns="http://www.w3.org/2000/svg">
<path d="M27.7651 4.67391C27.7651 4.67391 28.1361 5.27681 28.8782 6.48261C29.6202 7.59565 30.5014 9.03333 31.5217 10.7957C32.5419 12.4652 33.4231 14.1348 34.1651 15.8043C33.6086 15.8043 32.7274 16.3145 31.5217 17.3348C30.2231 18.3551 29.0637 19.5145 28.0434 20.813C26.9303 22.0188 26.3738 23.0391 26.3738 23.8739C26.3738 26.471 27.255 28.558 29.0173 30.1348C30.6869 31.7116 32.8202 32.5 35.4173 32.5C37.9217 32.5 40.1477 31.5725 42.0956 29.7174C43.9506 27.8623 44.8782 25.6362 44.8782 23.0391C44.8782 20.3493 44.2753 17.7058 43.0695 15.1087C41.8637 12.4188 40.4724 9.96087 38.8956 7.73478C37.226 5.5087 35.7883 3.74638 34.5825 2.44783C33.284 1.14928 32.6347 0.5 32.6347 0.5L27.7651 4.67391ZM2.02599 4.67391C2.02599 4.67391 2.39701 5.27681 3.13904 6.48261C3.88107 7.59565 4.76223 9.03333 5.78252 10.7957C6.80281 12.4652 7.68396 14.1348 8.42599 15.8043C7.86947 15.8043 6.98832 16.3145 5.78252 17.3348C4.48396 18.3551 3.32455 19.5145 2.30426 20.813C1.19121 22.0188 0.634689 23.0391 0.634689 23.8739C0.634689 26.471 1.51585 28.558 3.27817 30.1348C4.94773 31.7116 7.08107 32.5 9.67817 32.5C12.1825 32.5 14.4086 31.5725 16.3564 29.7174C18.2115 27.8623 19.139 25.6362 19.139 23.0391C19.139 20.3493 18.5361 17.7058 17.3303 15.1087C16.1245 12.4188 14.7332 9.96087 13.1564 7.73478C11.4869 5.5087 10.0492 3.74638 8.84339 2.44783C7.54484 1.14928 6.89556 0.5 6.89556 0.5L2.02599 4.67391Z" fill="#FFD700"/>
</svg>
