<svg width="426" height="588" viewBox="0 0 426 588" fill="none" xmlns="http://www.w3.org/2000/svg">
<g clip-path="url(#clip0_251_2193)">
<mask id="mask0_251_2193" style="mask-type:luminance" maskUnits="userSpaceOnUse" x="-281" y="-119" width="707" height="707">
<path d="M425.817 244.531L82.5308 -119L-281 224.286L62.286 587.817L425.817 244.531Z" fill="white"/>
</mask>
<g mask="url(#mask0_251_2193)">
<path d="M65.5725 -52.6134L154.457 -52.8922L109.273 7.6182L65.5725 -52.6134Z" stroke="#97D9FF" stroke-width="0.8973" stroke-miterlimit="10" stroke-linecap="round"/>
<path d="M20.4173 13.4722L109.273 7.61832L65.5724 -52.6133L20.4173 13.4722Z" stroke="#97D9FF" stroke-width="0.8973" stroke-miterlimit="10" stroke-linecap="round"/>
<path d="M-12.4838 -52.8852L20.4173 13.4722L65.5724 -52.6133L-12.4838 -52.8852Z" stroke="#97D9FF" stroke-width="0.8973" stroke-miterlimit="10" stroke-linecap="round"/>
<path d="M25.7101 83.0951L20.4174 13.4722L-31.4235 34.8122L25.7101 83.0951Z" stroke="#97D9FF" stroke-width="0.8973" stroke-miterlimit="10" stroke-linecap="round"/>
</g>
<mask id="mask1_251_2193" style="mask-type:luminance" maskUnits="userSpaceOnUse" x="-281" y="-119" width="707" height="707">
<path d="M425.817 244.531L82.5308 -119L-281 224.286L62.286 587.817L425.817 244.531Z" fill="white"/>
</mask>
<g mask="url(#mask1_251_2193)">
<path d="M64.3322 517.369L76.6413 621.802L0.263127 615.15L64.3322 517.369Z" stroke="#97D9FF" stroke-width="0.8973" stroke-miterlimit="10" stroke-linecap="round"/>
<path d="M64.3322 517.37L-33.296 517.43L16.497 451.091L64.3322 517.37Z" stroke="#97D9FF" stroke-width="0.8973" stroke-miterlimit="10" stroke-linecap="round"/>
<path d="M114.115 444.904L16.497 451.091L64.3322 517.369L114.115 444.904Z" stroke="#97D9FF" stroke-width="0.8973" stroke-miterlimit="10" stroke-linecap="round"/>
<path d="M150.069 517.883L114.115 444.904L64.3322 517.37L150.069 517.883Z" stroke="#97D9FF" stroke-width="0.8973" stroke-miterlimit="10" stroke-linecap="round"/>
<path d="M108.492 368.418L114.115 444.904L171.112 421.609L108.492 368.418Z" stroke="#97D9FF" stroke-width="0.8973" stroke-miterlimit="10" stroke-linecap="round"/>
<path d="M246.815 454.963L256.032 397.839L171.112 421.609L246.815 454.963Z" stroke="#97D9FF" stroke-width="0.8973" stroke-miterlimit="10" stroke-linecap="round"/>
<path d="M220.515 310.834L171.112 421.609L256.032 397.839L220.515 310.834Z" stroke="#97D9FF" stroke-width="0.8973" stroke-miterlimit="10" stroke-linecap="round"/>
<path d="M317.043 307.091L220.515 310.834L256.032 397.839L317.043 307.091Z" stroke="#97D9FF" stroke-width="0.8973" stroke-miterlimit="10" stroke-linecap="round"/>
<path d="M317.043 307.091L391.623 356.535L415.312 289.441L317.043 307.091Z" stroke="#97D9FF" stroke-width="0.8973" stroke-miterlimit="10" stroke-linecap="round"/>
<path d="M329.425 220.61L317.043 307.091L415.312 289.441L329.425 220.61Z" stroke="#97D9FF" stroke-width="0.8973" stroke-miterlimit="10" stroke-linecap="round"/>
<path d="M447.399 183.361L329.425 220.61L415.312 289.441L447.399 183.361Z" stroke="#97D9FF" stroke-width="0.8973" stroke-miterlimit="10" stroke-linecap="round"/>
<path d="M220.515 310.834L202.686 254.697L260.681 259.466L220.515 310.834Z" stroke="#97D9FF" stroke-width="0.8973" stroke-miterlimit="10" stroke-linecap="round"/>
<path d="M329.425 220.61L315.761 132.632L373.05 112.3L329.425 220.61Z" stroke="#97D9FF" stroke-width="0.8973" stroke-miterlimit="10" stroke-linecap="round"/>
</g>
<mask id="mask2_251_2193" style="mask-type:luminance" maskUnits="userSpaceOnUse" x="-281" y="-119" width="707" height="707">
<path d="M425.817 244.531L82.5308 -119L-281 224.286L62.286 587.817L425.817 244.531Z" fill="white"/>
</mask>
<g mask="url(#mask2_251_2193)">
<path opacity="0.1" d="M-7.76364 40.5043C-26.6425 48.2528 -44.3366 58.478 -60.4105 70.7684C-87.3382 35.3736 -114.266 -0.0212165 -141.192 -35.416C-115.761 -54.859 -87.7694 -71.0355 -57.9035 -83.2945C-41.1904 -42.0294 -24.4774 -0.762924 -7.76364 40.5043Z" fill="#0077F9"/>
<path opacity="0.1" d="M47.2824 123.641C35.6398 126.463 24.5444 130.856 14.2484 136.581C-7.19301 97.5909 -28.6337 58.6005 -50.0751 19.6094C-29.4529 8.14457 -7.22917 -0.65415 16.0887 -6.30899C26.4868 37.0078 36.8835 80.3245 47.2824 123.641Z" fill="#0077F9"/>
<path opacity="0.1" d="M149.763 42.8178C128.353 35.5543 107.019 31.7027 86.1839 30.8647C87.745 -13.6361 89.3061 -58.1383 90.8672 -102.64C124.214 -101.3 158.357 -95.1359 192.622 -83.5103C178.336 -41.4007 164.05 0.70819 149.763 42.8178Z" fill="#29ABE2"/>
<path opacity="0.2" d="M127.97 67.0971C90.9196 57.0767 54.4571 58.5995 21.5123 68.8971C12.8771 40.9141 4.24332 12.9313 -4.39187 -15.0517C43.5596 -30.0396 96.6298 -32.2561 150.555 -17.6721C143.026 10.5857 135.499 38.8421 127.97 67.0971Z" fill="#0077F9"/>
<path opacity="0.2" d="M31.4354 34.5504C20.6486 36.8857 10.1254 40.0229 -0.0637726 43.8927C-18.4909 -5.27427 -36.9174 -54.4405 -55.3445 -103.608C-37.975 -110.206 -20.0351 -115.552 -1.64761 -119.533C9.37961 -68.1728 20.4075 -16.8105 31.4354 34.5504Z" fill="#29ABE2"/>
<path opacity="0.1" d="M104.181 17.9538C82.5148 15.4437 61.2365 16.0312 40.7462 19.335C35.1811 -15.2428 29.6168 -49.8213 24.051 -84.3998C53.6302 -89.1686 84.3492 -90.0183 115.623 -86.3934C111.81 -51.611 107.994 -16.8294 104.181 17.9538Z" fill="#0077F9"/>
</g>
<mask id="mask3_251_2193" style="mask-type:luminance" maskUnits="userSpaceOnUse" x="-281" y="-119" width="707" height="707">
<path d="M425.817 244.531L82.5308 -119L-281 224.286L62.286 587.817L425.817 244.531Z" fill="white"/>
</mask>
<g mask="url(#mask3_251_2193)">
<path opacity="0.1" d="M216.436 312.22C225.044 298.986 231.947 284.566 236.808 269.278C279.295 282.661 321.783 296.045 364.269 309.43C355.774 336.154 343.706 361.364 328.656 384.499C291.25 360.406 253.842 336.313 216.436 312.22Z" fill="#29ABE2"/>
<path opacity="0.1" d="M152.58 428.313C171.459 420.565 189.153 410.339 205.227 398.05C232.154 433.444 259.083 468.838 286.01 504.234C260.579 523.677 232.587 539.853 202.72 552.113C186.006 510.846 169.294 469.581 152.58 428.313Z" fill="#0077F9"/>
<path opacity="0.2" d="M171.881 437.026C211.09 418.119 244.811 389.002 269.316 353.2C293.526 369.619 317.736 386.038 341.946 402.457C308.669 451.078 262.877 490.617 209.63 516.293C197.049 489.87 184.465 463.448 171.881 437.026Z" fill="#29ABE2"/>
<path opacity="0.1" d="M239.698 352.435C246.34 344.078 252.395 335.238 257.795 325.979C303.256 352.197 348.716 378.416 394.177 404.636C384.929 420.495 374.557 435.635 363.18 449.949C322.019 417.446 280.859 384.941 239.698 352.435Z" fill="#0077F9"/>
<path opacity="0.05" d="M170.42 377.784C184.236 368.85 196.884 358.201 208.033 346.145C233.736 369.84 259.441 393.534 285.144 417.228C267.921 435.851 248.387 452.302 227.05 466.098C208.174 436.66 189.297 407.223 170.42 377.784Z" fill="#0077F9"/>
<path opacity="0.2" d="M97.5352 345.176C109.176 342.353 120.272 337.96 130.568 332.236C152.009 371.227 173.45 410.217 194.893 449.207C174.269 460.672 152.045 469.47 128.727 475.127C118.329 431.81 107.932 388.493 97.5352 345.176Z" fill="#29ABE2"/>
<path opacity="0.2" d="M-4.94563 425.998C16.4637 433.261 37.7974 437.113 58.6324 437.951C57.072 482.453 55.5094 526.955 53.949 571.457C20.6025 570.115 -13.5417 563.951 -47.8061 552.326C-33.5195 510.217 -19.233 468.109 -4.94563 425.998Z" fill="#29ABE2"/>
<path opacity="0.2" d="M16.8464 401.719C53.8972 411.741 90.3591 410.217 123.304 399.919C131.938 427.902 140.574 455.885 149.207 483.867C101.257 498.855 48.1857 501.072 -5.73876 486.487C1.78935 458.233 9.31828 429.975 16.8464 401.719Z" fill="#0077F9"/>
<path opacity="0.1" d="M113.381 434.265C124.168 431.93 134.691 428.795 144.881 424.924C163.307 474.091 181.734 523.258 200.161 572.424C182.791 579.022 164.851 584.368 146.464 588.35C135.438 536.989 124.409 485.628 113.381 434.265Z" fill="#0077F9"/>
<path opacity="0.05" d="M40.6377 450.863C62.3013 453.374 83.581 452.786 104.071 449.482C109.636 484.061 115.199 518.64 120.765 553.217C91.1859 557.987 60.4684 558.836 29.1949 555.211C33.0066 520.428 36.8218 485.645 40.6377 450.863Z" fill="#29ABE2"/>
<path opacity="0.2" d="M279.789 231.43C281.179 211.637 279.779 191.129 275.183 170.289C318.642 160.856 362.102 151.421 405.561 141.986C413.026 175.841 415.3 209.158 413.042 241.312C368.624 238.018 324.206 234.723 279.789 231.43Z" fill="#0077F9"/>
<path opacity="0.2" d="M265.209 315.402C274.158 297.789 280.812 278.859 284.751 259.009C328.447 267.695 372.144 276.383 415.84 285.069C409.535 316.837 398.884 347.134 384.563 375.321C344.778 355.348 304.993 335.375 265.209 315.402Z" fill="#0077F9"/>
<path opacity="0.1" d="M243.578 291.831C255.399 264.685 261.077 234.375 258.746 202.665C287.943 200.699 317.14 198.735 346.338 196.77C349.733 242.923 341.468 287.039 324.263 326.547C297.366 314.974 270.472 303.401 243.578 291.831Z" fill="#0077F9"/>
<path opacity="0.2" d="M227.249 198.341C226.284 189.826 224.624 181.204 222.223 172.523C251.642 164.388 281.06 156.251 310.479 148.116C314.239 161.714 316.838 175.22 318.352 188.559C287.985 191.819 257.618 195.079 227.249 198.341Z" fill="#29ABE2"/>
<path opacity="0.05" d="M294.896 278.159C300.378 258.269 303.271 237.36 303.171 215.817C350.431 215.858 397.689 215.901 444.949 215.941C445.109 250.386 440.482 283.817 431.718 315.618C386.109 303.133 340.503 290.646 294.896 278.159Z" fill="#0077F9"/>
</g>
<mask id="mask4_251_2193" style="mask-type:luminance" maskUnits="userSpaceOnUse" x="-281" y="-119" width="707" height="707">
<path d="M425.817 244.531L82.5308 -119L-281 224.286L62.286 587.817L425.817 244.531Z" fill="white"/>
</mask>
<g mask="url(#mask4_251_2193)">
<g opacity="0.2">
<path opacity="0.05" d="M-14.3918 258.529C-12.609 266.945 -9.71265 275.163 -5.69419 282.927C-27.2232 294.142 -48.7529 305.357 -70.2833 316.572C-77.3066 303 -82.3712 288.635 -85.4874 273.92C-61.7891 268.791 -38.0908 263.66 -14.3918 258.529Z" fill="#1A81BD"/>
<path opacity="0.1" d="M18.726 200.012C15.3279 205.585 12.7447 211.554 10.9819 217.728C-12.303 210.967 -35.5913 204.203 -58.8768 197.44C-55.3464 185.075 -50.1753 173.121 -43.3681 161.959C-22.6701 174.645 -1.97136 187.328 18.726 200.012Z" fill="#1A81BD"/>
<path opacity="0.1" d="M27.0711 129.378C16.0239 134.83 6.31789 141.566 -2.03362 149.271C-18.5799 131.522 -35.1268 113.772 -51.6752 96.0217C-38.3079 83.6877 -22.7752 72.9069 -5.09087 64.1834C5.62909 85.9146 16.3525 107.648 27.0711 129.378Z" fill="#1A81BD"/>
<path opacity="0.2" d="M28.0291 147.132C9.89157 157.549 -3.57205 172.186 -12.2983 188.849C-26.4081 181.393 -40.5193 173.936 -54.6291 166.481C-41.9278 142.228 -22.3326 120.925 4.06737 105.765C12.0565 119.554 20.0435 133.343 28.0291 147.132Z" fill="#1A81BD"/>
<path opacity="0.1" d="M-0.0733536 137.363C-9.38966 144.744 -17.3636 153.17 -23.9842 162.337C-39.4545 151.158 -54.922 139.978 -70.3922 128.797C-60.8312 115.562 -49.3208 103.399 -35.8729 92.745C-23.9413 107.617 -12.0084 122.488 -0.0733536 137.363Z" fill="#1A81BD"/>
<path opacity="0.1" d="M-7.67423 314.072C-0.580817 322.235 7.86046 329.598 17.6611 335.858C4.54934 356.24 -8.561 376.621 -21.6707 397.005C-37.5943 386.834 -51.3077 374.874 -62.8285 361.615C-44.4428 345.766 -26.0578 329.92 -7.67423 314.072Z" fill="#1A81BD"/>
<path opacity="0.2" d="M-16.9933 276.846C-11.0886 291.861 -1.59641 305.729 11.5206 317.05C1.02699 329.056 -9.46668 341.064 -19.9597 353.073C-39.0551 336.597 -52.8675 316.412 -61.4632 294.558C-46.6397 288.656 -31.8154 282.75 -16.9933 276.846Z" fill="#1A81BD"/>
<path opacity="0.05" d="M25.3232 306.58C28.9779 309.487 32.9388 312.17 37.2087 314.59C29.0093 329.06 20.8063 343.533 12.6062 358.005C5.91677 354.213 -0.289076 350.009 -6.01087 345.453C4.4314 332.498 14.8774 319.537 25.3232 306.58Z" fill="#1A81BD"/>
</g>
</g>
<mask id="mask5_251_2193" style="mask-type:luminance" maskUnits="userSpaceOnUse" x="-281" y="-119" width="707" height="707">
<path d="M425.817 244.531L82.5308 -119L-281 224.286L62.286 587.817L425.817 244.531Z" fill="white"/>
</mask>
<g mask="url(#mask5_251_2193)">
<g opacity="0.2">
<path opacity="0.1" d="M156.576 207.499C154.794 199.082 151.897 190.863 147.877 183.101C169.408 171.887 190.936 160.672 212.466 149.457C219.49 163.029 224.554 177.392 227.671 192.107C203.972 197.237 180.274 202.369 156.576 207.499Z" fill="#1A81BD"/>
<path opacity="0.1" d="M176.705 276.839C180.993 266.579 183.872 255.822 185.33 244.891C209.345 248.153 233.361 251.418 257.375 254.679C255.068 271.97 250.516 288.99 243.73 305.223C221.389 295.764 199.047 286.3 176.705 276.839Z" fill="#1A81BD"/>
<path opacity="0.2" d="M187.501 272.761C195.323 250.365 197.097 226.152 192.744 202.912C208.399 199.91 224.054 196.907 239.711 193.906C245.624 225.463 243.214 258.345 232.591 288.758C217.561 283.425 202.53 278.093 187.501 272.761Z" fill="#1A81BD"/>
<path opacity="0.1" d="M181.035 214.031C180.374 208.252 179.302 202.511 177.815 196.864C205.435 189.449 233.058 182.035 260.679 174.619C263.227 184.294 265.064 194.126 266.196 204.025C237.809 207.361 209.423 210.696 181.035 214.031Z" fill="#1A81BD"/>
<path opacity="0.05" d="M164.108 250.495C165.99 241.728 166.758 232.751 166.41 223.81C185.446 223.035 204.481 222.261 223.516 221.486C224.054 235.298 222.868 249.168 219.961 262.702C201.344 258.634 182.726 254.565 164.108 250.495Z" fill="#1A81BD"/>
<path opacity="0.2" d="M123.457 266.016C126.854 260.441 129.438 254.474 131.2 248.299C154.488 255.061 177.772 261.825 201.059 268.587C197.53 280.951 192.357 292.907 185.551 304.071C164.853 291.386 144.155 278.699 123.457 266.016Z" fill="#1A81BD"/>
<path opacity="0.2" d="M115.111 336.649C126.161 331.197 135.866 324.46 144.216 316.756C160.764 334.506 177.31 352.255 193.858 370.006C180.49 382.341 164.961 393.122 147.275 401.845C136.555 380.113 125.833 358.381 115.111 336.649Z" fill="#1A81BD"/>
<path opacity="0.2" d="M114.153 318.895C132.292 308.481 145.755 293.842 154.481 277.18C168.593 284.634 182.703 292.091 196.812 299.546C184.11 323.799 164.514 345.103 138.117 360.262C130.125 346.475 122.141 332.685 114.153 318.895Z" fill="#1A81BD"/>
<path opacity="0.1" d="M163.893 294.239C167.15 289.182 169.996 283.919 172.431 278.501C198.477 290.347 224.525 302.191 250.57 314.037C246.42 323.273 241.567 332.245 236.016 340.865C211.975 325.322 187.934 309.781 163.893 294.239Z" fill="#1A81BD"/>
<path opacity="0.05" d="M142.257 328.667C151.574 321.285 159.547 312.859 166.168 303.689C181.637 314.87 197.105 326.05 212.575 337.231C203.015 350.466 191.505 362.631 178.057 373.286C166.123 358.413 154.19 343.54 142.257 328.667Z" fill="#1A81BD"/>
<path opacity="0.2" d="M149.855 151.955C142.764 143.791 134.323 136.429 124.522 130.17C137.632 109.788 150.743 89.4053 163.853 69.023C179.778 79.1917 193.491 91.1539 205.012 104.415C186.626 120.26 168.241 136.107 149.855 151.955Z" fill="#1A81BD"/>
<path opacity="0.2" d="M176.595 189.928C173.257 179.694 168.526 169.836 162.395 160.668C182.582 147.178 202.767 133.689 222.952 120.197C232.764 134.868 240.333 150.647 245.678 167.027C222.649 174.663 199.623 182.296 176.595 189.928Z" fill="#1A81BD"/>
<path opacity="0.1" d="M159.176 189.182C153.273 174.166 143.78 160.298 130.662 148.978C141.156 136.97 151.651 124.963 162.144 112.954C181.236 129.431 195.051 149.615 203.646 171.469C188.822 177.373 173.999 183.277 159.176 189.182Z" fill="#1A81BD"/>
<path opacity="0.2" d="M116.86 159.449C113.205 156.54 109.246 153.857 104.975 151.437C113.175 136.966 121.376 122.494 129.577 108.022C136.266 111.815 142.472 116.017 148.196 120.573C137.751 133.53 127.307 146.491 116.86 159.449Z" fill="#1A81BD"/>
<path opacity="0.05" d="M173.683 164.139C168.131 154.364 161.188 145.191 152.849 136.928C171.076 118.733 189.305 100.539 207.53 82.3432C220.866 95.5545 231.965 110.22 240.841 125.851C218.455 138.614 196.07 151.378 173.683 164.139Z" fill="#1A81BD"/>
</g>
</g>
<mask id="mask6_251_2193" style="mask-type:luminance" maskUnits="userSpaceOnUse" x="-281" y="-119" width="707" height="707">
<path d="M425.817 244.531L82.5308 -119L-281 224.286L62.286 587.817L425.817 244.531Z" fill="white"/>
</mask>
<g mask="url(#mask6_251_2193)">
<path d="M19.8127 62.7373L22.4406 24.483L-32.1621 45.306L19.8127 62.7373Z" stroke="#8FD1F7" stroke-width="0.8759" stroke-miterlimit="10"/>
<path d="M-6.25934 -30.7852L-32.162 45.3061L22.4406 24.4831L-6.25934 -30.7852Z" stroke="#8FD1F7" stroke-width="0.8759" stroke-miterlimit="10"/>
<path d="M57.2149 -39.0935L-6.25935 -30.7852L22.4406 24.483L57.2149 -39.0935Z" stroke="#8FD1F7" stroke-width="0.8759" stroke-miterlimit="10"/>
<path d="M57.2149 -39.0936L109.423 -10.9746L120.998 -56.6847L57.2149 -39.0936Z" stroke="#8FD1F7" stroke-width="0.8759" stroke-miterlimit="10"/>
<path d="M153.408 -58.7529L109.423 -10.9746L167.784 -13.2588L153.408 -58.7529Z" stroke="#8FD1F7" stroke-width="0.8759" stroke-miterlimit="10"/>
</g>
<mask id="mask7_251_2193" style="mask-type:luminance" maskUnits="userSpaceOnUse" x="-281" y="-119" width="707" height="707">
<path d="M425.817 244.531L82.5308 -119L-281 224.286L62.286 587.817L425.817 244.531Z" fill="white"/>
</mask>
<g mask="url(#mask7_251_2193)">
<path d="M486.676 282.229L465.879 226.229L383.029 264.882L486.676 282.229Z" stroke="#8FD1F7" stroke-miterlimit="10" stroke-linecap="round" stroke-linejoin="round"/>
<path d="M400.656 172.585L383.029 264.882L465.879 226.229L400.656 172.585Z" stroke="#8FD1F7" stroke-miterlimit="10" stroke-linecap="round" stroke-linejoin="round"/>
<path d="M308.167 252.072L383.029 264.882L341.818 291.845L308.167 252.072Z" stroke="#8FD1F7" stroke-miterlimit="10" stroke-linecap="round" stroke-linejoin="round"/>
<path d="M344.802 200.495L383.029 264.882L308.167 252.073L344.802 200.495Z" stroke="#8FD1F7" stroke-miterlimit="10" stroke-linecap="round" stroke-linejoin="round"/>
<path d="M250.164 252.589L308.167 252.073L344.802 200.494L250.164 252.589Z" stroke="#8FD1F7" stroke-miterlimit="10" stroke-linecap="round" stroke-linejoin="round"/>
<path d="M266.986 330.349L250.164 252.589L308.167 252.073L266.986 330.349Z" stroke="#8FD1F7" stroke-miterlimit="10" stroke-linecap="round" stroke-linejoin="round"/>
<path d="M266.986 330.348L340.51 323.24L307.805 376.805L266.986 330.348Z" stroke="#8FD1F7" stroke-miterlimit="10" stroke-linecap="round" stroke-linejoin="round"/>
<path d="M234.735 388.523L307.805 376.805L266.986 330.349L234.735 388.523Z" stroke="#8FD1F7" stroke-miterlimit="10" stroke-linecap="round" stroke-linejoin="round"/>
<path d="M202.38 336.162L234.735 388.523L266.986 330.348L202.38 336.162Z" stroke="#8FD1F7" stroke-miterlimit="10" stroke-linecap="round" stroke-linejoin="round"/>
<path d="M244.501 445.722L234.735 388.523L193.494 410.19L244.501 445.722Z" stroke="#8FD1F7" stroke-miterlimit="10" stroke-linecap="round" stroke-linejoin="round"/>
<path d="M134.067 390.548L131.258 434.234L193.494 410.19L134.067 390.548Z" stroke="#8FD1F7" stroke-miterlimit="10" stroke-linecap="round" stroke-linejoin="round"/>
<path d="M164.297 497.19L193.494 410.19L131.258 434.234L164.297 497.19Z" stroke="#8FD1F7" stroke-miterlimit="10" stroke-linecap="round" stroke-linejoin="round"/>
<path d="M91.8733 506.991L164.297 497.191L131.258 434.234L91.8733 506.991Z" stroke="#8FD1F7" stroke-miterlimit="10" stroke-linecap="round" stroke-linejoin="round"/>
<path d="M91.8733 506.99L32.1282 475.147L19.1402 527.391L91.8733 506.99Z" stroke="#8FD1F7" stroke-miterlimit="10" stroke-linecap="round" stroke-linejoin="round"/>
<path d="M88.8015 573.018L91.8733 506.991L19.1402 527.391L88.8015 573.018Z" stroke="#8FD1F7" stroke-miterlimit="10" stroke-linecap="round" stroke-linejoin="round"/>
<path d="M2.64812 609.604L88.8015 573.018L19.1402 527.391L2.64812 609.604Z" stroke="#8FD1F7" stroke-miterlimit="10" stroke-linecap="round" stroke-linejoin="round"/>
<path d="M-17.8511 529.912L32.1282 475.148L-34.4897 478.046L-17.8511 529.912Z" stroke="#8FD1F7" stroke-miterlimit="10" stroke-linecap="round" stroke-linejoin="round"/>
<path d="M340.51 323.24L372.321 348.02L386.209 317.374L340.51 323.24Z" stroke="#8FD1F7" stroke-miterlimit="10" stroke-linecap="round" stroke-linejoin="round"/>
<path d="M344.801 200.494L334.268 160.634L363.499 166.648L344.801 200.494Z" stroke="#8FD1F7" stroke-miterlimit="10" stroke-linecap="round" stroke-linejoin="round"/>
</g>
<mask id="mask8_251_2193" style="mask-type:luminance" maskUnits="userSpaceOnUse" x="-281" y="-119" width="707" height="707">
<path d="M425.817 244.531L82.5308 -119L-281 224.286L62.286 587.817L425.817 244.531Z" fill="white"/>
</mask>
<g mask="url(#mask8_251_2193)">
<path d="M180.353 300.923C186.241 291.382 190.757 281.218 193.885 270.718L181.894 267.134C184.753 257.535 186.332 247.628 186.617 237.683C186.902 227.736 185.893 217.755 183.588 208.008L195.764 205.117L209.988 201.74C207.175 189.848 202.795 178.243 196.849 167.242C191.103 156.61 183.897 146.544 175.206 137.34L164.579 147.375C164.579 147.374 164.579 147.374 164.578 147.373C156.785 139.121 148.144 132.155 138.923 126.466L146.593 114.02C135.951 107.453 124.617 102.416 112.904 98.9271C101.026 95.3887 88.7663 93.4346 76.4592 93.0821C64.1521 92.7296 51.7991 93.9788 39.7376 96.8314C27.8457 99.6437 16.2406 104.024 5.23928 109.971L12.1825 122.836L18.1282 133.85C9.53682 138.494 1.40193 144.316 -6.03591 151.34C-13.4738 158.363 -19.7529 166.154 -24.8819 174.464L-35.5368 167.899C-41.4247 177.441 -45.9418 187.605 -49.0694 198.105C-52.2415 208.755 -53.993 219.748 -54.3091 230.784C-54.6245 241.82 -53.5043 252.894 -50.9469 263.708L-38.7697 260.816C-36.4962 270.426 -32.957 279.805 -28.1509 288.695C-23.5067 297.285 -17.6843 305.419 -10.6621 312.856C-10.6614 312.857 -10.6614 312.857 -10.6607 312.857L-19.7592 321.449C-11.9666 329.701 -3.32504 336.668 5.89636 342.356L-1.7725 354.802C8.86966 361.369 20.2057 366.406 31.9172 369.894L36.1023 355.888C46.7518 359.06 57.7455 360.812 68.7796 361.128L69.1379 348.618C79.0828 348.903 89.0641 347.894 98.8109 345.589C108.422 343.316 117.8 339.776 126.689 334.97L132.635 345.984C142.167 340.831 151.193 334.371 159.444 326.579C167.697 318.786 174.664 310.144 180.353 300.923Z" stroke="#8FD1F7" stroke-width="0.8477" stroke-miterlimit="10"/>
</g>
<mask id="mask9_251_2193" style="mask-type:luminance" maskUnits="userSpaceOnUse" x="-281" y="-119" width="707" height="707">
<path d="M425.817 244.531L82.5308 -119L-281 224.286L62.286 587.817L425.817 244.531Z" fill="white"/>
</mask>
<g mask="url(#mask9_251_2193)">
<path d="M180.353 300.923C186.241 291.382 190.757 281.218 193.885 270.718L181.894 267.134C184.753 257.535 186.332 247.628 186.617 237.683C186.902 227.736 185.893 217.755 183.588 208.008L195.764 205.117L209.988 201.74C207.175 189.848 202.795 178.243 196.849 167.242C191.103 156.61 183.897 146.544 175.206 137.34L164.579 147.375C164.579 147.374 164.579 147.374 164.578 147.373C156.785 139.121 148.144 132.155 138.923 126.466L146.593 114.02C135.951 107.453 124.617 102.416 112.904 98.9271C101.026 95.3887 88.7663 93.4346 76.4592 93.0821C64.1521 92.7296 51.7991 93.9788 39.7376 96.8314C27.8457 99.6437 16.2406 104.024 5.23928 109.971L12.1825 122.836L18.1282 133.85C9.53682 138.494 1.40193 144.316 -6.03591 151.34C-13.4738 158.363 -19.7529 166.154 -24.8819 174.464L-35.5368 167.899C-41.4247 177.441 -45.9418 187.605 -49.0694 198.105C-52.2415 208.755 -53.993 219.748 -54.3091 230.784C-54.6245 241.82 -53.5043 252.894 -50.9469 263.708L-38.7697 260.816C-36.4962 270.426 -32.957 279.805 -28.1509 288.695C-23.5067 297.285 -17.6843 305.419 -10.6621 312.856C-10.6614 312.857 -10.6614 312.857 -10.6607 312.857L-19.7592 321.449C-11.9666 329.701 -3.32504 336.668 5.89636 342.356L-1.7725 354.802C8.86966 361.369 20.2057 366.406 31.9172 369.894L36.1023 355.888C46.7518 359.06 57.7455 360.812 68.7796 361.128L69.1379 348.618C79.0828 348.903 89.0641 347.894 98.8109 345.589C108.422 343.316 117.8 339.776 126.689 334.97L132.635 345.984C142.167 340.831 151.193 334.371 159.444 326.579C167.697 318.786 174.664 310.144 180.353 300.923Z" stroke="#8FD1F7" stroke-miterlimit="10" stroke-linecap="round" stroke-linejoin="round"/>
</g>
<mask id="mask10_251_2193" style="mask-type:luminance" maskUnits="userSpaceOnUse" x="-277" y="-116" width="699" height="699">
<path d="M128.688 -115.273L-276.618 177.511L16.1656 582.818L421.472 290.034L128.688 -115.273Z" fill="white"/>
</mask>
<g mask="url(#mask10_251_2193)">
<path d="M132.028 317.25C178.327 283.804 188.747 219.158 155.301 172.858C121.856 126.559 57.2094 116.138 10.9098 149.584C-35.3897 183.03 -45.8098 247.676 -12.3641 293.976C21.0817 340.275 85.728 350.695 132.028 317.25Z" stroke="#8FD1F7" stroke-miterlimit="10" stroke-linecap="round" stroke-linejoin="round"/>
</g>
</g>
<defs>
<clipPath id="clip0_251_2193">
<rect width="500" height="500" fill="white" transform="translate(82.5308 -119) rotate(46.6406)"/>
</clipPath>
</defs>
</svg>
