<svg width="497" height="707" viewBox="0 0 497 707" fill="none" xmlns="http://www.w3.org/2000/svg">
<g clip-path="url(#clip0_251_2016)">
<mask id="mask0_251_2016" style="mask-type:luminance" maskUnits="userSpaceOnUse" x="0" y="0" width="708" height="707">
<path d="M707.286 363.531L364 0L0.469156 343.286L343.755 706.817L707.286 363.531Z" fill="white"/>
</mask>
<g mask="url(#mask0_251_2016)">
<path d="M347.042 66.3867L335.597 -28.6622L405.148 -22.7808L347.042 66.3867Z" stroke="#97D9FF" stroke-width="0.8973" stroke-miterlimit="10" stroke-linecap="round"/>
<path d="M347.042 66.3866L435.926 66.1078L390.743 126.618L347.042 66.3866Z" stroke="#97D9FF" stroke-width="0.8973" stroke-miterlimit="10" stroke-linecap="round"/>
<path d="M301.887 132.472L390.743 126.618L347.042 66.3867L301.887 132.472Z" stroke="#97D9FF" stroke-width="0.8973" stroke-miterlimit="10" stroke-linecap="round"/>
<path d="M268.985 66.1148L301.887 132.472L347.042 66.3867L268.985 66.1148Z" stroke="#97D9FF" stroke-width="0.8973" stroke-miterlimit="10" stroke-linecap="round"/>
<path d="M307.179 202.095L301.887 132.472L250.046 153.812L307.179 202.095Z" stroke="#97D9FF" stroke-width="0.8973" stroke-miterlimit="10" stroke-linecap="round"/>
<path d="M181.049 123.621L172.791 175.647L250.046 153.813L181.049 123.621Z" stroke="#97D9FF" stroke-width="0.8973" stroke-miterlimit="10" stroke-linecap="round"/>
<path d="M205.323 254.776L250.046 153.813L172.791 175.647L205.323 254.776Z" stroke="#97D9FF" stroke-width="0.8973" stroke-miterlimit="10" stroke-linecap="round"/>
<path d="M117.452 258.405L205.323 254.776L172.791 175.647L117.452 258.405Z" stroke="#97D9FF" stroke-width="0.8973" stroke-miterlimit="10" stroke-linecap="round"/>
<path d="M117.452 258.405L49.4399 213.56L28.0281 274.697L117.452 258.405Z" stroke="#97D9FF" stroke-width="0.8973" stroke-miterlimit="10" stroke-linecap="round"/>
<path d="M106.377 337.167L117.452 258.405L28.0281 274.698L106.377 337.167Z" stroke="#97D9FF" stroke-width="0.8973" stroke-miterlimit="10" stroke-linecap="round"/>
<path d="M-0.942211 371.349L106.377 337.167L28.0281 274.698L-0.942211 371.349Z" stroke="#97D9FF" stroke-width="0.8973" stroke-miterlimit="10" stroke-linecap="round"/>
<path d="M205.323 254.775L221.685 305.843L168.873 301.634L205.323 254.775Z" stroke="#97D9FF" stroke-width="0.8973" stroke-miterlimit="10" stroke-linecap="round"/>
<path d="M106.377 337.167L119.018 417.23L66.9073 435.873L106.377 337.167Z" stroke="#97D9FF" stroke-width="0.8973" stroke-miterlimit="10" stroke-linecap="round"/>
</g>
<mask id="mask1_251_2016" style="mask-type:luminance" maskUnits="userSpaceOnUse" x="0" y="0" width="708" height="707">
<path d="M707.286 363.531L364 0L0.469156 343.286L343.755 706.817L707.286 363.531Z" fill="white"/>
</mask>
<g mask="url(#mask1_251_2016)">
<path d="M345.802 636.369L358.111 740.802L281.732 734.15L345.802 636.369Z" stroke="#97D9FF" stroke-width="0.8973" stroke-miterlimit="10" stroke-linecap="round"/>
<path d="M345.801 636.37L248.173 636.43L297.966 570.091L345.801 636.37Z" stroke="#97D9FF" stroke-width="0.8973" stroke-miterlimit="10" stroke-linecap="round"/>
<path d="M395.584 563.904L297.966 570.091L345.801 636.369L395.584 563.904Z" stroke="#97D9FF" stroke-width="0.8973" stroke-miterlimit="10" stroke-linecap="round"/>
<path d="M431.538 636.883L395.584 563.904L345.801 636.37L431.538 636.883Z" stroke="#97D9FF" stroke-width="0.8973" stroke-miterlimit="10" stroke-linecap="round"/>
<path d="M389.961 487.418L395.585 563.904L452.582 540.609L389.961 487.418Z" stroke="#97D9FF" stroke-width="0.8973" stroke-miterlimit="10" stroke-linecap="round"/>
<path d="M528.284 573.963L537.502 516.839L452.582 540.609L528.284 573.963Z" stroke="#97D9FF" stroke-width="0.8973" stroke-miterlimit="10" stroke-linecap="round"/>
<path d="M501.984 429.834L452.582 540.609L537.501 516.839L501.984 429.834Z" stroke="#97D9FF" stroke-width="0.8973" stroke-miterlimit="10" stroke-linecap="round"/>
<path d="M598.512 426.091L501.984 429.834L537.502 516.839L598.512 426.091Z" stroke="#97D9FF" stroke-width="0.8973" stroke-miterlimit="10" stroke-linecap="round"/>
<path d="M501.984 429.834L484.155 373.697L542.15 378.466L501.984 429.834Z" stroke="#97D9FF" stroke-width="0.8973" stroke-miterlimit="10" stroke-linecap="round"/>
</g>
<mask id="mask2_251_2016" style="mask-type:luminance" maskUnits="userSpaceOnUse" x="0" y="0" width="708" height="707">
<path d="M707.286 363.531L364 0L0.469156 343.286L343.755 706.817L707.286 363.531Z" fill="white"/>
</mask>
<g mask="url(#mask2_251_2016)">
<path opacity="0.05" d="M209.851 275.597C201.242 288.831 194.339 303.252 189.479 318.539C146.991 305.156 104.504 291.772 62.0182 278.387C70.5126 251.663 82.5806 226.452 97.6303 203.317C135.036 227.411 172.445 251.504 209.851 275.597Z" fill="#29ABE2"/>
<path opacity="0.1" d="M273.706 159.504C254.827 167.253 237.133 177.478 221.059 189.768C194.131 154.374 167.203 118.979 140.277 83.584C165.708 64.141 193.7 47.9645 223.566 35.7055C240.279 76.9706 256.992 118.237 273.706 159.504Z" fill="#0077F9"/>
<path opacity="0.2" d="M254.405 150.79C215.196 169.698 181.475 198.813 156.971 234.616C132.76 218.197 108.551 201.778 84.3405 185.359C117.617 136.739 163.41 97.1998 216.656 71.5241C229.238 97.9457 241.822 124.368 254.405 150.79Z" fill="#0077F9"/>
<path opacity="0.2" d="M186.587 235.383C179.946 243.741 173.891 252.579 168.491 261.838C123.029 235.619 77.5691 209.4 32.1086 183.18C41.3572 167.322 51.7284 152.181 63.1051 137.867C104.266 170.372 145.428 202.877 186.587 235.383Z" fill="#0077F9"/>
<path opacity="0.05" d="M255.864 210.033C242.05 218.966 229.401 229.617 218.253 241.672C192.55 217.977 166.845 194.283 141.142 170.588C158.365 151.966 177.898 135.516 199.236 121.718C218.112 151.157 236.988 180.595 255.864 210.033Z" fill="#0077F9"/>
<path opacity="0.1" d="M328.752 242.641C317.109 245.463 306.014 249.856 295.718 255.581C274.276 216.591 252.836 177.6 231.394 138.609C252.016 127.145 274.24 118.346 297.558 112.691C307.956 156.008 318.353 199.324 328.752 242.641Z" fill="#0077F9"/>
<path opacity="0.1" d="M431.232 161.818C409.822 154.554 388.488 150.703 367.653 149.865C369.214 105.364 370.775 60.8617 372.336 16.3595C405.684 17.7002 439.826 23.8641 474.091 35.4897C459.806 77.5993 445.519 119.708 431.232 161.818Z" fill="#29ABE2"/>
<path opacity="0.2" d="M409.439 186.097C372.389 176.077 335.926 177.599 302.981 187.897C294.346 159.914 285.713 131.931 277.077 103.948C325.029 88.9604 378.099 86.7439 432.024 101.328C424.495 129.586 416.968 157.842 409.439 186.097Z" fill="#0077F9"/>
<path opacity="0.2" d="M312.905 153.55C302.118 155.886 291.595 159.023 281.405 162.893C262.978 113.726 244.552 64.5595 226.125 15.3925C243.494 8.7941 261.434 3.44787 279.822 -0.533008C290.849 50.8272 301.877 102.189 312.905 153.55Z" fill="#29ABE2"/>
<path opacity="0.1" d="M385.65 136.954C363.984 134.444 342.706 135.031 322.215 138.335C316.65 103.757 311.086 69.1787 305.52 34.6002C335.099 29.8314 365.818 28.9817 397.092 32.6066C393.279 67.389 389.464 102.171 385.65 136.954Z" fill="#0077F9"/>
<path opacity="0.1" d="M146.498 356.386C145.108 376.18 146.508 396.688 151.103 417.527C107.644 426.961 64.1851 436.397 20.7255 445.833C13.2602 411.978 10.9859 378.661 13.2445 346.506C57.6617 349.799 102.08 353.094 146.498 356.386Z" fill="#0077F9"/>
<path opacity="0.2" d="M161.078 272.416C152.128 290.028 145.474 308.958 141.534 328.808C97.838 320.122 54.1419 311.434 10.4458 302.748C16.7504 270.98 27.4014 240.683 41.7222 212.495C81.5078 232.469 121.293 252.442 161.078 272.416Z" fill="#29ABE2"/>
<path opacity="0.2" d="M182.709 295.986C170.888 323.132 165.209 353.442 167.541 385.152C138.344 387.117 109.148 389.082 79.9496 391.047C76.5546 344.894 84.8192 300.779 102.024 261.27C128.919 272.842 155.814 284.416 182.709 295.986Z" fill="#0077F9"/>
<path opacity="0.05" d="M199.037 389.476C200.002 397.992 201.662 406.613 204.063 415.294C174.644 423.429 145.226 431.566 115.808 439.701C112.047 426.103 109.448 412.597 107.933 399.258C138.301 395.997 168.668 392.737 199.037 389.476Z" fill="#29ABE2"/>
<path opacity="0.1" d="M131.39 309.659C125.908 329.549 123.014 350.458 123.115 372C75.8558 371.959 28.5972 371.917 -18.6628 371.876C-18.8222 337.431 -14.1954 304.001 -5.43032 272.199C40.1759 284.685 85.7835 297.171 131.39 309.659Z" fill="#0077F9"/>
</g>
<mask id="mask3_251_2016" style="mask-type:luminance" maskUnits="userSpaceOnUse" x="0" y="0" width="708" height="707">
<path d="M707.286 363.531L364 0L0.469156 343.286L343.755 706.817L707.286 363.531Z" fill="white"/>
</mask>
<g mask="url(#mask3_251_2016)">
<path opacity="0.1" d="M497.905 431.22C506.513 417.986 513.416 403.566 518.277 388.278C560.764 401.661 603.252 415.045 645.738 428.43C637.243 455.154 625.175 480.364 610.126 503.499C572.719 479.406 535.311 455.313 497.905 431.22Z" fill="#29ABE2"/>
<path opacity="0.1" d="M434.049 547.313C452.928 539.565 470.623 529.339 486.697 517.05C513.624 552.444 540.552 587.838 567.479 623.234C542.048 642.677 514.056 658.853 484.19 671.113C467.475 629.846 450.763 588.581 434.049 547.313Z" fill="#0077F9"/>
<path opacity="0.2" d="M453.351 556.026C492.559 537.119 526.28 508.002 550.785 472.2C574.995 488.619 599.206 505.038 623.416 521.457C590.139 570.078 544.346 609.617 491.099 635.293C478.518 608.87 465.935 582.448 453.351 556.026Z" fill="#29ABE2"/>
<path opacity="0.05" d="M451.89 496.784C465.706 487.85 478.353 477.201 489.502 465.145C515.206 488.84 540.91 512.534 566.613 536.228C549.391 554.851 529.856 571.302 508.519 585.098C489.643 555.66 470.766 526.223 451.89 496.784Z" fill="#0077F9"/>
<path opacity="0.2" d="M379.004 464.176C390.646 461.353 401.741 456.96 412.037 451.236C433.478 490.227 454.919 529.217 476.362 568.207C455.738 579.672 433.515 588.47 410.197 594.127C399.799 550.81 389.401 507.493 379.004 464.176Z" fill="#29ABE2"/>
<path opacity="0.2" d="M276.524 544.998C297.933 552.261 319.267 556.113 340.102 556.951C338.541 601.453 336.979 645.955 335.418 690.457C302.072 689.115 267.928 682.951 233.663 671.326C247.95 629.217 262.236 587.109 276.524 544.998Z" fill="#29ABE2"/>
<path opacity="0.2" d="M298.316 520.719C335.366 530.741 371.828 529.217 404.773 518.919C413.408 546.902 422.043 574.885 430.676 602.867C382.726 617.855 329.655 620.072 275.73 605.487C283.258 577.233 290.787 548.975 298.316 520.719Z" fill="#0077F9"/>
<path opacity="0.1" d="M394.851 553.265C405.638 550.93 416.16 547.795 426.351 543.924C444.776 593.091 463.203 642.258 481.63 691.424C464.26 698.022 446.321 703.368 427.934 707.35C416.907 655.989 405.879 604.628 394.851 553.265Z" fill="#0077F9"/>
<path opacity="0.05" d="M322.107 569.863C343.771 572.374 365.05 571.786 385.54 568.482C391.105 603.061 396.669 637.64 402.234 672.217C372.655 676.987 341.938 677.836 310.664 674.211C314.476 639.428 318.291 604.645 322.107 569.863Z" fill="#29ABE2"/>
<path opacity="0.1" d="M525.047 410.831C536.868 383.685 542.546 353.375 540.215 321.665C569.412 319.699 598.609 317.735 627.807 315.77C631.202 361.923 622.937 406.039 605.732 445.547C578.835 433.974 551.941 422.401 525.047 410.831Z" fill="#0077F9"/>
<path opacity="0.2" d="M508.719 317.341C507.753 308.826 506.093 300.204 503.692 291.523C533.111 283.388 562.53 275.251 591.948 267.116C595.709 280.714 598.308 294.22 599.821 307.559C569.454 310.819 539.087 314.079 508.719 317.341Z" fill="#29ABE2"/>
</g>
<mask id="mask4_251_2016" style="mask-type:luminance" maskUnits="userSpaceOnUse" x="0" y="0" width="708" height="707">
<path d="M707.286 363.531L364 0L0.469156 343.286L343.755 706.817L707.286 363.531Z" fill="white"/>
</mask>
<g mask="url(#mask4_251_2016)">
<g opacity="0.2">
<path opacity="0.05" d="M267.078 377.529C268.86 385.945 271.757 394.163 275.775 401.927C254.246 413.142 232.716 424.357 211.186 435.572C204.163 422 199.098 407.635 195.982 392.92C219.68 387.791 243.379 382.66 267.078 377.529Z" fill="#1A81BD"/>
<path opacity="0.1" d="M246.948 308.188C242.66 318.447 239.782 329.207 238.323 340.138C214.307 336.875 190.293 333.611 166.277 330.349C168.584 313.056 173.137 296.037 179.923 279.805C202.265 289.265 224.606 298.726 246.948 308.188Z" fill="#1A81BD"/>
<path opacity="0.2" d="M236.152 312.268C228.329 334.662 226.554 358.876 230.91 382.116C215.253 385.118 199.595 388.12 183.941 391.123C178.027 359.565 180.438 326.682 191.061 296.271C206.092 301.602 221.122 306.935 236.152 312.268Z" fill="#1A81BD"/>
<path opacity="0.2" d="M242.615 370.996C243.277 376.776 244.351 382.516 245.837 388.164C218.216 395.578 190.594 402.994 162.974 410.406C160.426 400.735 158.588 390.902 157.457 381.002C185.844 377.667 214.231 374.332 242.615 370.996Z" fill="#1A81BD"/>
<path opacity="0.05" d="M259.544 334.533C257.663 343.298 256.893 352.277 257.243 361.219C238.208 361.993 219.171 362.766 200.136 363.54C199.598 349.728 200.785 335.861 203.691 322.323C222.308 326.394 240.927 330.464 259.544 334.533Z" fill="#1A81BD"/>
<path opacity="0.1" d="M300.195 319.012C296.797 324.585 294.214 330.554 292.451 336.728C269.166 329.967 245.878 323.203 222.593 316.44C226.123 304.075 231.294 292.121 238.101 280.959C258.799 293.645 279.498 306.328 300.195 319.012Z" fill="#1A81BD"/>
<path opacity="0.1" d="M308.54 248.378C297.493 253.83 287.787 260.566 279.436 268.271C262.889 250.522 246.342 232.772 229.794 215.022C243.161 202.688 258.694 191.907 276.378 183.183C287.098 204.915 297.822 226.648 308.54 248.378Z" fill="#1A81BD"/>
<path opacity="0.2" d="M309.498 266.132C291.361 276.549 277.897 291.186 269.171 307.849C255.061 300.393 240.95 292.936 226.84 285.481C239.541 261.228 259.137 239.925 285.537 224.765C293.526 238.554 301.513 252.343 309.498 266.132Z" fill="#1A81BD"/>
<path opacity="0.2" d="M259.759 290.79C256.502 295.847 253.657 301.11 251.218 306.528C225.174 294.683 199.126 282.837 173.081 270.992C177.231 261.756 182.083 252.782 187.636 244.165C211.675 259.706 235.719 275.248 259.759 290.79Z" fill="#1A81BD"/>
<path opacity="0.1" d="M281.396 256.363C272.08 263.744 264.106 272.17 257.485 281.337C242.015 270.158 226.547 258.978 211.077 247.797C220.638 234.562 232.148 222.399 245.596 211.745C257.528 226.617 269.461 241.488 281.396 256.363Z" fill="#1A81BD"/>
<path opacity="0.1" d="M273.795 433.072C280.888 441.235 289.33 448.598 299.13 454.858C286.019 475.24 272.908 495.621 259.798 516.005C243.875 505.834 230.161 493.874 218.641 480.615C237.026 464.766 255.411 448.92 273.795 433.072Z" fill="#1A81BD"/>
<path opacity="0.2" d="M247.057 395.098C250.396 405.335 255.126 415.191 261.257 424.359C241.072 437.85 220.887 451.34 200.701 464.831C190.888 450.159 183.318 434.381 177.976 418.001C201.002 410.366 224.029 402.732 247.057 395.098Z" fill="#1A81BD"/>
<path opacity="0.2" d="M264.476 395.846C270.381 410.861 279.873 424.729 292.99 436.05C282.496 448.056 272.003 460.064 261.51 472.073C242.414 455.597 228.602 435.412 220.006 413.558C234.83 407.656 249.654 401.75 264.476 395.846Z" fill="#1A81BD"/>
<path opacity="0.05" d="M306.792 425.58C310.447 428.487 314.408 431.17 318.678 433.59C310.479 448.06 302.276 462.533 294.075 477.005C287.386 473.213 281.18 469.009 275.458 464.453C285.901 451.498 296.347 438.537 306.792 425.58Z" fill="#1A81BD"/>
<path opacity="0.1" d="M249.969 420.888C255.52 430.667 262.462 439.838 270.803 448.102C252.576 466.297 234.35 484.489 216.123 502.685C202.789 489.473 191.689 474.808 182.811 459.178C205.197 446.413 227.581 433.652 249.969 420.888Z" fill="#1A81BD"/>
</g>
</g>
<mask id="mask5_251_2016" style="mask-type:luminance" maskUnits="userSpaceOnUse" x="0" y="0" width="708" height="707">
<path d="M707.286 363.531L364 0L0.469156 343.286L343.755 706.817L707.286 363.531Z" fill="white"/>
</mask>
<g mask="url(#mask5_251_2016)">
<g opacity="0.2">
<path opacity="0.1" d="M438.045 326.499C436.263 318.082 433.366 309.863 429.346 302.101C450.877 290.887 472.405 279.672 493.935 268.457C500.96 282.029 506.023 296.392 509.14 311.107C485.441 316.237 461.743 321.369 438.045 326.499Z" fill="#1A81BD"/>
<path opacity="0.1" d="M458.174 395.839C462.462 385.579 465.341 374.822 466.799 363.891C490.814 367.153 514.83 370.418 538.844 373.679C536.537 390.97 531.985 407.99 525.199 424.223C502.858 414.764 480.516 405.3 458.174 395.839Z" fill="#1A81BD"/>
<path opacity="0.2" d="M468.97 391.761C476.792 369.365 478.566 345.152 474.213 321.912C489.868 318.91 505.523 315.907 521.18 312.906C527.093 344.463 524.683 377.345 514.06 407.758C499.03 402.425 483.999 397.093 468.97 391.761Z" fill="#1A81BD"/>
<path opacity="0.1" d="M462.504 333.031C461.843 327.252 460.771 321.511 459.284 315.864C486.904 308.449 514.527 301.035 542.148 293.619C544.696 303.294 546.533 313.126 547.665 323.025C519.278 326.361 490.892 329.696 462.504 333.031Z" fill="#1A81BD"/>
<path opacity="0.05" d="M445.577 369.495C447.459 360.728 448.227 351.751 447.879 342.81C466.915 342.035 485.95 341.261 504.985 340.486C505.524 354.298 504.337 368.168 501.43 381.702C482.813 377.634 464.195 373.565 445.577 369.495Z" fill="#1A81BD"/>
<path opacity="0.2" d="M404.926 385.016C408.323 379.441 410.908 373.474 412.669 367.299C435.957 374.061 459.241 380.825 482.528 387.587C478.999 399.951 473.826 411.907 467.02 423.071C446.322 410.386 425.624 397.699 404.926 385.016Z" fill="#1A81BD"/>
<path opacity="0.2" d="M396.58 455.649C407.63 450.197 417.335 443.46 425.685 435.756C442.234 453.506 458.779 471.255 475.327 489.006C461.959 501.341 446.43 512.122 428.745 520.845C418.024 499.113 407.302 477.381 396.58 455.649Z" fill="#1A81BD"/>
<path opacity="0.2" d="M395.623 437.895C413.761 427.481 427.224 412.842 435.951 396.18C450.062 403.634 464.172 411.091 478.281 418.546C465.579 442.799 445.983 464.103 419.586 479.262C411.594 465.475 403.61 451.685 395.623 437.895Z" fill="#1A81BD"/>
<path opacity="0.1" d="M445.362 413.239C448.619 408.182 451.465 402.919 453.9 397.501C479.946 409.347 505.994 421.191 532.039 433.037C527.889 442.273 523.036 451.245 517.485 459.865C493.444 444.322 469.403 428.781 445.362 413.239Z" fill="#1A81BD"/>
<path opacity="0.05" d="M423.726 447.667C433.043 440.285 441.016 431.859 447.637 422.689C463.106 433.87 478.574 445.05 494.045 456.231C484.484 469.466 472.974 481.631 459.527 492.286C447.592 477.413 435.659 462.54 423.726 447.667Z" fill="#1A81BD"/>
<path opacity="0.2" d="M431.324 270.955C424.233 262.791 415.793 255.429 405.991 249.17C419.102 228.788 432.212 208.405 445.322 188.023C461.247 198.192 474.96 210.154 486.482 223.415C468.095 239.26 449.71 255.107 431.324 270.955Z" fill="#1A81BD"/>
<path opacity="0.2" d="M458.064 308.928C454.727 298.694 449.995 288.836 443.865 279.668C464.051 266.178 484.236 252.689 504.421 239.197C514.233 253.868 521.803 269.647 527.147 286.027C504.118 293.663 481.092 301.296 458.064 308.928Z" fill="#1A81BD"/>
<path opacity="0.1" d="M440.645 308.182C434.742 293.166 425.249 279.298 412.131 267.978C422.625 255.97 433.12 243.963 443.613 231.954C462.705 248.431 476.52 268.615 485.115 290.469C470.291 296.373 455.468 302.277 440.645 308.182Z" fill="#1A81BD"/>
<path opacity="0.2" d="M398.329 278.449C394.675 275.54 390.715 272.857 386.444 270.437C394.645 255.966 402.845 241.494 411.046 227.022C417.736 230.815 423.942 235.017 429.665 239.573C419.22 252.53 408.776 265.491 398.329 278.449Z" fill="#1A81BD"/>
<path opacity="0.05" d="M455.152 283.139C449.6 273.364 442.658 264.191 434.319 255.928C452.545 237.733 470.774 219.539 489 201.343C502.335 214.554 513.434 229.22 522.31 244.851C499.924 257.614 477.539 270.378 455.152 283.139Z" fill="#1A81BD"/>
</g>
</g>
<mask id="mask6_251_2016" style="mask-type:luminance" maskUnits="userSpaceOnUse" x="0" y="0" width="708" height="707">
<path d="M707.286 363.531L364 0L0.469156 343.286L343.755 706.817L707.286 363.531Z" fill="white"/>
</mask>
<g mask="url(#mask6_251_2016)">
<path d="M-7.97775 275.269L10.0246 324.4L82.7386 290.859L-7.97775 275.269Z" stroke="#8FD1F7" stroke-width="0.8759" stroke-miterlimit="10"/>
<path d="M66.9478 371.634L82.7387 290.858L10.0246 324.4L66.9478 371.634Z" stroke="#8FD1F7" stroke-width="0.8759" stroke-miterlimit="10"/>
<path d="M148.263 302.364L82.7386 290.858L118.938 267.399L148.263 302.364Z" stroke="#8FD1F7" stroke-width="0.8759" stroke-miterlimit="10"/>
<path d="M115.977 347.401L82.7387 290.859L148.263 302.364L115.977 347.401Z" stroke="#8FD1F7" stroke-width="0.8759" stroke-miterlimit="10"/>
<path d="M199.068 302.133L148.263 302.364L115.977 347.401L199.068 302.133Z" stroke="#8FD1F7" stroke-width="0.8759" stroke-miterlimit="10"/>
<path d="M184.63 233.959L199.068 302.133L148.263 302.364L184.63 233.959Z" stroke="#8FD1F7" stroke-width="0.8759" stroke-miterlimit="10"/>
<path d="M184.631 233.96L120.204 239.905L149.054 193.113L184.631 233.96Z" stroke="#8FD1F7" stroke-width="0.8759" stroke-miterlimit="10"/>
<path d="M213.1 183.127L149.054 193.113L184.631 233.96L213.1 183.127Z" stroke="#8FD1F7" stroke-width="0.8759" stroke-miterlimit="10"/>
<path d="M241.241 229.113L213.1 183.127L184.631 233.96L241.241 229.113Z" stroke="#8FD1F7" stroke-width="0.8759" stroke-miterlimit="10"/>
<path d="M204.765 132.989L213.1 183.127L249.307 164.306L204.765 132.989Z" stroke="#8FD1F7" stroke-width="0.8759" stroke-miterlimit="10"/>
<path d="M301.282 181.737L303.91 143.483L249.307 164.306L301.282 181.737Z" stroke="#8FD1F7" stroke-width="0.8759" stroke-miterlimit="10"/>
<path d="M275.21 88.2148L249.307 164.306L303.91 143.483L275.21 88.2148Z" stroke="#8FD1F7" stroke-width="0.8759" stroke-miterlimit="10"/>
<path d="M338.684 79.9065L275.21 88.2148L303.91 143.483L338.684 79.9065Z" stroke="#8FD1F7" stroke-width="0.8759" stroke-miterlimit="10"/>
<path d="M17.0017 404.566L10.0246 324.4L66.9477 371.634L17.0017 404.566Z" stroke="#8FD1F7" stroke-width="0.8759" stroke-miterlimit="10"/>
<path d="M338.684 79.9064L390.892 108.025L402.467 62.3153L338.684 79.9064Z" stroke="#8FD1F7" stroke-width="0.8759" stroke-miterlimit="10"/>
<path d="M341.626 22.084L338.684 79.9065L402.467 62.3154L341.626 22.084Z" stroke="#8FD1F7" stroke-width="0.8759" stroke-miterlimit="10"/>
<path d="M417.227 -9.63216L341.626 22.0839L402.468 62.3153L417.227 -9.63216Z" stroke="#8FD1F7" stroke-width="0.8759" stroke-miterlimit="10"/>
<path d="M434.877 60.2471L390.893 108.025L449.253 105.741L434.877 60.2471Z" stroke="#8FD1F7" stroke-width="0.8759" stroke-miterlimit="10"/>
<path d="M120.204 239.905L92.4355 218.08L80.1546 244.87L120.204 239.905Z" stroke="#8FD1F7" stroke-width="0.8759" stroke-miterlimit="10"/>
<path d="M275.21 88.2152L260.048 52.2469L298.608 51.8871L275.21 88.2152Z" stroke="#8FD1F7" stroke-width="0.8759" stroke-miterlimit="10"/>
<path d="M115.977 347.401L125.052 382.354L99.4708 376.975L115.977 347.401Z" stroke="#8FD1F7" stroke-width="0.8759" stroke-miterlimit="10"/>
<path d="M341.626 22.0841L327.288 -35.1475L363.865 -52.0302L341.626 22.0841Z" stroke="#8FD1F7" stroke-width="0.8759" stroke-miterlimit="10"/>
</g>
<mask id="mask7_251_2016" style="mask-type:luminance" maskUnits="userSpaceOnUse" x="0" y="0" width="708" height="707">
<path d="M707.286 363.531L364 0L0.469156 343.286L343.755 706.817L707.286 363.531Z" fill="white"/>
</mask>
<g mask="url(#mask7_251_2016)">
<path d="M483.849 455.162L516.205 507.523L548.455 449.348L483.849 455.162Z" stroke="#8FD1F7" stroke-miterlimit="10" stroke-linecap="round" stroke-linejoin="round"/>
<path d="M525.97 564.722L516.205 507.523L474.963 529.19L525.97 564.722Z" stroke="#8FD1F7" stroke-miterlimit="10" stroke-linecap="round" stroke-linejoin="round"/>
<path d="M415.537 509.548L412.728 553.234L474.963 529.19L415.537 509.548Z" stroke="#8FD1F7" stroke-miterlimit="10" stroke-linecap="round" stroke-linejoin="round"/>
<path d="M445.766 616.19L474.963 529.19L412.727 553.234L445.766 616.19Z" stroke="#8FD1F7" stroke-miterlimit="10" stroke-linecap="round" stroke-linejoin="round"/>
<path d="M373.343 625.991L445.766 616.191L412.728 553.234L373.343 625.991Z" stroke="#8FD1F7" stroke-miterlimit="10" stroke-linecap="round" stroke-linejoin="round"/>
<path d="M373.343 625.99L313.598 594.147L300.61 646.391L373.343 625.99Z" stroke="#8FD1F7" stroke-miterlimit="10" stroke-linecap="round" stroke-linejoin="round"/>
<path d="M370.271 692.018L373.343 625.991L300.61 646.391L370.271 692.018Z" stroke="#8FD1F7" stroke-miterlimit="10" stroke-linecap="round" stroke-linejoin="round"/>
<path d="M284.117 728.604L370.271 692.018L300.609 646.391L284.117 728.604Z" stroke="#8FD1F7" stroke-miterlimit="10" stroke-linecap="round" stroke-linejoin="round"/>
<path d="M263.618 648.912L313.597 594.148L246.98 597.046L263.618 648.912Z" stroke="#8FD1F7" stroke-miterlimit="10" stroke-linecap="round" stroke-linejoin="round"/>
</g>
<mask id="mask8_251_2016" style="mask-type:luminance" maskUnits="userSpaceOnUse" x="0" y="0" width="708" height="707">
<path d="M707.286 363.531L364 0L0.469156 343.286L343.755 706.817L707.286 363.531Z" fill="white"/>
</mask>
<g mask="url(#mask8_251_2016)">
<path d="M461.822 419.923C467.71 410.382 472.226 400.218 475.354 389.718L463.363 386.134C466.222 376.535 467.801 366.628 468.086 356.683C468.371 346.736 467.362 336.755 465.057 327.008L477.233 324.117L491.457 320.74C488.645 308.848 484.264 297.243 478.318 286.242C472.572 275.61 465.367 265.544 456.675 256.34L446.048 266.375C446.048 266.374 446.048 266.374 446.047 266.373C438.255 258.121 429.613 251.155 420.392 245.466L428.062 233.02C417.42 226.453 406.086 221.416 394.374 217.927C382.495 214.389 370.235 212.435 357.928 212.082C345.621 211.73 333.268 212.979 321.207 215.831C309.315 218.644 297.71 223.024 286.708 228.971L293.652 241.836L299.597 252.85C291.006 257.494 282.871 263.316 275.433 270.34C267.995 277.363 261.716 285.154 256.587 293.464L245.932 286.899C240.044 296.441 235.527 306.605 232.4 317.105C229.228 327.755 227.476 338.748 227.16 349.784C226.845 360.82 227.965 371.894 230.522 382.708L242.699 379.816C244.973 389.426 248.512 398.805 253.318 407.695C257.962 416.285 263.785 424.419 270.807 431.856C270.808 431.857 270.808 431.857 270.808 431.857L261.71 440.449C269.503 448.701 278.144 455.668 287.365 461.356L279.697 473.802C290.339 480.369 301.675 485.406 313.386 488.894L317.571 474.888C328.221 478.06 339.215 479.812 350.249 480.128L350.607 467.618C360.552 467.903 370.533 466.894 380.28 464.589C389.891 462.316 399.269 458.776 408.158 453.97L414.104 464.984C423.636 459.831 432.662 453.371 440.914 445.579C449.166 437.786 456.133 429.144 461.822 419.923Z" stroke="#8FD1F7" stroke-width="0.8477" stroke-miterlimit="10"/>
</g>
<mask id="mask9_251_2016" style="mask-type:luminance" maskUnits="userSpaceOnUse" x="0" y="0" width="708" height="707">
<path d="M707.286 363.531L364 0L0.469156 343.286L343.755 706.817L707.286 363.531Z" fill="white"/>
</mask>
<g mask="url(#mask9_251_2016)">
<path d="M461.822 419.923C467.71 410.382 472.226 400.218 475.354 389.718L463.363 386.134C466.222 376.535 467.801 366.628 468.086 356.683C468.371 346.736 467.362 336.755 465.057 327.008L477.233 324.117L491.457 320.74C488.645 308.848 484.264 297.243 478.318 286.242C472.572 275.61 465.367 265.544 456.675 256.34L446.048 266.375C446.048 266.374 446.048 266.374 446.047 266.373C438.255 258.121 429.613 251.155 420.392 245.466L428.062 233.02C417.42 226.453 406.086 221.416 394.374 217.927C382.495 214.389 370.235 212.435 357.928 212.082C345.621 211.73 333.268 212.979 321.207 215.831C309.315 218.644 297.71 223.024 286.708 228.971L293.652 241.836L299.597 252.85C291.006 257.494 282.871 263.316 275.433 270.34C267.995 277.363 261.716 285.154 256.587 293.464L245.932 286.899C240.044 296.441 235.527 306.605 232.4 317.105C229.228 327.755 227.476 338.748 227.16 349.784C226.845 360.82 227.965 371.894 230.522 382.708L242.699 379.816C244.973 389.426 248.512 398.805 253.318 407.695C257.962 416.285 263.785 424.419 270.807 431.856C270.808 431.857 270.808 431.857 270.808 431.857L261.71 440.449C269.503 448.701 278.144 455.668 287.365 461.356L279.697 473.802C290.339 480.369 301.675 485.406 313.386 488.894L317.571 474.888C328.221 478.06 339.215 479.812 350.249 480.128L350.607 467.618C360.552 467.903 370.533 466.894 380.28 464.589C389.891 462.316 399.269 458.776 408.158 453.97L414.104 464.984C423.636 459.831 432.662 453.371 440.914 445.579C449.166 437.786 456.133 429.144 461.822 419.923Z" stroke="#8FD1F7" stroke-miterlimit="10" stroke-linecap="round" stroke-linejoin="round"/>
</g>
<mask id="mask10_251_2016" style="mask-type:luminance" maskUnits="userSpaceOnUse" x="4" y="3" width="699" height="699">
<path d="M410.157 3.72725L4.85083 296.511L297.635 701.818L702.941 409.034L410.157 3.72725Z" fill="white"/>
</mask>
<g mask="url(#mask10_251_2016)">
<path d="M413.497 436.25C459.796 402.804 470.216 338.158 436.771 291.858C403.325 245.559 338.679 235.138 292.379 268.584C246.079 302.03 235.659 366.676 269.105 412.976C302.551 459.275 367.197 469.695 413.497 436.25Z" stroke="#8FD1F7" stroke-miterlimit="10" stroke-linecap="round" stroke-linejoin="round"/>
</g>
</g>
<defs>
<clipPath id="clip0_251_2016">
<rect width="500" height="500" fill="white" transform="translate(364) rotate(46.6406)"/>
</clipPath>
</defs>
</svg>
