<svg width="80" height="190" viewBox="0 0 80 190" fill="none" xmlns="http://www.w3.org/2000/svg">
<path d="M51.2488 24.4327C48.782 31.6158 44.5994 49.4604 60.0344 58.0546C60.0344 58.0546 71.8353 31.3345 52.9272 21.5878C35.2497 9.75409 17.573 33.0089 17.573 33.0089C32.5618 42.361 46.1567 30.0671 51.2488 24.4327Z" fill="url(#paint0_linear_1633_4294)"/>
<path d="M69.9749 8.25803C66.1173 14.8004 58.4436 31.4449 71.8431 42.9583C71.8431 42.9583 88.7596 19.1455 72.1893 5.80693C57.2434 -9.32957 35.2637 9.90907 35.2637 9.90907C48.0733 22.0756 63.8561 12.7571 69.9749 8.25803Z" fill="url(#paint1_linear_1633_4294)"/>
<path d="M37.81 44.0154C36.7223 50.8499 35.7691 67.5219 50.9712 72.8132C50.9712 72.8132 57.369 46.9791 38.8703 41.1986C21.1475 33.3522 8.93173 56.9969 8.93173 56.9969C23.851 63.0376 34.1228 49.8717 37.81 44.0154Z" fill="url(#paint2_linear_1633_4294)"/>
<path d="M27.3212 63.4623C27.4291 70.1202 29.3027 86.0771 44.59 88.5603C44.59 88.5603 46.3504 63.0138 27.8564 60.6158C9.75544 56.1324 2.11685 80.5741 2.11685 80.5741C17.2612 83.8136 24.8029 69.6264 27.3212 63.4623Z" fill="url(#paint3_linear_1633_4294)"/>
<path d="M22.7392 83.8052C23.2823 90.1045 26.1131 105.095 40.7582 106.433C40.7582 106.433 40.7331 82.1198 23.058 81.0743C5.61567 78.027 2.67029e-05 101.683 2.67029e-05 101.683C14.5583 103.748 20.7616 89.8099 22.7392 83.8052Z" fill="url(#paint4_linear_1633_4294)"/>
<path d="M21.5271 105.221C23.114 110.388 28.1788 122.409 40.6594 120.894C40.6594 120.894 36.2643 100.575 21.3021 102.88C6.17416 103.471 5.73582 124.255 5.73582 124.255C18.2774 123.361 20.9551 110.596 21.5271 105.221Z" fill="url(#paint5_linear_1633_4294)"/>
<path d="M23.469 122.972C25.4638 127.382 31.3209 137.482 42.2318 134.723C42.2318 134.723 36.0293 117.179 23.0048 120.92C9.63968 123.157 11.6024 141.661 11.6024 141.661C22.6368 139.449 23.5698 127.811 23.469 122.972Z" fill="url(#paint6_linear_1633_4294)"/>
<path d="M27.7304 138.36C29.8862 141.685 35.8684 149.146 44.3649 145.572C44.3649 145.572 37.1896 132.127 27.1023 136.755C16.5539 140.206 20.4146 154.949 20.4146 154.949C29.0784 151.803 28.4055 142.265 27.7304 138.36Z" fill="url(#paint7_linear_1633_4294)"/>
<path d="M32.7181 151.104C35.0965 153.974 41.5021 160.286 49.0461 156.018C49.0461 156.018 40.8692 144.246 31.9547 149.675C22.4799 154.055 27.7041 167.403 27.7041 167.403C35.4513 163.515 33.776 154.678 32.7181 151.104Z" fill="url(#paint8_linear_1633_4294)"/>
<path d="M39.0463 162.307C41.5607 164.75 48.1914 170.004 54.8149 165.248C54.8149 165.248 45.9754 155.067 38.1883 161.047C29.7723 166.104 36.0083 178.058 36.0083 178.058C42.8593 173.635 40.398 165.542 39.0463 162.307Z" fill="url(#paint9_linear_1633_4294)"/>
<path d="M45.7518 171.714C47.9701 173.318 53.6841 176.628 58.2637 172.206C58.2637 172.206 50.2868 165.34 44.9462 170.838C39.0157 175.695 45.183 184.224 45.183 184.224C49.9758 180.035 47.1614 174.061 45.7518 171.714Z" fill="url(#paint10_linear_1633_4294)"/>
<path d="M49.8565 176.67C49.8565 176.67 59.525 174.468 66.9409 189.883C66.9409 189.883 54.2688 192.157 49.8565 176.67Z" fill="url(#paint11_linear_1633_4294)"/>
<defs>
<linearGradient id="paint0_linear_1633_4294" x1="62.7232" y1="20.4006" x2="-45.6613" y2="133.656" gradientUnits="userSpaceOnUse">
<stop stop-color="#A47A1E"/>
<stop offset="0.2279" stop-color="#D3A84C"/>
<stop offset="0.414" stop-color="#FFEC94"/>
<stop offset="0.586" stop-color="#E6BE69"/>
<stop offset="0.7721" stop-color="#FFD87C"/>
<stop offset="1" stop-color="#B58F3E"/>
</linearGradient>
<linearGradient id="paint1_linear_1633_4294" x1="60.9506" y1="18.7043" x2="-47.4322" y2="131.958" gradientUnits="userSpaceOnUse">
<stop stop-color="#A47A1E"/>
<stop offset="0.2279" stop-color="#D3A84C"/>
<stop offset="0.414" stop-color="#FFEC94"/>
<stop offset="0.586" stop-color="#E6BE69"/>
<stop offset="0.7721" stop-color="#FFD87C"/>
<stop offset="1" stop-color="#B58F3E"/>
</linearGradient>
<linearGradient id="paint2_linear_1633_4294" x1="67.2924" y1="24.7737" x2="-41.0927" y2="138.03" gradientUnits="userSpaceOnUse">
<stop stop-color="#A47A1E"/>
<stop offset="0.2279" stop-color="#D3A84C"/>
<stop offset="0.414" stop-color="#FFEC94"/>
<stop offset="0.586" stop-color="#E6BE69"/>
<stop offset="0.7721" stop-color="#FFD87C"/>
<stop offset="1" stop-color="#B58F3E"/>
</linearGradient>
<linearGradient id="paint3_linear_1633_4294" x1="72.8219" y1="30.064" x2="-35.5643" y2="143.322" gradientUnits="userSpaceOnUse">
<stop stop-color="#A47A1E"/>
<stop offset="0.2279" stop-color="#D3A84C"/>
<stop offset="0.414" stop-color="#FFEC94"/>
<stop offset="0.586" stop-color="#E6BE69"/>
<stop offset="0.7721" stop-color="#FFD87C"/>
<stop offset="1" stop-color="#B58F3E"/>
</linearGradient>
<linearGradient id="paint4_linear_1633_4294" x1="80.669" y1="37.5749" x2="-27.7158" y2="150.831" gradientUnits="userSpaceOnUse">
<stop stop-color="#A47A1E"/>
<stop offset="0.2279" stop-color="#D3A84C"/>
<stop offset="0.414" stop-color="#FFEC94"/>
<stop offset="0.586" stop-color="#E6BE69"/>
<stop offset="0.7721" stop-color="#FFD87C"/>
<stop offset="1" stop-color="#B58F3E"/>
</linearGradient>
<linearGradient id="paint5_linear_1633_4294" x1="90.4417" y1="46.9272" x2="-17.9441" y2="160.184" gradientUnits="userSpaceOnUse">
<stop stop-color="#A47A1E"/>
<stop offset="0.2279" stop-color="#D3A84C"/>
<stop offset="0.414" stop-color="#FFEC94"/>
<stop offset="0.586" stop-color="#E6BE69"/>
<stop offset="0.7721" stop-color="#FFD87C"/>
<stop offset="1" stop-color="#B58F3E"/>
</linearGradient>
<linearGradient id="paint6_linear_1633_4294" x1="99.7653" y1="55.8485" x2="-8.62073" y2="169.106" gradientUnits="userSpaceOnUse">
<stop stop-color="#A47A1E"/>
<stop offset="0.2279" stop-color="#D3A84C"/>
<stop offset="0.414" stop-color="#FFEC94"/>
<stop offset="0.586" stop-color="#E6BE69"/>
<stop offset="0.7721" stop-color="#FFD87C"/>
<stop offset="1" stop-color="#B58F3E"/>
</linearGradient>
<linearGradient id="paint7_linear_1633_4294" x1="108.51" y1="64.2165" x2="0.123636" y2="177.474" gradientUnits="userSpaceOnUse">
<stop stop-color="#A47A1E"/>
<stop offset="0.2279" stop-color="#D3A84C"/>
<stop offset="0.414" stop-color="#FFEC94"/>
<stop offset="0.586" stop-color="#E6BE69"/>
<stop offset="0.7721" stop-color="#FFD87C"/>
<stop offset="1" stop-color="#B58F3E"/>
</linearGradient>
<linearGradient id="paint8_linear_1633_4294" x1="117.029" y1="72.3714" x2="8.64409" y2="185.627" gradientUnits="userSpaceOnUse">
<stop stop-color="#A47A1E"/>
<stop offset="0.2279" stop-color="#D3A84C"/>
<stop offset="0.414" stop-color="#FFEC94"/>
<stop offset="0.586" stop-color="#E6BE69"/>
<stop offset="0.7721" stop-color="#FFD87C"/>
<stop offset="1" stop-color="#B58F3E"/>
</linearGradient>
<linearGradient id="paint9_linear_1633_4294" x1="125.438" y1="80.4141" x2="17.05" y2="193.673" gradientUnits="userSpaceOnUse">
<stop stop-color="#A47A1E"/>
<stop offset="0.2279" stop-color="#D3A84C"/>
<stop offset="0.414" stop-color="#FFEC94"/>
<stop offset="0.586" stop-color="#E6BE69"/>
<stop offset="0.7721" stop-color="#FFD87C"/>
<stop offset="1" stop-color="#B58F3E"/>
</linearGradient>
<linearGradient id="paint10_linear_1633_4294" x1="132.387" y1="87.0669" x2="24.0007" y2="200.324" gradientUnits="userSpaceOnUse">
<stop stop-color="#A47A1E"/>
<stop offset="0.2279" stop-color="#D3A84C"/>
<stop offset="0.414" stop-color="#FFEC94"/>
<stop offset="0.586" stop-color="#E6BE69"/>
<stop offset="0.7721" stop-color="#FFD87C"/>
<stop offset="1" stop-color="#B58F3E"/>
</linearGradient>
<linearGradient id="paint11_linear_1633_4294" x1="141.826" y1="96.0995" x2="33.4395" y2="209.357" gradientUnits="userSpaceOnUse">
<stop stop-color="#A47A1E"/>
<stop offset="0.2279" stop-color="#D3A84C"/>
<stop offset="0.414" stop-color="#FFEC94"/>
<stop offset="0.586" stop-color="#E6BE69"/>
<stop offset="0.7721" stop-color="#FFD87C"/>
<stop offset="1" stop-color="#B58F3E"/>
</linearGradient>
</defs>
</svg>
