<?xml version="1.0" encoding="UTF-8"?>
<svg version="1.1" xmlns="http://www.w3.org/2000/svg" width="512" height="512">
<path d="M0 0 C168.96 0 337.92 0 512 0 C512 168.96 512 337.92 512 512 C343.04 512 174.08 512 0 512 C0 343.04 0 174.08 0 0 Z " fill="#000000" transform="translate(0,0)"/>
<path d="M0 0 C15.61915099 13.74184919 21.04474978 35.43823743 22.34375 55.4296875 C22.62029896 59.92721715 22.84833023 64.42667216 23.07373047 68.92700195 C23.90353863 84.87281389 24.99605909 100.02291674 34.6953125 113.33984375 C35.13004883 113.94344727 35.56478516 114.54705078 36.01269531 115.16894531 C36.48288086 115.82088867 36.95306641 116.47283203 37.4375 117.14453125 C38.52051046 118.6819893 39.60110218 120.22115307 40.6796875 121.76171875 C42.44910407 124.28835071 44.21913996 126.8144717 45.99487305 129.33666992 C84.90143537 184.7215511 84.90143537 184.7215511 84.6875 211.26953125 C84.6872583 212.3766748 84.6870166 213.48381836 84.68676758 214.62451172 C84.63850535 220.6683601 84.24427981 226.33415029 83.125 232.26953125 C82.33330493 236.40814203 82.33330493 236.40814203 83.34765625 240.359375 C84.61418336 242.20340608 84.61418336 242.20340608 86.078125 243.6171875 C90.40071082 248.47388594 90.09722317 255.3124638 90.6796875 261.453125 C91.96478634 267.71301368 95.26619678 271.58207792 100.4375 275.14453125 C101.95391692 275.96524435 103.47514353 276.77710702 105 277.58203125 C108.72603443 279.62514013 111.34283047 281.31948254 113.4375 285.14453125 C114.02238565 289.1656201 113.75551987 291.45066971 112.0625 295.14453125 C105.6136209 302.51467879 96.51257216 306.87528246 87.9375 311.33203125 C74.50218479 318.47184667 61.43938284 326.03662802 50.3203125 336.5234375 C43.96851456 341.99230917 36.67838073 343.6939233 28.4375 343.14453125 C23.00795697 341.87577205 18.38893347 340.20572677 14.4375 336.14453125 C14.18097656 335.50773437 13.92445313 334.8709375 13.66015625 334.21484375 C12.51850987 331.5395694 11.64524381 330.0840445 9.4375 328.14453125 C3.70262544 326.11132809 -2.54667829 325.7463895 -8.5625 325.14453125 C-9.54992187 325.015625 -10.53734375 324.88671875 -11.5546875 324.75390625 C-28.02810111 322.80378252 -44.23690361 324.69487424 -60.58984375 326.78076172 C-64.90705502 327.30906697 -69.23225623 327.73872209 -73.5625 328.14453125 C-73.76875 328.86640625 -73.975 329.58828125 -74.1875 330.33203125 C-76.30418068 334.66160537 -79.5990993 337.2131329 -83.92578125 339.265625 C-96.83004584 343.56704653 -112.02314545 336.79050716 -124.1784668 332.49072266 C-136.51106169 328.13433811 -148.54207382 324.76545683 -161.51855469 322.76586914 C-169.76320391 321.474173 -177.83799064 319.77359668 -184.75 314.89453125 C-187.20150427 311.17500752 -187.33757892 308.39717665 -186.5625 304.14453125 C-185.92441424 302.05226722 -185.2549614 299.96943352 -184.5625 297.89453125 C-181.49804326 288.51642429 -181.97713581 280.51647642 -184.5625 271.14453125 C-185.0121196 267.39770122 -184.7159058 265.50978316 -183.25 262.01953125 C-178.80849357 257.26815228 -173.0420003 256.10509815 -166.90234375 254.41015625 C-157.46858509 251.78561752 -151.50101879 248.1343619 -146.0625 239.86328125 C-145.52625 239.04859375 -144.99 238.23390625 -144.4375 237.39453125 C-143.93992188 236.6159375 -143.44234375 235.83734375 -142.9296875 235.03515625 C-141.5625 233.14453125 -141.5625 233.14453125 -139.5625 232.14453125 C-139.60890625 231.10554687 -139.6553125 230.0665625 -139.703125 228.99609375 C-139.74069367 227.58726875 -139.77708827 226.17841211 -139.8125 224.76953125 C-139.84601563 224.09019531 -139.87953125 223.41085937 -139.9140625 222.7109375 C-140.03067767 216.47202583 -138.03523272 211.79180133 -135.5625 206.14453125 C-134.78664718 204.17326573 -134.02145162 202.19778044 -133.265625 200.21875 C-132.66959473 198.66812866 -132.66959473 198.66812866 -132.06152344 197.08618164 C-131.6493457 196.01231201 -131.23716797 194.93844238 -130.8125 193.83203125 C-130.15942871 192.13711548 -130.15942871 192.13711548 -129.49316406 190.40795898 C-127.4141766 185.00509729 -125.35140975 179.5977758 -123.34375 174.16796875 C-117.36215203 158.02105447 -109.6988383 145.36799168 -99.39941406 131.60205078 C-96.51148526 127.73842886 -93.64336952 123.86267157 -90.8125 119.95703125 C-90.06105713 118.9522876 -90.06105713 118.9522876 -89.29443359 117.92724609 C-83.09212226 109.30873 -83.26565935 100.81354022 -83.35668945 90.52832031 C-83.37483905 88.41328681 -83.37719918 86.2986968 -83.37695312 84.18359375 C-83.39568565 77.1222581 -83.66983915 70.14561894 -84.32885742 63.11132812 C-85.87492352 43.47935824 -86.75115635 22.22379266 -74.7109375 5.5859375 C-56.42156379 -15.19744172 -21.22486987 -15.36861766 0 0 Z " fill="#FFFFFF" transform="translate(292.5625,89.85546875)"/>
<path d="M0 0 C4.51240847 5.65456944 7.46579057 12.70220146 10.5625 19.1875 C11.07917236 20.26902344 11.59584473 21.35054687 12.12817383 22.46484375 C20.29494958 39.77924837 27.49308245 57.52198121 34.0625 75.5 C34.42045654 76.47130859 34.77841309 77.44261719 35.1472168 78.44335938 C39.47516931 90.56871971 41.48210377 101.73511363 41.3125 114.625 C41.31572266 115.85734375 41.31894531 117.0896875 41.32226562 118.359375 C41.27893925 125.78000135 40.62524206 132.75664874 39 140 C35.57015811 140.94616328 32.55824425 141 29 141 C26.73433657 141.43941523 26.73433657 141.43941523 25 142 C24.21474083 146.88934211 23.86358551 151.58725964 23.78125 156.55078125 C23.71389781 158.72666784 23.63908777 160.90223312 23.56445312 163.07788086 C23.52164912 164.56191507 23.49289256 166.04642409 23.47851562 167.53100586 C23.38822318 175.35953446 23.18107102 181.61839493 17.73046875 187.78125 C4.49066698 200.45381177 -10.79790409 208.28703411 -29 210.125 C-29.82016602 210.20919189 -30.64033203 210.29338379 -31.48535156 210.38012695 C-39.3265823 211.1268748 -47.12805732 211.37610393 -55 211 C-56.18722656 210.9484375 -57.37445313 210.896875 -58.59765625 210.84375 C-62.90796399 209.77483327 -64.94139192 207.60387846 -67.6875 204.3125 C-68.14705078 203.79494141 -68.60660156 203.27738281 -69.08007812 202.74414062 C-72.04416578 199.34875919 -74.57119177 195.79394635 -77 192 C-76.43410156 191.66226563 -75.86820313 191.32453125 -75.28515625 190.9765625 C-74.55167969 190.53054688 -73.81820312 190.08453125 -73.0625 189.625 C-71.96615234 188.96371094 -71.96615234 188.96371094 -70.84765625 188.2890625 C-68.00553287 186.30618573 -67.99414478 184.96721077 -67.375 181.5 C-67.50818655 176.20107782 -70.39906465 173.44309604 -73.96484375 169.78125 C-79.42160678 164.65073689 -85.35980283 160.05758328 -91.2265625 155.41113281 C-94.60058942 152.72640324 -97.87525947 149.97142382 -101 147 C-101.95132813 146.10474609 -101.95132813 146.10474609 -102.921875 145.19140625 C-109.51291521 138.42333397 -111.09069045 131.01849126 -111.375 121.75 C-111.01003538 108.37325327 -107.25464809 96.71139196 -101.4375 84.80078125 C-97.56121547 76.78799864 -94.42239205 68.72542809 -91.5 60.3125 C-87.99986544 50.29049997 -84.08603695 41.81474489 -77.96875 33.109375 C-72.13410944 23.89434745 -70.19666662 13.76302754 -70 3 C-69.01 3.86625 -68.02 4.7325 -67 5.625 C-57.50496939 14.1530864 -57.50496939 14.1530864 -46 19 C-37.64389811 18.00287147 -31.07409959 14.13146431 -23.8125 10.0625 C-21.52765368 8.80282309 -19.24250742 7.54369003 -16.95703125 6.28515625 C-15.95647705 5.72707275 -14.95592285 5.16898926 -13.92504883 4.59399414 C-3.62081869 -1.02125655 -3.62081869 -1.02125655 0 0 Z " fill="#000000" transform="translate(286,185)"/>
<path d="M0 0 C10.11883272 2.63089651 15.80376363 12.39885739 20.93359375 20.86328125 C22.15058377 22.94624122 23.36010081 25.03358347 24.5625 27.125 C30.49319768 37.22614941 36.62179408 46.90066436 43.92578125 56.07421875 C48.67767919 62.07599555 52.64499139 68.58809008 52.1875 76.5 C51.37001493 81.17370249 49.27218394 84.34160571 46.125 87.8125 C45.42375 88.616875 44.7225 89.42125 44 90.25 C37.80974799 93.6142674 31.26345774 92.31472914 24.70996094 90.421875 C19.54655467 88.81651102 14.50784388 86.99792316 9.51953125 84.91015625 C-2.57537017 79.90950792 -14.53246913 76.98620884 -27.39086914 74.80297852 C-29.29920532 74.47317993 -29.29920532 74.47317993 -31.24609375 74.13671875 C-32.9465686 73.8596106 -32.9465686 73.8596106 -34.68139648 73.5769043 C-38.31895535 72.70623716 -42.16295074 71.52454926 -44.875 68.8125 C-44.82421875 66.7734375 -44.82421875 66.7734375 -44.5625 64.1875 C-44.48386719 63.34960938 -44.40523438 62.51171875 -44.32421875 61.6484375 C-43.875 58.8125 -43.875 58.8125 -42.82421875 55.7421875 C-40.95769199 49.51024593 -41.8779023 42.68524129 -42.12890625 36.265625 C-42.15082031 35.2240625 -42.17273438 34.1825 -42.1953125 33.109375 C-42.22898926 32.16416992 -42.26266602 31.21896484 -42.29736328 30.24511719 C-41.875 27.8125 -41.875 27.8125 -40.11230469 26.05932617 C-37.95500721 24.85708717 -36.14946577 24.14560445 -33.7578125 23.56640625 C-32.98566406 23.36853516 -32.21351563 23.17066406 -31.41796875 22.96679688 C-29.81426146 22.57429016 -28.21009732 22.18364511 -26.60546875 21.79492188 C-20.28725283 20.17068833 -15.14750879 18.26878317 -11.64453125 12.4296875 C-10.97754356 11.19006008 -10.32529748 9.94239565 -9.6875 8.6875 C-4.9972246 -0.32590595 -4.9972246 -0.32590595 0 0 Z " fill="#000000" transform="translate(160.875,329.1875)"/>
<path d="M0 0 C0.15855469 1.02480469 0.31710937 2.04960937 0.48046875 3.10546875 C0.71509942 4.46632666 0.9508353 5.82699435 1.1875 7.1875 C1.28869141 7.86103516 1.38988281 8.53457031 1.49414062 9.22851562 C2.40479025 14.2740068 4.07763854 16.76084924 8 20 C12.97118218 22.48559109 20.41761864 21.70082326 25.6484375 20.28125 C33.81996607 16.82299218 38.72482206 11.62343677 43 4 C46.06051449 6.27576718 47.76789171 7.61829878 48.4140625 11.46484375 C48.51502767 13.35926911 48.61390788 15.25380649 48.7109375 17.1484375 C49.30970286 23.05517691 51.51502665 27.51502665 55.6875 31.6875 C56.77173848 32.48612067 57.87879548 33.25416592 59 34 C59.76441406 34.515625 60.52882813 35.03125 61.31640625 35.5625 C62.88508151 36.60996213 64.46143422 37.64606049 66.046875 38.66796875 C68 40 68 40 70 42 C69.85458784 45.01972584 69.5291149 46.50136406 67.3046875 48.59765625 C62.44630002 51.52674838 57.55268452 54.24870582 52.50390625 56.8359375 C51.50955566 57.34632568 50.51520508 57.85671387 49.49072266 58.38256836 C47.50069864 59.39603893 45.50449186 60.39748713 43.50146484 61.38500977 C34.9390962 65.70973894 27.9748674 71.29506346 20.875 77.6875 C14.7864767 83.08442633 8.56723608 87.53057162 0.12890625 87.40625 C-3.9272542 86.63223039 -6.40839408 84.07838905 -9 81 C-15.08340129 71.18806243 -11.58900754 58.74941834 -9.5 48.125 C-7.20396151 35.73482085 -6.57809837 23.90640379 -7.00976562 11.32080078 C-7.04521484 10.12696777 -7.08066406 8.93313477 -7.1171875 7.703125 C-7.16472168 6.64770508 -7.21225586 5.59228516 -7.26123047 4.50488281 C-7.17502441 3.67827148 -7.08881836 2.85166016 -7 2 C-4 0 -4 0 0 0 Z " fill="#000000" transform="translate(326,335)"/>
<path d="M0 0 C0.99902344 0.41121094 1.99804688 0.82242188 3.02734375 1.24609375 C4.04183594 1.64183594 5.05632812 2.03757813 6.1015625 2.4453125 C11.0554808 4.43078567 15.34549535 6.26938526 19.27734375 9.99609375 C19.15966797 12.74291992 19.15966797 12.74291992 18.27734375 15.99609375 C15.64111328 18.13012695 15.64111328 18.13012695 12.16015625 20.046875 C11.24071732 20.56328804 11.24071732 20.56328804 10.30270386 21.09013367 C8.34608962 22.18261368 6.37494032 23.2452973 4.40234375 24.30859375 C3.08231151 25.04178311 1.76328742 25.77679069 0.4453125 26.51367188 C-13.92618567 34.49196766 -13.92618567 34.49196766 -20.72265625 32.99609375 C-28.3710444 29.04659843 -36.88269883 23.515966 -39.72265625 14.99609375 C-36.46632839 10.40335388 -32.64728835 7.09207948 -28.16015625 3.74609375 C-27.59619141 3.31296875 -27.03222656 2.87984375 -26.45117188 2.43359375 C-17.209751 -4.57043049 -10.64828564 -4.18971762 0 0 Z " fill="#000000" transform="translate(259.72265625,164.00390625)"/>
<path d="M0 0 C4.83266216 4.96690278 7.34846257 10.56716235 7.5 17.5 C7.39087127 24.13502676 5.86727252 29.92421649 1.375 34.9375 C-1.75 37.3125 -1.75 37.3125 -4.625 37.1875 C-5.32625 36.89875 -6.0275 36.61 -6.75 36.3125 C-6.75 33.3125 -6.75 33.3125 -5.3125 31.5 C-3.26441505 28.63268106 -2.88571098 26.84098537 -2.75 23.3125 C-3.46541722 20.50744686 -4.36915962 17.86127586 -5.75 15.3125 C-8.62470493 13.87514754 -10.56894588 13.93077351 -13.75 14.3125 C-16.39265531 15.98196655 -16.39265531 15.98196655 -17.75 19.3125 C-18.074353 23.33552349 -17.98117813 27.28614762 -17.75 31.3125 C-19.04745172 30.9142125 -20.3378981 30.49306078 -21.625 30.0625 C-22.34429687 29.83046875 -23.06359375 29.5984375 -23.8046875 29.359375 C-26.32892457 28.00095023 -26.83689289 27.01436053 -27.75 24.3125 C-28.7217425 15.36489699 -27.50759296 9.52999511 -22.625 2.0625 C-15.67197424 -4.58822029 -8.01949072 -4.92105112 0 0 Z " fill="#000000" transform="translate(280.75,127.6875)"/>
<path d="M0 0 C4.61345316 2.17103678 7.2595972 4.85466431 9.29296875 9.44921875 C10.81328939 14.93413244 11.05427008 20.41167952 10 26 C7.86226901 28.85956223 6.35584395 29.49565616 3 31 C2.34 31 1.68 31 1 31 C1.02320313 30.34773438 1.04640625 29.69546875 1.0703125 29.0234375 C1.17583753 23.91301097 1.01926302 19.79574967 -1 15 C-3.64 14.67 -6.28 14.34 -9 14 C-10.74140483 19.2242145 -10.61140195 24.26233131 -8.8125 29.375 C-6.76602961 32.33885367 -5.42805969 33.07349738 -2 34 C-3.98 36.475 -3.98 36.475 -6 39 C-9.39461728 38.71711523 -10.74132059 38.25867941 -13.1875 35.8125 C-17.93780139 28.44134267 -17.72893329 20.50118445 -17 12 C-15.75881223 7.28207602 -13.81327343 4.72290971 -10.1875 1.5 C-6.3703545 -0.29630376 -4.17450924 -0.59635846 0 0 Z " fill="#000000" transform="translate(230,128)"/>
</svg>
