<svg width="204" height="75" viewBox="0 0 204 75" fill="none" xmlns="http://www.w3.org/2000/svg">
<path d="M87.9405 73.8595L76.8309 65.4031C76.4581 65.1193 75.943 65.1141 75.5645 65.3905L63.8782 73.9244C63.1782 74.4356 62.1941 73.9356 62.1941 73.0688V40.8266C62.1941 40.2415 62.6683 39.7672 63.2534 39.7672H88.5823C89.1673 39.7672 89.6416 40.2415 89.6416 40.8266V73.0165C89.6414 73.8929 88.6379 74.3903 87.9405 73.8595Z" fill="url(#paint0_linear_299_2159)"/>
<path d="M77.3026 0.748774L79.9287 3.75317L83.3546 1.7071C84.3109 1.13603 85.5513 1.53911 85.9892 2.56319L87.5583 6.23212L91.4488 5.34487C92.5346 5.09737 93.5899 5.86396 93.6898 6.97323L94.0484 10.9475L98.0226 11.306C99.1319 11.406 99.8985 12.4611 99.6508 13.5471L98.7637 17.4377L102.433 19.0068C103.457 19.4447 103.86 20.6851 103.289 21.6414L101.243 25.0673L104.247 27.6934C105.086 28.4264 105.086 29.7305 104.247 30.4635L101.243 33.0896L103.289 36.5156C103.86 37.4718 103.457 38.7122 102.433 39.1501L98.7637 40.7192L99.6508 44.6097C99.8983 45.6955 99.1319 46.7508 98.0226 46.8508L94.0484 47.2093L93.6898 51.1835C93.5899 52.2928 92.5346 53.0594 91.4488 52.8117L87.5583 51.9246L85.9892 55.5936C85.5513 56.6176 84.3109 57.0207 83.3546 56.4497L79.9287 54.4038L77.3026 57.4083C76.5696 58.2469 75.2655 58.2469 74.5325 57.4083L71.9064 54.4038L68.4805 56.4497C67.5242 57.0207 66.2838 56.6176 65.8459 55.5936L64.2768 51.9246L60.3862 52.8117C59.3003 53.0592 58.2453 52.2928 58.1453 51.1835L57.7866 47.2093L53.8123 46.8508C52.7031 46.7508 51.9365 45.6955 52.184 44.6097L53.071 40.7192L49.4021 39.1501C48.378 38.7122 47.9751 37.4718 48.546 36.5156L50.5921 33.0896L47.5875 30.4635C46.749 29.7305 46.749 28.4264 47.5875 27.6934L50.5921 25.0673L48.546 21.6414C47.9749 20.6851 48.378 19.4449 49.4021 19.0068L53.071 17.4377L52.184 13.5471C51.9365 12.4612 52.7031 11.4062 53.8123 11.306L57.7866 10.9475L58.1453 6.97323C58.2453 5.86396 59.3003 5.09737 60.3862 5.34487L64.2768 6.23212L65.8459 2.56319C66.2838 1.53911 67.5242 1.13603 68.4805 1.7071L71.9064 3.75317L74.5325 0.748774C75.2655 -0.0897604 76.5696 -0.0897604 77.3026 0.748774Z" fill="url(#paint1_linear_299_2159)"/>
<path d="M77.4674 0.833131L80.0935 3.8377L83.5195 1.7918C84.4758 1.22073 85.716 1.62365 86.1541 2.64789L87.7232 6.31682L91.6137 5.42974C92.6995 5.18225 93.7546 5.94867 93.8547 7.05794L94.2133 11.0322L98.1875 11.3907C99.2968 11.4907 100.063 12.5459 99.8157 13.6318L98.9286 17.5222L102.598 19.0914C103.622 19.5292 104.025 20.7697 103.454 21.7259L101.408 25.152L104.412 27.7781C105.251 28.511 105.251 29.8152 104.412 30.5482L101.408 33.1742L103.454 36.6003C104.025 37.5565 103.622 38.7968 102.598 39.2348L98.9286 40.8039L99.8157 44.6946C100.063 45.7804 99.2968 46.8355 98.1875 46.9356L94.2133 47.2941L93.8547 51.2684C93.7546 52.3777 92.6995 53.1443 91.6137 52.8966L87.7232 52.0095L86.1541 55.6785C85.7162 56.7025 84.4758 57.1054 83.5195 56.5345L80.0935 54.4885L77.4674 57.493C76.7345 58.3316 75.4302 58.3316 74.6974 57.493L72.0713 54.4885L68.6452 56.5345C67.6889 57.1054 66.4487 56.7025 66.0107 55.6785L64.4417 52.0095L60.5511 52.8966C59.4652 53.1443 58.4102 52.3777 58.3102 51.2684L57.9517 47.2941L53.9774 46.9356C52.8681 46.8356 52.1015 45.7806 52.3492 44.6946L53.2363 40.8039L49.5673 39.2348C48.5433 38.7969 48.1404 37.5565 48.7113 36.6003L50.7573 33.1742L47.7529 30.5482C46.9142 29.8152 46.9142 28.5111 47.7529 27.7781L50.7573 25.152L48.7113 21.7259C48.1404 20.7697 48.5433 19.5294 49.5673 19.0914L53.2363 17.5222L52.3492 13.6318C52.1015 12.5459 52.8681 11.4907 53.9774 11.3907L57.9517 11.0322L58.3102 7.05794C58.4103 5.94867 59.4654 5.18207 60.5511 5.42974L64.4417 6.31682L66.0107 2.64789C66.4487 1.62382 67.6889 1.22073 68.6452 1.7918L72.0713 3.8377L74.6974 0.833131C75.4302 -0.00557496 76.7345 -0.00557496 77.4674 0.833131Z" fill="url(#paint2_linear_299_2159)"/>
<path d="M77.3026 0.748774L79.9287 3.75317L83.3546 1.7071C84.3109 1.13603 85.5513 1.53911 85.9892 2.56319L87.5583 6.23212L91.4488 5.34487C92.5346 5.09737 93.5899 5.86396 93.6898 6.97323L94.0484 10.9475L98.0226 11.306C99.1319 11.406 99.8985 12.4611 99.6508 13.5471L98.7637 17.4377L102.433 19.0068C103.457 19.4447 103.86 20.6851 103.289 21.6414L101.243 25.0673L104.247 27.6934C105.086 28.4264 105.086 29.7305 104.247 30.4635L101.243 33.0896L103.289 36.5156C103.86 37.4718 103.457 38.7122 102.433 39.1501L98.7637 40.7192L99.6508 44.6097C99.8983 45.6955 99.1319 46.7508 98.0226 46.8508L94.0484 47.2093L93.6898 51.1835C93.5899 52.2928 92.5346 53.0594 91.4488 52.8117L87.5583 51.9246L85.9892 55.5936C85.5513 56.6176 84.3109 57.0207 83.3546 56.4497L79.9287 54.4038L77.3026 57.4083C76.5696 58.2469 75.2655 58.2469 74.5325 57.4083L71.9064 54.4038L68.4805 56.4497C67.5242 57.0207 66.2838 56.6176 65.8459 55.5936L64.2768 51.9246L60.3862 52.8117C59.3003 53.0592 58.2453 52.2928 58.1453 51.1835L57.7866 47.2093L53.8123 46.8508C52.7031 46.7508 51.9365 45.6955 52.184 44.6097L53.071 40.7192L49.4021 39.1501C48.378 38.7122 47.9751 37.4718 48.546 36.5156L50.5921 33.0896L47.5875 30.4635C46.749 29.7305 46.749 28.4264 47.5875 27.6934L50.5921 25.0673L48.546 21.6414C47.9749 20.6851 48.378 19.4449 49.4021 19.0068L53.071 17.4377L52.184 13.5471C51.9365 12.4612 52.7031 11.4062 53.8123 11.306L57.7866 10.9475L58.1453 6.97323C58.2453 5.86396 59.3003 5.09737 60.3862 5.34487L64.2768 6.23212L65.8459 2.56319C66.2838 1.53911 67.5242 1.13603 68.4805 1.7071L71.9064 3.75317L74.5325 0.748774C75.2655 -0.0897604 76.5696 -0.0897604 77.3026 0.748774Z" fill="url(#paint3_linear_299_2159)"/>
<path d="M75.9176 51.6865C88.4037 51.6865 98.5257 41.5645 98.5257 29.0784C98.5257 16.5923 88.4037 6.47034 75.9176 6.47034C63.4315 6.47034 53.3096 16.5923 53.3096 29.0784C53.3096 41.5645 63.4315 51.6865 75.9176 51.6865Z" fill="url(#paint4_linear_299_2159)"/>
<path d="M75.9979 6.24829C63.3426 6.24829 53.0835 16.5074 53.0835 29.1627C53.0835 41.818 63.3426 52.0771 75.9979 52.0771C88.6532 52.0771 98.9123 41.818 98.9123 29.1627C98.9123 16.5074 88.6532 6.24829 75.9979 6.24829ZM75.9979 51.2193C63.8165 51.2193 53.9413 41.3443 53.9413 29.1627C53.9413 16.9811 63.8165 7.1061 75.9979 7.1061C88.1794 7.1061 98.0545 16.9812 98.0545 29.1627C98.0545 41.3442 88.1796 51.2193 75.9979 51.2193Z" fill="url(#paint5_linear_299_2159)"/>
<path d="M75.9979 8.94409C64.8316 8.94409 55.7793 17.9962 55.7793 29.1627C55.7793 40.3291 64.8316 49.3813 75.9979 49.3813C87.1643 49.3813 96.2165 40.3292 96.2165 29.1627C96.2165 17.9962 87.1644 8.94409 75.9979 8.94409ZM75.9979 48.6244C65.2495 48.6244 56.5361 39.911 56.5361 29.1627C56.5361 18.4143 65.2495 9.70088 75.9979 9.70088C86.7464 9.70088 95.4596 18.4143 95.4596 29.1627C95.4596 39.9112 86.7464 48.6244 75.9979 48.6244Z" fill="url(#paint6_linear_299_2159)"/>
<path d="M75.9176 6.16406C63.2623 6.16406 53.0032 16.4232 53.0032 29.0785C53.0032 41.7338 63.2623 51.9929 75.9176 51.9929C88.5729 51.9929 98.832 41.7338 98.832 29.0785C98.832 16.4232 88.5729 6.16406 75.9176 6.16406ZM75.9176 51.1351C63.7361 51.1351 53.861 41.2599 53.861 29.0785C53.861 16.897 63.7361 7.02187 75.9176 7.02187C88.0991 7.02187 97.9742 16.8968 97.9742 29.0785C97.9742 41.2599 88.0991 51.1351 75.9176 51.1351Z" fill="url(#paint7_linear_299_2159)"/>
<path d="M75.9176 8.85999C64.7511 8.85999 55.699 17.9121 55.699 29.0786C55.699 40.2451 64.7513 49.2972 75.9176 49.2972C87.0839 49.2972 96.1362 40.2449 96.1362 29.0786C96.1362 17.9123 87.0839 8.85999 75.9176 8.85999ZM75.9176 48.5403C65.1691 48.5403 56.4558 39.8269 56.4558 29.0784C56.4558 18.33 65.1691 9.61676 75.9176 9.61676C86.666 9.61676 95.3794 18.33 95.3794 29.0784C95.3794 39.827 86.666 48.5403 75.9176 48.5403Z" fill="url(#paint8_linear_299_2159)"/>
<path d="M75.9176 11.6171C66.2739 11.6171 58.4561 19.4348 58.4561 29.0786C58.4561 38.7224 66.2738 46.5401 75.9176 46.5401C85.5613 46.5401 93.3791 38.7224 93.3791 29.0786C93.3791 19.4348 85.5613 11.6171 75.9176 11.6171Z" fill="url(#paint9_linear_299_2159)"/>
<path d="M58.6896 29.2318C58.6896 19.5881 66.5073 11.7702 76.1511 11.7702C79.6098 11.7702 82.8334 12.7761 85.5459 14.5106C82.7856 12.6826 79.4762 11.6171 75.9176 11.6171C66.2739 11.6171 58.4561 19.4348 58.4561 29.0786C58.4561 35.2637 61.6718 40.6974 66.5226 43.7996C61.8028 40.6737 58.6896 35.3167 58.6896 29.2318Z" fill="url(#paint10_linear_299_2159)"/>
<path d="M75.9859 50.8249H75.9878C75.9859 50.8249 75.9859 50.8249 75.9859 50.8249ZM75.5263 50.3654C75.5263 50.1117 75.7322 49.9058 75.9859 49.9058C76.2396 49.9058 76.4452 50.1117 76.4473 50.3654C76.4473 50.6191 76.2415 50.8249 75.9878 50.8249C75.7324 50.8249 75.5282 50.6189 75.5263 50.3654ZM73.7216 50.7091C73.4679 50.6834 73.2859 50.4573 73.3116 50.2055C73.3374 49.9518 73.5634 49.7698 73.8152 49.7957C74.0691 49.8213 74.2508 50.0475 74.2252 50.2991C74.2012 50.5363 74.0009 50.711 73.7694 50.711C73.7527 50.7108 73.7362 50.7108 73.7216 50.7091ZM77.7487 50.2972C77.721 50.0454 77.9048 49.8194 78.1567 49.7917C78.4104 49.7661 78.6364 49.9499 78.6622 50.2017C78.6881 50.4535 78.5042 50.6795 78.2523 50.7072C78.2357 50.7089 78.2209 50.7089 78.2046 50.7089C77.9729 50.7091 77.7726 50.5327 77.7487 50.2972ZM71.4789 50.358C71.2307 50.3065 71.0709 50.0619 71.1242 49.8139C71.1757 49.5659 71.4201 49.4058 71.6683 49.4592C71.9163 49.5105 72.0762 49.755 72.0228 50.0032C71.9769 50.2201 71.7858 50.3671 71.5745 50.3671C71.5416 50.3671 71.5103 50.3654 71.4789 50.358ZM79.9507 49.9995C79.8973 49.7514 80.0553 49.5069 80.3035 49.4537C80.5517 49.4003 80.7961 49.5604 80.8493 49.8084C80.9007 50.0566 80.7426 50.3012 80.4946 50.3524C80.4615 50.3598 80.4302 50.3636 80.3989 50.3636C80.186 50.3635 79.9966 50.2146 79.9507 49.9995ZM69.2843 49.7735C69.0435 49.6943 68.9112 49.4353 68.9885 49.1945C69.0675 48.9539 69.3267 48.8213 69.5674 48.8986C69.8101 48.9776 69.9406 49.2368 69.8633 49.4774C69.8008 49.6724 69.6206 49.7955 69.4258 49.7955C69.38 49.7957 69.3322 49.7883 69.2843 49.7735ZM82.1085 49.47C82.0293 49.2294 82.1618 48.9702 82.4026 48.8931V48.8912C82.6451 48.8141 82.9045 48.9463 82.9816 49.1871C83.0608 49.4279 82.9284 49.6872 82.6876 49.7661C82.6398 49.7809 82.5919 49.7883 82.546 49.7883C82.3511 49.7883 82.1709 49.665 82.1085 49.47ZM67.1651 48.9611C66.9334 48.858 66.8286 48.5861 66.9317 48.3546C67.0346 48.1229 67.3067 48.0181 67.5382 48.121C67.7699 48.2239 67.8747 48.496 67.7718 48.7275C67.6947 48.8986 67.5272 48.9996 67.3508 48.9996C67.2883 48.9996 67.2259 48.9886 67.1651 48.9611ZM84.1984 48.7184C84.0955 48.4869 84.2003 48.2148 84.4318 48.1119C84.6633 48.0088 84.9354 48.1119 85.0383 48.3453C85.1413 48.5769 85.0383 48.8472 84.8068 48.952C84.7461 48.9776 84.6817 48.9907 84.6194 48.9907C84.4428 48.9905 84.2755 48.8893 84.1984 48.7184ZM65.1414 47.93C64.9226 47.8033 64.8473 47.5219 64.9741 47.3014C65.1009 47.0826 65.3822 47.0074 65.6009 47.1341C65.8216 47.261 65.8968 47.5422 65.7699 47.7627C65.6835 47.9096 65.5292 47.9924 65.3712 47.9924C65.2922 47.9924 65.2149 47.9723 65.1414 47.93ZM86.1982 47.7516C86.0714 47.531 86.1467 47.2498 86.3672 47.1231C86.5858 46.9962 86.8672 47.0716 86.9941 47.2904C87.1209 47.5109 87.0474 47.7921 86.8268 47.9189C86.7552 47.9611 86.6762 47.9814 86.597 47.9814C86.439 47.9814 86.2846 47.8986 86.1982 47.7516ZM63.239 46.693C63.0332 46.5441 62.9872 46.2553 63.1361 46.0515C63.285 45.8457 63.5736 45.7997 63.7776 45.9505C63.9834 46.0994 64.0294 46.3859 63.8805 46.592C63.7903 46.715 63.6507 46.7813 63.5074 46.7813C63.4137 46.7811 63.3199 46.7517 63.239 46.693ZM88.0877 46.579C87.9369 46.3749 87.9828 46.0863 88.1868 45.9374C88.3926 45.7885 88.6813 45.8326 88.8302 46.0384C88.979 46.2443 88.935 46.531 88.7291 46.6799C88.6463 46.7405 88.5527 46.768 88.4589 46.768C88.3174 46.7682 88.1777 46.7021 88.0877 46.579ZM61.4745 45.2646C61.2852 45.0956 61.2704 44.8051 61.4396 44.6158C61.6088 44.4266 61.901 44.4118 62.0885 44.581C62.2778 44.7519 62.2924 45.0422 62.1234 45.2299C62.0315 45.3309 61.9065 45.3822 61.7816 45.3822C61.6711 45.3822 61.5628 45.3436 61.4745 45.2646ZM89.843 45.2169C89.672 45.0293 89.6868 44.739 89.8761 44.5681C90.0654 44.3989 90.3558 44.4137 90.5249 44.603C90.6959 44.7905 90.6793 45.0808 90.4919 45.25C90.4036 45.3309 90.2935 45.3694 90.1831 45.3694C90.0582 45.3694 89.933 45.318 89.843 45.2169ZM59.868 43.6619C59.6971 43.4726 59.7136 43.182 59.9011 43.0113C60.0904 42.8421 60.3809 42.8569 60.5499 43.0461C60.721 43.2337 60.7062 43.524 60.5169 43.695C60.4286 43.774 60.3184 43.8125 60.2098 43.8125C60.083 43.8125 59.958 43.7612 59.868 43.6619ZM91.4476 43.6803C91.2583 43.5094 91.2437 43.2191 91.4127 43.0315V43.0296C91.5836 42.8421 91.874 42.8275 92.0616 42.9965C92.2509 43.1655 92.2657 43.4578 92.0965 43.6454C92.0046 43.7464 91.8796 43.798 91.7547 43.798C91.6442 43.798 91.534 43.7595 91.4476 43.6803ZM58.4381 41.8993C58.2873 41.6952 58.3333 41.4065 58.5374 41.2578C58.7433 41.1071 59.03 41.153 59.1808 41.3589C59.3297 41.5628 59.2837 41.8513 59.0796 42.0003C58.997 42.0592 58.9032 42.0884 58.8095 42.0884C58.6679 42.0884 58.5264 42.0224 58.4381 41.8993ZM92.8832 41.9838C92.6774 41.833 92.6333 41.5463 92.782 41.3422C92.9309 41.1363 93.2177 41.0904 93.4237 41.2411C93.6295 41.3898 93.6736 41.6768 93.5247 41.8824C93.4347 42.0057 93.2949 42.0718 93.1533 42.0718C93.0597 42.0719 92.964 42.0425 92.8832 41.9838ZM57.1974 39.9987C57.0705 39.7782 57.1459 39.4969 57.3645 39.3701C57.5851 39.2434 57.8662 39.3167 57.993 39.5374C58.1199 39.758 58.0445 40.0374 57.8257 40.1659C57.754 40.2083 57.6732 40.2267 57.596 40.2267C57.4381 40.2265 57.2838 40.1458 57.1974 39.9987ZM94.135 40.1475C93.9163 40.0207 93.8409 39.7395 93.9677 39.519C94.0946 39.3001 94.3758 39.2248 94.5946 39.3517C94.815 39.4785 94.8904 39.7598 94.7636 39.9785C94.6772 40.1272 94.5228 40.2083 94.3648 40.2083C94.2875 40.2083 94.2066 40.188 94.135 40.1475ZM56.1643 37.9787C56.0614 37.7471 56.1643 37.4751 56.3958 37.3703C56.6275 37.2674 56.8994 37.3722 57.0023 37.6039C57.107 37.8354 57.0023 38.1056 56.7707 38.2104C56.7099 38.2381 56.6475 38.2508 56.5833 38.2508C56.4089 38.2507 56.2416 38.1495 56.1643 37.9787ZM95.1882 38.1899C94.9565 38.087 94.8517 37.8151 94.9548 37.5834C95.0596 37.3519 95.3298 37.2469 95.5632 37.35C95.7947 37.4529 95.8976 37.725 95.7947 37.9565C95.7193 38.1274 95.5503 38.2305 95.3756 38.2305C95.313 38.2305 95.2488 38.2176 95.1882 38.1899ZM55.3483 35.8593C55.2692 35.6186 55.4017 35.3594 55.6425 35.2804C55.885 35.2014 56.1442 35.3337 56.2232 35.5745C56.3005 35.8172 56.1698 36.0762 55.9273 36.1554C55.8814 36.17 55.8318 36.1774 55.7859 36.1774C55.5927 36.1772 55.4106 36.0542 55.3483 35.8593ZM96.03 36.1333C95.7892 36.0543 95.6568 35.7951 95.7339 35.5544C95.8131 35.3117 96.0721 35.1793 96.3129 35.2585C96.5556 35.3377 96.6861 35.5967 96.6088 35.8375C96.5463 36.0323 96.3661 36.1555 96.1713 36.1555C96.1255 36.1554 96.0777 36.148 96.03 36.1333ZM54.7601 33.6666C54.7067 33.4186 54.8666 33.174 55.1148 33.1226C55.363 33.0692 55.6057 33.2274 55.6588 33.4754C55.7122 33.7236 55.5542 33.968 55.3041 34.0213C55.2728 34.0287 55.2416 34.0306 55.2084 34.0306C54.9972 34.0305 54.806 33.8835 54.7601 33.6666ZM96.6511 33.9993C96.4012 33.946 96.243 33.7016 96.2964 33.4534C96.3479 33.2054 96.5923 33.0472 96.8405 33.0986C97.0886 33.152 97.2466 33.3964 97.1952 33.6446C97.1492 33.8597 96.9582 34.0086 96.7448 34.0086C96.7138 34.0084 96.6825 34.0048 96.6511 33.9993ZM54.4053 31.4259C54.3797 31.1722 54.5614 30.9462 54.8153 30.9204C55.0669 30.8947 55.2931 31.0767 55.3189 31.3304C55.3464 31.5822 55.1626 31.8081 54.9108 31.834C54.8941 31.8357 54.8778 31.8377 54.863 31.8377C54.6296 31.8377 54.4293 31.6613 54.4053 31.4259ZM97.0427 31.8119C96.7909 31.7844 96.6071 31.5582 96.6327 31.3064C96.6585 31.0546 96.8845 30.8708 97.1363 30.8966C97.39 30.9242 97.5738 31.1503 97.5463 31.4021C97.5224 31.6374 97.322 31.8138 97.0905 31.8138C97.0738 31.8138 97.0592 31.8138 97.0427 31.8119ZM54.2859 29.1597C54.2859 28.906 54.4917 28.7001 54.7454 28.7001C54.9991 28.7001 55.205 28.906 55.205 29.1597C55.205 29.4134 54.9991 29.6192 54.7454 29.6192C54.4917 29.619 54.2859 29.4134 54.2859 29.1597ZM96.7449 29.1358C96.7449 29.1285 96.7449 29.123 96.7449 29.1156C96.7449 29.1065 96.7449 29.0991 96.7449 29.09C96.7449 28.8363 96.9491 28.6304 97.2028 28.6285C97.4564 28.6285 97.664 28.8344 97.664 29.0881C97.664 29.0955 97.664 29.1046 97.664 29.112C97.664 29.1194 97.664 29.1285 97.664 29.1359C97.664 29.3896 97.4582 29.5955 97.2045 29.5955C96.9508 29.5953 96.7449 29.3893 96.7449 29.1358ZM54.8096 27.399C54.5578 27.3713 54.374 27.1472 54.3998 26.8935C54.4256 26.6417 54.6516 26.4578 54.9034 26.4837C55.1571 26.5093 55.3409 26.7353 55.3151 26.9873C55.2895 27.2244 55.0909 27.4009 54.8575 27.4009C54.8428 27.4007 54.8262 27.399 54.8096 27.399ZM96.6274 26.9191C96.6017 26.6675 96.7835 26.4413 97.0372 26.4136C97.289 26.388 97.515 26.5699 97.5427 26.8217C97.5683 27.0754 97.3864 27.3014 97.1329 27.3272C97.1182 27.3291 97.1015 27.3308 97.085 27.3308C96.8515 27.3308 96.653 27.1544 96.6274 26.9191ZM55.1057 25.1949C54.8576 25.1434 54.6978 24.899 54.7509 24.6508C54.8024 24.4028 55.0468 24.2446 55.295 24.2961C55.543 24.3495 55.7012 24.5921 55.6497 24.8402C55.6038 25.057 55.4127 25.2061 55.1995 25.2061C55.1681 25.2061 55.137 25.2023 55.1057 25.1949ZM96.2854 24.7722C96.232 24.5242 96.3902 24.2796 96.6382 24.2281C96.8883 24.1748 97.1308 24.3329 97.1842 24.5811C97.2375 24.8291 97.0793 25.0735 96.8313 25.1269C96.7983 25.1324 96.767 25.1362 96.7356 25.1362C96.5226 25.1362 96.3313 24.989 96.2854 24.7722ZM55.6294 23.0354C55.3886 22.9581 55.2563 22.6989 55.3335 22.4564C55.4106 22.2156 55.67 22.0833 55.9125 22.1624C56.1533 22.2395 56.2857 22.4987 56.2084 22.7395C56.1459 22.9343 55.964 23.0576 55.7709 23.0576C55.7251 23.0572 55.6772 23.0517 55.6294 23.0354ZM95.721 22.675C95.6419 22.4342 95.7725 22.1731 96.0152 22.096C96.256 22.017 96.515 22.1473 96.5942 22.3901C96.6733 22.6309 96.5408 22.8901 96.3 22.9691C96.2523 22.9839 96.2045 22.9911 96.1567 22.9911C95.9637 22.9911 95.7837 22.8679 95.721 22.675ZM56.3795 20.9435C56.1461 20.8406 56.0413 20.5685 56.1461 20.337C56.249 20.1055 56.5192 20.0007 56.7526 20.1036C56.9843 20.2065 57.0872 20.4786 56.9843 20.7103C56.9089 20.8812 56.7418 20.9824 56.5652 20.9824C56.5025 20.9822 56.4382 20.9693 56.3795 20.9435ZM94.9362 20.6477C94.8333 20.416 94.9362 20.1441 95.1679 20.0411C95.3995 19.9365 95.6715 20.0394 95.7763 20.2709C95.8792 20.5043 95.7763 20.7745 95.5448 20.8793C95.484 20.9069 95.4197 20.9198 95.3574 20.9198C95.1808 20.9198 95.0135 20.8186 94.9362 20.6477ZM57.3426 18.9401C57.1239 18.815 57.0486 18.532 57.1753 18.3133C57.3022 18.0926 57.5834 18.0174 57.8022 18.1443C58.0226 18.2711 58.0982 18.5524 57.9713 18.7728C57.8868 18.9198 57.7325 19.0026 57.5726 19.0026C57.4951 19.0026 57.4161 18.9825 57.3426 18.9401ZM93.9455 18.714C93.8169 18.4952 93.8922 18.214 94.1109 18.0854C94.3316 17.9586 94.6128 18.034 94.7396 18.2527C94.8665 18.4715 94.793 18.7527 94.5741 18.8813C94.5006 18.9236 94.4216 18.9439 94.3426 18.9439C94.1846 18.9439 94.03 18.8611 93.9455 18.714ZM58.5133 17.0505C58.3075 16.9016 58.2615 16.6149 58.4104 16.409C58.5593 16.2032 58.846 16.1572 59.0519 16.3061C59.2577 16.455 59.3037 16.7436 59.1548 16.9495C59.0648 17.0725 58.925 17.1388 58.7816 17.1388C58.688 17.1388 58.5942 17.1094 58.5133 17.0505ZM92.7564 16.8942C92.6075 16.6903 92.6516 16.4035 92.8557 16.2528C93.0615 16.1039 93.3483 16.1481 93.4991 16.3521C93.6479 16.5579 93.6039 16.8445 93.398 16.9954C93.3171 17.0541 93.2216 17.0835 93.1278 17.0835C92.9862 17.0835 92.8464 17.0175 92.7564 16.8942ZM59.8716 15.2934C59.6842 15.1225 59.6677 14.8321 59.8386 14.6445C60.0078 14.4552 60.2981 14.4387 60.4875 14.6096C60.6749 14.7786 60.6916 15.0691 60.5224 15.2583C60.4305 15.3593 60.3054 15.4108 60.1787 15.4108C60.0703 15.411 59.9599 15.3724 59.8716 15.2934ZM91.3833 15.2087C91.2143 15.0213 91.2289 14.7308 91.4163 14.5598C91.6056 14.3889 91.896 14.4036 92.0652 14.5929C92.2361 14.7803 92.2215 15.0709 92.0339 15.2419C91.9457 15.3209 91.8354 15.3595 91.7251 15.3595C91.6003 15.3595 91.4752 15.3099 91.3833 15.2087ZM61.4083 13.6869C61.2374 13.4976 61.2522 13.2072 61.4413 13.0363C61.6287 12.8671 61.9193 12.8819 62.0902 13.0694C62.2594 13.2587 62.2447 13.549 62.0571 13.7182C61.9688 13.7991 61.8587 13.8377 61.7484 13.8377C61.6234 13.8377 61.4985 13.7862 61.4083 13.6869ZM89.8448 13.674C89.6554 13.505 89.6389 13.2146 89.8098 13.0253C89.9788 12.836 90.2694 12.8213 90.4587 12.9904C90.6461 13.1614 90.6626 13.4516 90.4936 13.6392C90.4017 13.7404 90.2768 13.7917 90.1499 13.7917C90.0415 13.7915 89.9313 13.753 89.8448 13.674ZM63.1012 12.2477C62.9525 12.0418 62.9965 11.7551 63.2024 11.606C63.4065 11.4555 63.6932 11.4995 63.8438 11.7054C63.9927 11.9112 63.9487 12.1979 63.7428 12.347C63.6619 12.4078 63.5664 12.4353 63.4726 12.4353C63.3309 12.4353 63.1914 12.3709 63.1012 12.2477ZM88.152 12.3084C87.9479 12.1596 87.9019 11.8728 88.051 11.6668C88.1999 11.461 88.4866 11.4152 88.6925 11.5639C88.8983 11.7128 88.9443 12.0014 88.7954 12.2072C88.7054 12.3305 88.5637 12.3967 88.4222 12.3967C88.3284 12.3967 88.2346 12.3671 88.152 12.3084ZM64.9355 10.9923C64.8087 10.7735 64.8824 10.4923 65.1028 10.3655C65.3214 10.2369 65.6028 10.3123 65.7297 10.5309C65.8582 10.7515 65.783 11.0326 65.5643 11.1594C65.4906 11.2018 65.4118 11.2219 65.3326 11.2219C65.1744 11.2221 65.0201 11.1395 64.9355 10.9923ZM86.3287 11.1265C86.1082 10.9997 86.0328 10.7185 86.1596 10.4997C86.2865 10.2792 86.5677 10.2038 86.7865 10.3305C87.007 10.4574 87.0823 10.7367 86.9555 10.9574C86.871 11.1043 86.7164 11.1871 86.5567 11.1871C86.4794 11.1871 86.4004 11.167 86.3287 11.1265ZM66.8894 9.93725C66.7864 9.70558 66.8894 9.43365 67.1209 9.33072C67.3525 9.22608 67.6246 9.33072 67.7293 9.56239C67.8322 9.79405 67.7293 10.066 67.4978 10.1689C67.4372 10.1964 67.3728 10.2094 67.3104 10.2094C67.1339 10.2094 66.9666 10.1082 66.8894 9.93725ZM84.3914 10.1412C84.1578 10.0383 84.0532 9.76634 84.1561 9.53468C84.259 9.30318 84.5311 9.19837 84.7626 9.30147C84.9943 9.40439 85.0991 9.67633 84.996 9.90799C84.9206 10.0789 84.7533 10.1818 84.5771 10.1818C84.5144 10.1816 84.4502 10.1689 84.3914 10.1412ZM68.9463 9.09183C68.8671 8.85104 68.9995 8.59184 69.2404 8.51284C69.481 8.43367 69.7402 8.5662 69.8194 8.80681C69.8982 9.04949 69.7661 9.30869 69.5253 9.38597C69.4776 9.40249 69.4298 9.40989 69.3819 9.40989C69.1888 9.40972 69.0086 9.28666 68.9463 9.09183ZM82.3604 9.36566C82.1177 9.28856 81.9854 9.02935 82.0646 8.78667C82.1417 8.54589 82.4009 8.4137 82.6417 8.49081C82.8843 8.56981 83.0165 8.82729 82.9377 9.0698C82.875 9.26463 82.695 9.38786 82.5002 9.38786C82.4541 9.38769 82.4064 9.38046 82.3604 9.36566ZM71.0784 8.4686C71.0251 8.22059 71.1831 7.97602 71.4313 7.92284C71.6794 7.87138 71.9238 8.02937 71.977 8.27756C72.0304 8.52575 71.8724 8.77015 71.6242 8.82161C71.5911 8.82901 71.5581 8.83262 71.5268 8.83262C71.3154 8.83262 71.1244 8.68547 71.0784 8.4686ZM80.2594 8.8087C80.0113 8.75535 79.8514 8.51284 79.9028 8.26465C79.9562 8.01646 80.1987 7.85658 80.4469 7.90804C80.6968 7.96139 80.855 8.20389 80.8035 8.45208C80.7575 8.66894 80.5663 8.81782 80.3532 8.81782C80.3219 8.81799 80.2906 8.81421 80.2594 8.8087ZM73.2637 8.07172C73.2381 7.81991 73.4219 7.59393 73.6735 7.56811C73.9253 7.54057 74.1515 7.72439 74.179 7.97602C74.2049 8.22988 74.0229 8.45398 73.7692 8.48151C73.7527 8.48341 73.7362 8.4834 73.7216 8.4834C73.488 8.4834 73.2896 8.30872 73.2637 8.07172ZM78.1108 8.47429C77.859 8.44847 77.6752 8.22248 77.701 7.97051C77.7266 7.71871 77.9528 7.5349 78.2046 7.56071C78.4583 7.58653 78.6419 7.81062 78.6163 8.06431C78.5905 8.30148 78.392 8.47618 78.1586 8.47618C78.1438 8.476 78.1271 8.47601 78.1108 8.47429ZM75.4804 7.90614C75.4804 7.65261 75.6843 7.44678 75.9382 7.44678C75.9382 7.44678 75.9382 7.44678 75.9399 7.44678C76.1917 7.44678 76.3995 7.65261 76.3995 7.90614C76.3995 8.15983 76.1936 8.36569 75.9399 8.36569C75.6864 8.36569 75.4804 8.16172 75.4804 7.90614Z" fill="url(#paint11_linear_299_2159)"/>
<path d="M75.9285 50.7674H75.9304C75.9285 50.7674 75.9285 50.7674 75.9285 50.7674ZM75.469 50.3078C75.469 50.0541 75.6748 49.8483 75.9285 49.8483C76.1822 49.8483 76.3881 50.0541 76.3899 50.3078C76.3899 50.5613 76.1841 50.7672 75.9306 50.7672C75.675 50.7674 75.471 50.5613 75.469 50.3078ZM73.6642 50.6515C73.4105 50.6257 73.2286 50.3997 73.2544 50.1478C73.2802 49.8942 73.5062 49.7121 73.758 49.7379C74.0117 49.7636 74.1936 49.9897 74.1678 50.2414C74.1439 50.4785 73.9437 50.6532 73.712 50.6532C73.6953 50.6532 73.6788 50.6532 73.6642 50.6515ZM77.6913 50.2398C77.6637 49.988 77.8476 49.762 78.0994 49.7343C78.3531 49.7087 78.5792 49.8925 78.6049 50.1443C78.6305 50.3961 78.4467 50.6221 78.1951 50.6498C78.1785 50.6517 78.1637 50.6517 78.1474 50.6517C77.9156 50.6515 77.7152 50.4751 77.6913 50.2398ZM71.4217 50.3004C71.1735 50.2489 71.0137 50.0044 71.067 49.7564C71.1185 49.5083 71.3629 49.3483 71.6111 49.4016C71.8591 49.4529 72.0191 49.6975 71.9656 49.9457C71.9197 50.1626 71.7286 50.3095 71.5173 50.3095C71.4842 50.3095 71.4529 50.3078 71.4217 50.3004ZM79.8933 49.9421C79.8399 49.6941 79.9981 49.4495 80.2461 49.3963C80.4943 49.3429 80.7387 49.5028 80.7921 49.751C80.8435 49.9992 80.6854 50.2438 80.4374 50.2951C80.4043 50.3025 80.373 50.3061 80.3418 50.3061C80.1286 50.3059 79.9393 50.157 79.8933 49.9421ZM69.2269 49.7159C68.9862 49.6367 68.854 49.3779 68.9311 49.1369C69.0101 48.8963 69.2693 48.7638 69.5101 48.8411C69.7526 48.9201 69.883 49.1793 69.8059 49.4201C69.7435 49.6149 69.5633 49.7381 69.3684 49.7381C69.3226 49.738 69.275 49.7307 69.2269 49.7159ZM82.0513 49.4126C81.9721 49.172 82.1046 48.9127 82.3452 48.8356V48.8338C82.5879 48.7566 82.8469 48.8889 82.9242 49.1297C83.0032 49.3705 82.8709 49.6297 82.6301 49.7087C82.5824 49.7235 82.5345 49.7309 82.4886 49.7309C82.2938 49.7307 82.1136 49.6075 82.0513 49.4126ZM67.1077 48.9035C66.8761 48.8005 66.7714 48.5285 66.8743 48.297C66.9773 48.0653 67.2492 47.9607 67.4809 48.0635C67.7125 48.1664 67.8172 48.4385 67.7142 48.67C67.6371 48.8411 67.4698 48.9421 67.2934 48.9421C67.231 48.9423 67.1685 48.9311 67.1077 48.9035ZM84.141 48.6609C84.0381 48.4294 84.1428 48.1573 84.3744 48.0543C84.6061 47.9512 84.878 48.0543 84.981 48.2877C85.0839 48.5194 84.981 48.7896 84.7493 48.8944C84.6887 48.9201 84.6242 48.933 84.5619 48.933C84.3856 48.933 84.2182 48.8318 84.141 48.6609ZM65.084 47.8724C64.8654 47.7457 64.7901 47.4643 64.9169 47.2439C65.0437 47.0251 65.325 46.9499 65.5436 47.0766C65.7642 47.2034 65.8394 47.4846 65.7126 47.7051C65.6263 47.8521 65.4718 47.9349 65.3138 47.9349C65.2348 47.9347 65.1575 47.9148 65.084 47.8724ZM86.1408 47.6941C86.014 47.4735 86.0894 47.1922 86.3098 47.0656C86.5286 46.9387 86.8098 47.0141 86.9367 47.2328C87.0635 47.4533 86.99 47.7345 86.7694 47.8614C86.6978 47.9036 86.6186 47.9239 86.5396 47.9239C86.3816 47.9239 86.2272 47.8411 86.1408 47.6941ZM63.1817 46.6354C62.9758 46.4864 62.93 46.1978 63.0789 45.9938C63.2276 45.788 63.5164 45.742 63.7204 45.8928C63.9262 46.0415 63.9722 46.3282 63.8233 46.5341C63.7333 46.6571 63.5935 46.7234 63.4502 46.7234C63.3564 46.7236 63.2627 46.6941 63.1817 46.6354ZM88.0305 46.5215C87.8797 46.3174 87.9256 46.0289 88.1296 45.88C88.3354 45.731 88.6241 45.7752 88.7729 45.9811C88.9218 46.1869 88.8778 46.4737 88.6719 46.6227C88.5891 46.6835 88.4955 46.7108 88.4017 46.7108C88.2602 46.7106 88.1205 46.6446 88.0305 46.5215ZM61.4172 45.2072C61.2277 45.0382 61.213 44.7477 61.382 44.5582C61.5512 44.3691 61.8435 44.3543 62.0309 44.5234C62.2202 44.6944 62.235 44.9847 62.0658 45.1723C61.9739 45.2733 61.849 45.3248 61.724 45.3248C61.6139 45.3248 61.5054 45.2861 61.4172 45.2072ZM89.7857 45.1594C89.6148 44.9718 89.6294 44.6814 89.8189 44.5104C90.0082 44.3413 90.2986 44.3561 90.4676 44.5455C90.6387 44.7329 90.622 45.0233 90.4345 45.1923C90.3464 45.2733 90.2361 45.3119 90.1258 45.3119C90.0008 45.3121 89.8757 45.2604 89.7857 45.1594ZM59.8107 43.6044C59.6397 43.415 59.6563 43.1245 59.8437 42.9538C60.033 42.7846 60.3234 42.7994 60.4926 42.9885C60.6635 43.1761 60.6488 43.4665 60.4595 43.6376C60.3712 43.7164 60.2611 43.7551 60.1525 43.7551C60.0258 43.755 59.9008 43.7037 59.8107 43.6044ZM91.3903 43.6228C91.2009 43.4519 91.1863 43.1615 91.3553 42.9739V42.9722C91.5262 42.7848 91.8166 42.7701 92.0042 42.9391C92.1935 43.1082 92.2083 43.4004 92.0391 43.588C91.9472 43.689 91.8223 43.7407 91.6973 43.7407C91.587 43.7405 91.4768 43.702 91.3903 43.6228ZM58.3807 41.8418C58.23 41.6376 58.2759 41.349 58.48 41.2003C58.6857 41.0493 58.9725 41.0955 59.1232 41.3013C59.2721 41.5054 59.2262 41.7939 59.0222 41.943C58.9396 42.0018 58.8458 42.0311 58.752 42.0311C58.6105 42.0311 58.469 41.965 58.3807 41.8418ZM92.8259 41.9263C92.62 41.7755 92.5758 41.4887 92.7247 41.2848C92.8735 41.0789 93.1603 41.033 93.3663 41.1838C93.5721 41.3326 93.6162 41.6194 93.4673 41.8252C93.3773 41.9485 93.2376 42.0146 93.0961 42.0146C93.0023 42.0144 92.9068 41.9851 92.8259 41.9263ZM57.14 39.9411C57.0131 39.7206 57.0885 39.4394 57.3073 39.3126C57.5279 39.1859 57.809 39.2592 57.9358 39.4798C58.0628 39.7005 57.9875 39.98 57.7687 40.1084C57.6971 40.1507 57.6162 40.1692 57.5389 40.1692C57.3809 40.169 57.2264 40.0883 57.14 39.9411ZM94.0776 40.09C93.8589 39.9631 93.7835 39.6821 93.9103 39.4614C94.0372 39.2427 94.3184 39.1673 94.5372 39.2941C94.7577 39.421 94.833 39.7022 94.7062 39.921C94.6198 40.0699 94.4654 40.1507 94.3074 40.1507C94.2301 40.1507 94.1492 40.1304 94.0776 40.09ZM56.107 37.9212C56.004 37.6895 56.107 37.4176 56.3384 37.3128C56.5701 37.2099 56.8422 37.3145 56.9451 37.5462C57.0498 37.7776 56.9451 38.0477 56.7135 38.1527C56.6527 38.1804 56.5904 38.193 56.5261 38.193C56.3515 38.1931 56.1842 38.0921 56.107 37.9212ZM95.1308 38.1324C94.8991 38.0296 94.7945 37.7575 94.8974 37.5259C95.0021 37.2944 95.2723 37.1895 95.5058 37.2925C95.7375 37.3954 95.8402 37.6673 95.7375 37.899C95.6621 38.0699 95.4929 38.1728 95.3184 38.1728C95.2558 38.173 95.1914 38.1601 95.1308 38.1324ZM55.291 35.8018C55.2118 35.561 55.3443 35.3018 55.5849 35.2228C55.8276 35.1438 56.0866 35.2762 56.1656 35.517C56.2428 35.7595 56.1123 36.0187 55.8698 36.0977C55.8238 36.1123 55.7741 36.1197 55.7283 36.1197C55.5355 36.1199 55.3534 35.9968 55.291 35.8018ZM95.9726 36.0758C95.7318 35.9968 95.5995 35.7374 95.6766 35.4966C95.7557 35.2541 96.0149 35.1216 96.2557 35.2008C96.4984 35.2798 96.6287 35.539 96.5516 35.7798C96.4891 35.9746 96.3089 36.0977 96.1143 36.0977C96.0683 36.0978 96.0205 36.0904 95.9726 36.0758ZM54.7027 33.6091C54.6493 33.3611 54.8094 33.1167 55.0576 33.065C55.3058 33.0117 55.5483 33.1698 55.6016 33.4179C55.655 33.666 55.4968 33.9104 55.2467 33.9638C55.2156 33.9712 55.1843 33.9729 55.1512 33.9729C54.9399 33.9729 54.7486 33.8259 54.7027 33.6091ZM96.5939 33.9418C96.344 33.8884 96.1859 33.644 96.2392 33.396C96.2907 33.1478 96.5351 32.9898 96.7833 33.0413C97.0314 33.0946 97.1894 33.339 97.138 33.5872C97.092 33.8024 96.9008 33.9511 96.6876 33.9511C96.6564 33.9509 96.6251 33.9473 96.5939 33.9418ZM54.3481 31.3685C54.3223 31.1148 54.5042 30.8888 54.7579 30.863C55.0097 30.8374 55.2357 31.0193 55.2615 31.2728C55.2891 31.5246 55.1053 31.7508 54.8535 31.7764C54.8369 31.7783 54.8204 31.78 54.8056 31.78C54.5722 31.7802 54.3719 31.6038 54.3481 31.3685ZM96.9853 31.7546C96.7335 31.727 96.5497 31.5009 96.5755 31.2491C96.6012 30.9973 96.8273 30.8134 97.0791 30.8393C97.3328 30.8668 97.5166 31.093 97.4889 31.3446C97.465 31.5799 97.2647 31.7565 97.0332 31.7565C97.0166 31.7565 97.0018 31.7565 96.9853 31.7546ZM54.2285 29.1021C54.2285 28.8484 54.4344 28.6426 54.6881 28.6426C54.9418 28.6426 55.1476 28.8484 55.1476 29.1021C55.1476 29.3558 54.9418 29.5617 54.6881 29.5617C54.4344 29.5617 54.2285 29.3558 54.2285 29.1021ZM96.6876 29.0782C96.6876 29.0708 96.6876 29.0653 96.6876 29.0581C96.6876 29.0489 96.6876 29.0415 96.6876 29.0323C96.6876 28.7786 96.8917 28.5727 97.1452 28.571C97.3989 28.571 97.6065 28.7768 97.6065 29.0305C97.6065 29.0378 97.6065 29.047 97.6065 29.0544C97.6065 29.0617 97.6065 29.071 97.6065 29.0784C97.6065 29.3321 97.4008 29.5379 97.1471 29.5379C96.8934 29.5377 96.6876 29.3319 96.6876 29.0782ZM54.7524 27.3414C54.5006 27.3137 54.3168 27.0896 54.3426 26.8359C54.3683 26.5841 54.5944 26.4003 54.8462 26.4261C55.0999 26.4519 55.2837 26.6779 55.2579 26.9297C55.2323 27.1669 55.0338 27.3433 54.8003 27.3433C54.7855 27.3431 54.7688 27.3414 54.7524 27.3414ZM96.57 26.8616C96.5442 26.6098 96.7261 26.3838 96.9798 26.3561C97.2316 26.3304 97.4576 26.5124 97.4853 26.7642C97.5109 27.0178 97.329 27.2438 97.0753 27.2696C97.0605 27.2714 97.044 27.2733 97.0275 27.2733C96.7941 27.2734 96.5957 27.0968 96.57 26.8616ZM55.0483 25.1375C54.8003 25.086 54.6402 24.8417 54.6936 24.5935C54.745 24.3453 54.9894 24.1873 55.2376 24.2387C55.4858 24.2921 55.6438 24.5348 55.5923 24.7828C55.5464 24.9996 55.3553 25.1485 55.1421 25.1485C55.1108 25.1485 55.0796 25.1447 55.0483 25.1375ZM96.228 24.7148C96.1747 24.4666 96.3328 24.2222 96.5808 24.1707C96.8309 24.1174 97.0734 24.2754 97.1268 24.5236C97.1801 24.7718 97.0221 25.0162 96.774 25.0693C96.7409 25.075 96.7096 25.0786 96.6784 25.0786C96.4652 25.0786 96.274 24.9317 96.228 24.7148ZM55.572 22.9778C55.3312 22.9007 55.1991 22.6414 55.2762 22.3988C55.3534 22.1581 55.6126 22.0257 55.8552 22.1047C56.0959 22.182 56.2283 22.4412 56.151 22.6818C56.0885 22.8766 55.9066 22.9999 55.7135 22.9999C55.6677 22.9999 55.62 22.9944 55.572 22.9778ZM95.6638 22.6174C95.5847 22.3766 95.7153 22.1157 95.9578 22.0384C96.1986 21.9594 96.4578 22.0899 96.5368 22.3326C96.616 22.5734 96.4834 22.8324 96.2426 22.9116C96.195 22.9264 96.1471 22.9336 96.0993 22.9336C95.9063 22.9338 95.7263 22.8104 95.6638 22.6174ZM56.3221 20.8861C56.0887 20.7832 55.9839 20.5111 56.0887 20.2795C56.1916 20.048 56.4619 19.9431 56.6952 20.0461C56.9269 20.149 57.0298 20.4211 56.9269 20.6526C56.8515 20.8237 56.6842 20.9247 56.5078 20.9247C56.4452 20.9247 56.381 20.9118 56.3221 20.8861ZM94.879 20.5903C94.7761 20.3586 94.879 20.0867 95.1105 19.9838C95.3422 19.8789 95.6141 19.9819 95.7189 20.2135C95.8218 20.4469 95.7189 20.7171 95.4872 20.822C95.4265 20.8495 95.3621 20.8624 95.2998 20.8624C95.1234 20.8622 94.9561 20.761 94.879 20.5903ZM57.2852 18.8826C57.0665 18.7576 56.9913 18.4745 57.1179 18.2557C57.2448 18.0351 57.526 17.9599 57.7448 18.0867C57.9653 18.2136 58.0406 18.4948 57.9138 18.7153C57.8293 18.8623 57.6747 18.9451 57.515 18.9451C57.4377 18.9451 57.3587 18.9249 57.2852 18.8826ZM93.8883 18.6566C93.7596 18.4378 93.835 18.1566 94.0537 18.0279C94.2744 17.901 94.5556 17.9764 94.6824 18.1952C94.8093 18.4139 94.7356 18.6952 94.5169 18.8237C94.4434 18.8661 94.3644 18.8862 94.2852 18.8862C94.1272 18.8864 93.9728 18.8036 93.8883 18.6566ZM58.456 16.9931C58.2503 16.8442 58.2043 16.5575 58.353 16.3517C58.5019 16.1458 58.7886 16.0999 58.9945 16.2487C59.2003 16.3976 59.2463 16.6861 59.0974 16.8919C59.0074 17.0152 58.8676 17.0812 58.7243 17.0812C58.6306 17.0812 58.537 17.052 58.456 16.9931ZM92.699 16.8369C92.5501 16.6327 92.5942 16.346 92.7983 16.1954C93.004 16.0465 93.2909 16.0907 93.4417 16.2947C93.5906 16.5005 93.5463 16.7873 93.3405 16.9381C93.2596 16.9969 93.1641 17.0264 93.0704 17.0264C92.9288 17.0262 92.789 16.9601 92.699 16.8369ZM59.8144 15.2359C59.6268 15.0649 59.6103 14.7746 59.7812 14.5872C59.9504 14.3977 60.2408 14.3813 60.4303 14.5522C60.6177 14.7212 60.6342 15.0118 60.4652 15.2011C60.3733 15.3023 60.2483 15.3538 60.1215 15.3538C60.0129 15.3536 59.9026 15.315 59.8144 15.2359ZM91.3259 15.1513C91.1569 14.9639 91.1715 14.6734 91.3589 14.5025C91.5483 14.3314 91.8386 14.3462 92.0078 14.5355C92.1789 14.723 92.1641 15.0135 91.9767 15.1844C91.8884 15.2634 91.7782 15.3021 91.6679 15.3021C91.5429 15.3021 91.418 15.2524 91.3259 15.1513ZM61.3511 13.6295C61.1802 13.4402 61.1948 13.1498 61.3841 12.9788C61.5715 12.8098 61.8619 12.8244 62.033 13.0118C62.2022 13.2011 62.1874 13.4915 61.9999 13.6605C61.9116 13.7414 61.8015 13.78 61.6912 13.78C61.566 13.7801 61.4411 13.7287 61.3511 13.6295ZM89.7876 13.6164C89.5982 13.4474 89.5817 13.1569 89.7526 12.9677C89.9216 12.7784 90.2122 12.7638 90.4015 12.9328C90.5891 13.1037 90.6056 13.3941 90.4364 13.5817C90.3445 13.6827 90.2196 13.7342 90.0927 13.7342C89.9843 13.7342 89.874 13.6956 89.7876 13.6164ZM63.0438 12.1903C62.8949 11.9845 62.9391 11.6977 63.145 11.5487C63.3489 11.3981 63.6357 11.4421 63.7865 11.648C63.9353 11.8538 63.8913 12.1406 63.6854 12.2896C63.6045 12.3502 63.509 12.3777 63.4152 12.3777C63.2736 12.3777 63.134 12.3134 63.0438 12.1903ZM88.0947 12.2509C87.8907 12.102 87.8447 11.8153 87.9936 11.6094C88.1425 11.4036 88.4292 11.3576 88.6351 11.5065C88.8409 11.6554 88.8869 11.944 88.738 12.1499C88.648 12.2731 88.5065 12.3392 88.3649 12.3392C88.2711 12.3392 88.1774 12.3098 88.0947 12.2509ZM64.8782 10.9348C64.7513 10.716 64.825 10.4349 65.0455 10.3079C65.2642 10.1792 65.5455 10.2546 65.6723 10.4733C65.8009 10.6938 65.7257 10.975 65.5069 11.1019C65.4334 11.1442 65.3544 11.1644 65.2752 11.1644C65.1171 11.1645 64.9629 11.0819 64.8782 10.9348ZM86.2713 11.069C86.0508 10.9422 85.9754 10.6609 86.1023 10.4422C86.2291 10.2217 86.5104 10.1463 86.7291 10.2732C86.9496 10.4 87.025 10.6793 86.8981 10.9C86.8136 11.047 86.6591 11.1298 86.4993 11.1298C86.4221 11.1298 86.3431 11.1094 86.2713 11.069ZM66.8322 9.87987C66.7292 9.64821 66.8322 9.3761 67.0637 9.27318C67.2953 9.16854 67.5673 9.27317 67.6721 9.50484C67.775 9.73633 67.6721 10.0084 67.4404 10.1114C67.3798 10.1389 67.3155 10.1518 67.253 10.1518C67.0766 10.1518 66.9093 10.0508 66.8322 9.87987ZM84.334 10.0838C84.1004 9.9809 83.9958 9.7088 84.0987 9.47713C84.2016 9.24564 84.4736 9.14082 84.7052 9.24375C84.9369 9.34667 85.0415 9.61861 84.9386 9.85027C84.8632 10.0213 84.6961 10.1241 84.5197 10.1241C84.4572 10.1243 84.3928 10.1114 84.334 10.0838ZM68.8889 9.03429C68.8099 8.7935 68.9423 8.5343 69.1831 8.4553C69.4237 8.3763 69.6829 8.50865 69.762 8.74927C69.841 8.99195 69.7089 9.25114 69.4681 9.32825C69.4204 9.34477 69.3724 9.35218 69.3247 9.35218C69.1314 9.35235 68.9514 9.22912 68.8889 9.03429ZM82.3031 9.30811C82.0604 9.23083 81.9282 8.97164 82.0072 8.72913C82.0845 8.48834 82.3435 8.35599 82.5843 8.43327C82.827 8.5121 82.9593 8.76957 82.8803 9.01225C82.8178 9.20708 82.6376 9.33032 82.4428 9.33032C82.3967 9.33032 82.349 9.32291 82.3031 9.30811ZM71.0211 8.41123C70.9677 8.16304 71.1257 7.91865 71.3739 7.86547C71.6221 7.81401 71.8665 7.972 71.9198 8.22002C71.9732 8.46821 71.8152 8.71261 71.567 8.76407C71.534 8.77147 71.5009 8.77508 71.4696 8.77508C71.2582 8.77508 71.067 8.62809 71.0211 8.41123ZM80.2021 8.75116C79.9539 8.6978 79.794 8.4553 79.8455 8.20711C79.8988 7.95909 80.1413 7.79903 80.3895 7.85067C80.6394 7.90402 80.7976 8.14653 80.7461 8.39472C80.7002 8.61158 80.509 8.76046 80.2959 8.76046C80.2646 8.76046 80.2334 8.75667 80.2021 8.75116ZM73.2064 8.01417C73.1807 7.76255 73.3645 7.53639 73.6162 7.51057C73.868 7.48303 74.0941 7.66684 74.1217 7.91864C74.1473 8.17234 73.9654 8.3966 73.7117 8.42414C73.6952 8.42603 73.6786 8.42603 73.664 8.42603C73.4306 8.42586 73.2322 8.25135 73.2064 8.01417ZM78.0534 8.41675C77.8016 8.3911 77.6178 8.16494 77.6434 7.91314C77.6693 7.66134 77.8952 7.47752 78.1472 7.50334C78.4007 7.52899 78.5847 7.75324 78.5589 8.00694C78.5333 8.24394 78.3348 8.4188 78.1013 8.4188C78.0865 8.41863 78.0699 8.41864 78.0534 8.41675ZM75.423 7.84877C75.423 7.59508 75.6271 7.3894 75.8808 7.3894C75.8808 7.3894 75.8808 7.3894 75.8826 7.3894C76.1344 7.3894 76.3421 7.59525 76.3421 7.84877C76.3421 8.10247 76.1362 8.30831 75.8826 8.30831C75.629 8.30831 75.423 8.10436 75.423 7.84877Z" fill="url(#paint12_linear_299_2159)"/>
<path d="M124.762 47.125L128.103 26.7614H130.489L127.149 47.125H124.762ZM115.545 41.6761L115.933 39.2898H131.364L130.977 41.6761H115.545ZM117.603 47.125L120.944 26.7614H123.33L119.989 47.125H117.603ZM116.728 34.5966L117.116 32.2102H132.548L132.16 34.5966H116.728Z" fill="white"/>
<path d="M138.735 27.125V21.965H148.375V51.125H142.615V27.125H138.735Z" fill="white"/>
<defs>
<linearGradient id="paint0_linear_299_2159" x1="75.9177" y1="47.4278" x2="75.9177" y2="69.2874" gradientUnits="userSpaceOnUse">
<stop stop-color="#956D13"/>
<stop offset="0.1877" stop-color="#9D751C"/>
<stop offset="0.4901" stop-color="#B48C33"/>
<stop offset="0.8676" stop-color="#D8B05A"/>
<stop offset="1" stop-color="#E6BE69"/>
</linearGradient>
<linearGradient id="paint1_linear_299_2159" x1="75.9176" y1="57.298" x2="75.9176" y2="2.70747" gradientUnits="userSpaceOnUse">
<stop stop-color="#956D13"/>
<stop offset="0.5" stop-color="#E6BE69"/>
<stop offset="1" stop-color="#FFEC94"/>
</linearGradient>
<linearGradient id="paint2_linear_299_2159" x1="94.1443" y1="49.6979" x2="64.6129" y2="16.1228" gradientUnits="userSpaceOnUse">
<stop stop-color="#492001"/>
<stop offset="1" stop-color="#281201"/>
</linearGradient>
<linearGradient id="paint3_linear_299_2159" x1="93.9796" y1="49.6137" x2="64.4482" y2="16.0385" gradientUnits="userSpaceOnUse">
<stop stop-color="#956D13"/>
<stop offset="0.5" stop-color="#E6BE69"/>
<stop offset="1" stop-color="#FFEC94"/>
</linearGradient>
<linearGradient id="paint4_linear_299_2159" x1="98.2918" y1="54.5164" x2="75.1426" y2="28.1973" gradientUnits="userSpaceOnUse">
<stop stop-color="#492001"/>
<stop offset="0.3831" stop-color="#461F01"/>
<stop offset="0.684" stop-color="#3C1A01"/>
<stop offset="0.9562" stop-color="#2B1301"/>
<stop offset="1" stop-color="#281201"/>
</linearGradient>
<linearGradient id="paint5_linear_299_2159" x1="80.5153" y1="33.6801" x2="63.1554" y2="16.3201" gradientUnits="userSpaceOnUse">
<stop stop-color="#492001"/>
<stop offset="0.0565" stop-color="#441E01"/>
<stop offset="0.3144" stop-color="#341701"/>
<stop offset="0.606" stop-color="#2B1301"/>
<stop offset="1" stop-color="#281201"/>
</linearGradient>
<linearGradient id="paint6_linear_299_2159" x1="80.5153" y1="33.6801" x2="63.1554" y2="16.3201" gradientUnits="userSpaceOnUse">
<stop stop-color="#492001"/>
<stop offset="0.0565" stop-color="#441E01"/>
<stop offset="0.3144" stop-color="#341701"/>
<stop offset="0.606" stop-color="#2B1301"/>
<stop offset="1" stop-color="#281201"/>
</linearGradient>
<linearGradient id="paint7_linear_299_2159" x1="75.9176" y1="51.408" x2="75.9176" y2="8.21154" gradientUnits="userSpaceOnUse">
<stop stop-color="#956D13"/>
<stop offset="0.0813" stop-color="#9E761C"/>
<stop offset="0.4882" stop-color="#C59D46"/>
<stop offset="0.8083" stop-color="#DDB55F"/>
<stop offset="1" stop-color="#E6BE69"/>
</linearGradient>
<linearGradient id="paint8_linear_299_2159" x1="75.9176" y1="48.7811" x2="75.9176" y2="10.6666" gradientUnits="userSpaceOnUse">
<stop stop-color="#956D13"/>
<stop offset="0.0813" stop-color="#9E761C"/>
<stop offset="0.4882" stop-color="#C59D46"/>
<stop offset="0.8083" stop-color="#DDB55F"/>
<stop offset="1" stop-color="#E6BE69"/>
</linearGradient>
<linearGradient id="paint9_linear_299_2159" x1="64.5403" y1="17.7012" x2="80.9731" y2="34.134" gradientUnits="userSpaceOnUse">
<stop stop-color="#956D13"/>
<stop offset="0.0813" stop-color="#9E761C"/>
<stop offset="0.4882" stop-color="#C59D46"/>
<stop offset="0.8083" stop-color="#DDB55F"/>
<stop offset="1" stop-color="#E6BE69"/>
</linearGradient>
<linearGradient id="paint10_linear_299_2159" x1="62.3823" y1="16.4931" x2="66.6711" y2="20.5368" gradientUnits="userSpaceOnUse">
<stop stop-color="#281201"/>
<stop offset="0.394" stop-color="#2B1301"/>
<stop offset="0.6856" stop-color="#341701"/>
<stop offset="0.9435" stop-color="#441E01"/>
<stop offset="1" stop-color="#492001"/>
</linearGradient>
<linearGradient id="paint11_linear_299_2159" x1="80.5174" y1="33.6781" x2="63.1575" y2="16.3182" gradientUnits="userSpaceOnUse">
<stop stop-color="#492001"/>
<stop offset="0.0565" stop-color="#441E01"/>
<stop offset="0.3144" stop-color="#341701"/>
<stop offset="0.606" stop-color="#2B1301"/>
<stop offset="1" stop-color="#281201"/>
</linearGradient>
<linearGradient id="paint12_linear_299_2159" x1="89.8447" y1="46.8749" x2="62.7334" y2="12.2275" gradientUnits="userSpaceOnUse">
<stop stop-color="#956D13"/>
<stop offset="0.0813" stop-color="#9E761C"/>
<stop offset="0.4882" stop-color="#C59D46"/>
<stop offset="0.8083" stop-color="#DDB55F"/>
<stop offset="1" stop-color="#E6BE69"/>
</linearGradient>
</defs>
</svg>
