<svg width="25" height="41" viewBox="0 0 25 41" fill="none" xmlns="http://www.w3.org/2000/svg">
<path d="M10.4559 39.0166V36.452C9.16737 36.2739 7.96633 35.9431 6.87078 35.4632C5.08099 34.6801 3.62981 33.5523 2.55796 32.1112C1.47121 30.6513 0.843271 28.932 0.692115 27.0019L0.61071 25.7294C0.569815 25.0908 1.07679 24.5502 1.71677 24.5502H3.84021C4.42554 24.5502 4.90996 25.0054 4.94646 25.5896L5.01889 26.7485C5.10679 27.8491 5.45076 28.7852 6.07029 29.6056C6.70702 30.4493 7.56217 31.0944 8.68466 31.5779C9.22718 31.8116 9.8192 31.9918 10.4557 32.1175V21.4334C7.463 20.7031 5.31375 19.7128 3.88932 18.4095C2.29865 16.9549 1.49204 14.9903 1.49204 12.5706V12.5282C1.49204 10.7552 1.99271 9.1659 2.98048 7.80454C3.9329 6.4919 5.261 5.45235 6.9285 4.71491C7.99576 4.24291 9.17731 3.92511 10.4557 3.76479V1.23335C10.4557 0.621271 10.952 0.125 11.5641 0.125H13.5992C14.2113 0.125 14.7076 0.621271 14.7076 1.23335V3.80702C15.861 3.98283 16.9445 4.29947 17.9432 4.75371C19.5968 5.50643 20.9535 6.56375 21.9763 7.89645C23.0275 9.26679 23.6382 10.863 23.7921 12.6413L23.8798 13.8997C23.9245 14.5406 23.4166 15.0853 22.7741 15.0853H20.6547C20.0739 15.0853 19.5916 14.6371 19.5492 14.0579L19.4682 12.9521C19.3825 11.9914 19.0615 11.169 18.4861 10.435C17.8777 9.65949 17.0898 9.06251 16.0774 8.61038C15.6506 8.42005 15.193 8.26813 14.7074 8.15576V18.0038L15.0076 18.0736C18.2629 18.8212 20.5538 19.8225 22.007 21.1336C23.5893 22.5616 24.3915 24.55 24.3915 27.0438V27.065C24.3915 28.9903 23.8851 30.7061 22.8865 32.1649C21.901 33.6043 20.5043 34.725 18.7351 35.4963C17.5408 36.0172 16.1909 36.3568 14.7074 36.5108V39.0166C14.7074 39.6287 14.2111 40.125 13.599 40.125H11.5639C10.952 40.125 10.4559 39.6289 10.4559 39.0166ZM14.7078 32.21C15.5402 32.0937 16.2876 31.8957 16.9411 31.6176C17.9833 31.1743 18.7481 30.5792 19.2793 29.7984C19.8012 29.0312 20.055 28.1439 20.055 27.086V27.0648C20.055 25.8227 19.7024 24.9073 18.977 24.2666C18.4248 23.7791 17.2394 23.0826 14.7076 22.435L14.7078 32.21ZM10.4559 8.08143C9.83066 8.19208 9.2589 8.35775 8.74562 8.5777C7.77409 8.99391 7.05214 9.53605 6.53867 10.2351C6.06112 10.8848 5.82894 11.6348 5.82894 12.5282V12.5706C5.82894 13.7751 6.17635 14.6453 6.92219 15.3094C7.43203 15.7634 8.4477 16.3901 10.4559 16.9781V8.08143Z" fill="url(#paint0_linear_303_2243)"/>
<defs>
<linearGradient id="paint0_linear_303_2243" x1="26.3635" y1="32.4352" x2="-62.3729" y2="1.11821" gradientUnits="userSpaceOnUse">
<stop stop-color="#A47A1E"/>
<stop offset="0.2279" stop-color="#D3A84C"/>
<stop offset="0.414" stop-color="#FFEC94"/>
<stop offset="0.586" stop-color="#E6BE69"/>
<stop offset="0.7721" stop-color="#FFD87C"/>
<stop offset="1" stop-color="#B58F3E"/>
</linearGradient>
</defs>
</svg>
