<svg width="28" height="28" viewBox="0 0 28 28" fill="none" xmlns="http://www.w3.org/2000/svg">
<g clip-path="url(#clip0_617_402)">
<rect width="28" height="28.0001" rx="4" fill="white"/>
<path d="M23.8583 23.8584H19.7097V17.36C19.7097 15.8107 19.6817 13.8157 17.5513 13.8157C15.3907 13.8157 15.0593 15.505 15.0593 17.2457V23.8584H10.9107V10.4954H14.8937V12.3224H14.9497C15.7617 10.9364 17.2737 10.1057 18.879 10.164C23.0837 10.164 23.8607 12.929 23.8607 16.5294L23.8583 23.856V23.8584ZM6.23 8.66837C5.59271 8.66531 4.98235 8.41094 4.53149 7.96052C4.08063 7.5101 3.82568 6.89999 3.822 6.2627C3.822 4.94203 4.90933 3.8547 6.23 3.8547C7.55067 3.8547 8.63567 4.94203 8.638 6.2627C8.638 7.58337 7.55067 8.66837 6.23 8.66837ZM8.30433 23.8584H4.151V10.4954H8.30433V23.8584ZM25.9233 3.46809e-05H2.065C1.52402 -0.00310745 1.00365 0.207374 0.616987 0.585739C0.230321 0.964104 0.00859755 1.47978 0 2.0207V25.9794C0.00859755 26.5203 0.230321 27.036 0.616987 27.4143C1.00365 27.7927 1.52402 28.0032 2.065 28H25.9257C26.4679 28.0044 26.9899 27.7946 27.3784 27.4163C27.7668 27.0379 27.9902 26.5215 28 25.9794V2.01837C27.9902 1.47663 27.7666 0.960735 27.3781 0.583108C26.9895 0.205482 26.4675 -0.00326259 25.9257 0.00236785L25.9233 3.46809e-05Z" fill="#0A66C2"/>
</g>
<defs>
<clipPath id="clip0_617_402">
<rect width="28" height="28.0001" rx="4" fill="white"/>
</clipPath>
</defs>
</svg>
