<svg width="66" height="81" viewBox="0 0 66 81" fill="none" xmlns="http://www.w3.org/2000/svg">
<path d="M45.8419 30.6525C45.7064 30.314 46.0451 29.84 46.2482 29.5014C46.4514 29.1629 46.5191 28.2826 45.8419 27.1317C45.5639 26.659 45.4573 26.2435 45.428 25.9178C44.9883 26.0779 44.8446 26.088 44.918 26.748C45.0173 27.6414 46.2083 28.0382 44.6202 28.336C43.0321 28.6338 42.9329 28.7331 42.4365 28.5346C41.9402 28.336 41.6424 27.3436 41.1463 27.2443C40.6499 27.145 39.0618 27.9392 38.367 28.1377C37.6721 28.3362 38.4662 26.1525 37.1759 25.954C37 25.927 36.8543 25.9074 36.7282 25.8932C36.5306 26.3274 36.4306 26.9574 36.9726 27.809C37.9205 29.2986 37.8529 29.637 37.5819 29.9757C37.3111 30.3142 36.8371 30.9913 36.4986 31.3976C36.1602 31.8039 35.6185 31.8716 35.6862 32.2779C35.7539 32.6842 35.5507 32.8195 35.957 33.5643C36.2912 34.1771 36.7624 34.1943 36.5042 34.5583C37.9148 34.3007 40.9015 34.1684 42.0092 33.9837C43.3142 33.7661 43.6767 33.9837 44.4744 33.8388C45.2718 33.6939 44.9093 32.6062 45.4894 32.2437C45.6576 32.1385 45.8562 32.2478 46.0342 32.4722C46.1691 32.2304 46.2486 32.035 46.2486 31.8716C46.2482 31.5327 45.9774 30.9911 45.8419 30.6525Z" fill="url(#paint0_linear_281_2199)"/>
<path d="M35.9568 33.564C35.5505 32.8192 35.7537 32.6839 35.686 32.2776C35.6184 31.8712 36.16 31.8036 36.4984 31.3973C36.8369 30.991 37.3109 30.314 37.5817 29.9754C37.8525 29.6369 37.9202 29.2983 36.9724 27.8087C36.4304 26.9571 36.5304 26.3273 36.728 25.8929C35.9304 25.8023 35.9529 25.9267 34.4957 25.7553C32.8084 25.5568 30.4262 22.8768 29.7313 22.8768C29.0364 22.8768 28.6395 22.4797 28.6395 22.4797C28.6395 22.4797 28.6373 22.4372 28.6373 22.3629C28.4985 22.3638 28.3643 22.3523 28.2382 22.3244C27.0195 22.0536 25.8007 21.7828 25.5299 21.3765C25.2591 20.9702 24.582 20.2932 24.3112 20.0901C24.2735 20.0618 24.2544 20.0522 24.2457 20.0515C24.221 20.049 24.279 20.1178 24.2457 20.0515C24.206 19.9718 24.0346 19.6973 23.4311 18.8713C22.1447 17.111 22.0092 17.0433 21.6707 17.1786C21.3322 17.3141 20.5874 18.465 20.452 18.7358C20.3165 19.0067 20.2488 20.0222 20.2488 20.2931C20.2488 20.5269 19.2901 21.1138 18.6796 21.4878C18.7596 21.6741 18.8073 21.8956 18.8073 22.1649C18.8073 23.6151 18.9522 23.47 19.2423 24.05C19.5323 24.6301 20.2573 25.0651 20.2573 25.0651C20.2573 25.0651 21.4899 24.7026 21.9973 24.6301C22.5049 24.5577 22.5774 24.1952 22.8674 24.9202C23.1575 25.6452 23.2299 27.0953 24.1725 27.3129C25.1151 27.5305 25.8401 28.183 25.7676 28.4731C25.6952 28.7631 24.9702 29.1256 25.5501 29.6332C26.1301 30.1408 26.2026 30.5758 27.0001 31.0107C27.7975 31.4457 27.5801 32.0982 28.6676 31.9533C29.7551 31.8084 32.0028 31.5908 33.0905 32.9684C34.178 34.3459 34.033 34.3459 34.6131 34.491C35.1932 34.6359 35.0481 35.0711 35.9182 34.7086C36.0498 34.6537 36.2522 34.604 36.5036 34.5579C36.7622 34.1939 36.291 34.1768 35.9568 33.564Z" fill="url(#paint1_linear_281_2199)"/>
<path d="M20.2489 20.2934C20.2489 20.0225 20.3166 19.0069 20.4521 18.7361C20.5874 18.4653 21.3322 17.3142 21.6708 17.1789C22.0093 17.0434 22.1448 17.1113 23.4312 18.8716C24.0348 19.6976 24.2061 19.9721 24.2459 20.0517C24.2547 20.0525 24.2736 20.0621 24.3113 20.0904C24.5821 20.2935 25.2592 20.9707 25.53 21.3768C25.8009 21.7831 27.0196 22.0539 28.2383 22.3247C28.3642 22.3526 28.4984 22.3641 28.6374 22.3632C28.6365 21.938 28.7029 20.4464 29.6323 19.6014C30.7241 18.6088 31.1212 18.4104 30.5257 17.8148C29.9301 17.2192 29.5331 17.6163 29.1362 17.12C28.7391 16.6236 29.434 16.6236 28.4413 16.4251C27.4486 16.2266 27.5479 15.2341 27.0518 14.4399C26.5554 13.6458 26.2576 13.4473 26.1584 12.554C26.1304 12.3026 26.0866 12.0838 26.0406 11.8886C25.772 12.0422 25.4657 12.2603 24.9886 12.4392C23.9054 12.8456 23.2282 12.6424 23.0927 12.3038C22.9572 11.9653 22.8896 11.9653 22.5511 11.1527C22.2126 10.3402 21.9418 10.8142 21.2647 10.8142C20.5876 10.8142 20.3846 10.9497 19.4367 11.4235C18.4887 11.8974 19.0982 11.6266 18.4887 12.4391C18.1939 12.8323 17.5979 12.9555 17.0613 12.9785C17.0247 13.0288 16.9816 13.0844 16.9275 13.1493C16.4311 13.7449 16.2326 13.7449 16.1333 14.241C16.0341 14.7374 16.5304 15.1344 15.8355 15.8291C15.1407 16.524 14.6445 16.524 14.446 16.8218C14.3844 16.9142 14.3706 17.0547 14.3571 17.2102C14.5053 17.3858 14.6624 17.5873 14.8197 17.8145C15.4723 18.757 15.0373 17.9594 15.4723 18.757C15.9072 19.5545 15.6172 19.6271 16.1248 19.7721C16.6324 19.917 16.5598 19.482 16.9949 20.0621C17.3491 20.5344 18.3285 20.6705 18.6799 21.4877C19.2903 21.1141 20.2489 20.5272 20.2489 20.2934Z" fill="url(#paint2_linear_281_2199)"/>
<path d="M24.2457 20.0517C24.221 20.0493 24.279 20.1181 24.2457 20.0517V20.0517Z" fill="url(#paint3_linear_281_2199)"/>
<path d="M18.4885 12.4394C19.0978 11.6269 18.4885 11.8977 19.4364 11.4238C20.3843 10.9498 20.5875 10.8145 21.2644 10.8145C21.9416 10.8145 22.2124 10.3405 22.5508 11.153C22.8893 11.9654 22.9571 11.9654 23.0925 12.304C23.228 12.6425 23.9049 12.8457 24.9883 12.4395C25.4654 12.2606 25.7717 12.0425 26.0403 11.8889C25.9226 11.3905 25.7889 11.0529 25.8603 10.7675C25.9596 10.3705 26.7535 11.9585 27.2498 10.8668C27.7462 9.77504 27.2498 8.98091 27.3491 8.58384C27.4484 8.18677 26.952 9.17944 27.4484 8.18677C27.9447 7.19429 28.5401 7.29337 28.5401 5.60602C28.5401 3.91866 27.5476 4.21646 27.0513 3.91866C26.555 3.62086 26.6542 3.5216 25.761 3.62086C24.8676 3.72013 25.0662 3.32306 23.9744 3.5216C22.8827 3.72013 22.4856 3.42233 21.4929 2.72746C20.5002 2.03259 20.8973 1.33791 20.0041 0.841573C19.1107 0.345239 16.5301 0.146705 15.2397 0.742307C15.2397 0.742307 13.8501 0.94084 13.6516 1.73498C13.453 2.52911 13.1552 2.23131 13.8501 2.92599C14.545 3.62086 14.6442 2.92599 14.942 3.5216C15.2398 4.1172 15.1406 5.30822 15.1406 5.30822C15.1406 6.20162 14.7435 6.20162 14.545 6.49924C14.3464 6.79704 14.0486 6.79704 14.1479 7.39264C14.2472 7.98824 15.0413 8.88146 15.0413 8.88146C15.0413 8.88146 15.5376 8.48439 15.0413 9.47706C14.545 10.4697 15.0413 10.2712 15.9347 10.7673C16.8281 11.2637 16.9274 11.2637 17.0265 11.9584C17.1148 12.5774 17.3594 12.5673 17.061 12.9786C17.5977 12.9558 18.1936 12.8324 18.4885 12.4394Z" fill="url(#paint4_linear_281_2199)"/>
<path d="M65.663 22.3806C65.2659 22.0828 65.1667 22.2813 64.8689 21.785C64.5711 21.2887 63.7769 19.3035 61.9903 19.7006C60.2037 20.0976 60.2037 19.7998 59.9059 20.594C59.6081 21.3881 59.5088 22.4799 59.0125 22.6784C58.5162 22.8769 58.9132 22.6784 58.0198 23.0755C57.1266 23.4725 58.0198 22.9762 57.1266 23.4725C56.2332 23.9689 55.7371 23.7703 55.1415 24.4652C54.5459 25.1601 54.8437 25.0608 54.8437 25.557C54.8437 25.857 54.9156 26.1208 54.8853 26.3921C55.2646 26.7838 55.7855 27.1853 56.2012 26.9964C56.946 26.658 56.6752 26.5225 57.42 26.3193C58.1648 26.1161 58.0293 25.9808 58.8419 25.913C59.6543 25.8453 59.3158 26.7933 59.993 26.2515C60.6701 25.7098 61.9565 23.0692 62.9044 23.6108C63.8524 24.1524 63.9877 24.8296 63.5137 25.168C63.0397 25.5065 62.4981 25.642 61.6857 26.3868C60.8732 27.1316 60.3993 27.6055 60.3316 28.1471C60.264 28.6888 60.3993 28.7564 59.79 29.2982C59.1807 29.8399 58.7068 29.569 58.7068 30.2462C58.7068 30.9233 58.7067 32.7513 57.8943 33.1576C57.0819 33.5639 57.285 33.6316 56.8787 33.5639C56.6501 33.5259 56.4428 32.9942 56.1484 32.6818C56.148 32.9007 56.0661 33.0776 55.6383 33.3983C54.8442 33.9939 54.4473 33.6961 53.7525 34.9864C53.0576 36.2767 55.2413 35.3835 55.7376 35.7805C56.2339 36.1776 56.4325 36.0783 56.3332 36.773C56.2339 37.4679 55.4398 36.5745 56.2339 37.4679C57.0281 38.3613 56.9288 38.262 57.7228 38.7582C58.5169 39.2545 58.5169 40.6441 59.5094 40.0485C60.5021 39.4529 60.3035 39.2543 60.105 38.8574C59.9065 38.4604 59.9065 37.7657 60.105 37.3686C60.3035 36.9715 60.5021 36.5907 60.5021 36.2769C60.5021 35.7805 59.1125 34.5895 59.7079 34.1924C60.3035 33.7954 60.8989 33.8946 61.1967 33.299C61.4945 32.7034 61.5938 32.0088 61.5938 32.0088V31.3139L61.9909 30.3214C61.9909 30.3214 62.4872 30.0236 62.6857 29.3287C62.8843 28.6339 62.0901 27.4428 62.6857 26.8472C63.2814 26.2516 63.1821 26.3509 63.7775 26.2516C64.3731 26.1524 64.6709 26.1524 65.2663 25.9538C65.8619 25.7553 64.9685 25.8546 65.5641 24.3658C66.1593 22.8769 66.0601 22.6784 65.663 22.3806Z" fill="url(#paint5_linear_281_2199)"/>
<path d="M26.0039 64.6413C25.6655 64.6413 24.8528 64.8445 24.8528 64.8445C24.8528 64.8445 24.7144 64.7984 24.5454 64.76C24.5476 64.8524 24.5218 64.9367 24.4626 65.0155C24.245 65.3055 23.955 65.7405 23.7376 66.1756C23.52 66.6106 22.795 65.5955 22.5775 66.6832C22.3599 67.7707 22.6499 67.9158 22.1425 68.2783C21.6349 68.6408 21.055 68.6408 20.6923 68.8584C20.3298 69.076 19.7497 69.2209 19.3148 69.5834C18.8798 69.9459 18.8072 69.7283 17.8648 70.4535C17.1414 71.0099 17.1008 70.8833 16.5643 70.9253C16.6401 71.0606 16.7266 71.1911 16.8279 71.3149C17.7213 72.4067 17.9197 72.2083 18.3168 72.903C18.7138 73.5979 18.416 74.5904 18.5153 75.186C18.6146 75.7816 18.416 77.9653 19.1109 78.6599C19.8058 79.3548 20.0043 79.2555 20.7982 79.6526C21.5924 80.0497 21.096 80.0497 21.7909 80.3475C22.4858 80.6453 23.4783 78.4616 24.6695 77.3697C25.8605 76.2779 24.7687 76.0794 25.1658 75.2852C25.5629 74.4911 26.2576 73.995 26.7539 73.3994C27.2502 72.8038 27.151 72.8038 27.548 71.9105C27.9451 71.0171 27.548 70.3224 27.6473 69.6276C27.7466 68.9327 28.4414 66.4514 28.739 65.8558C29.0368 65.2602 29.0368 64.8631 28.9376 64.367C28.8575 63.9666 28.5193 63.8244 28.3394 63.524C28.0726 63.5917 27.819 63.7071 27.6292 63.8967C26.9519 64.5737 26.3424 64.6413 26.0039 64.6413Z" fill="url(#paint6_linear_281_2199)"/>
<path d="M39.1555 48.1512C38.5604 48.2595 38.0395 48.4039 37.785 48.5948C36.9725 49.2041 35.7538 49.5428 35.483 49.8136C35.2122 50.0844 34.6705 50.0167 34.3997 50.5583C34.1289 51.1 33.6549 51.3031 33.3165 51.4386C32.978 51.5741 33.3841 51.5741 32.4362 51.8449C31.8617 52.0091 31.487 51.8734 31.235 51.5462C30.2721 51.4453 28.958 50.5147 28.958 50.5147L28.233 48.1946C28.233 48.1946 28.088 47.687 27.3629 47.4696C26.6379 47.252 26.2754 47.0346 25.9127 46.962C25.5502 46.8895 25.4051 46.672 24.6801 47.0345C23.9551 47.397 23.2301 47.397 23.2301 47.397C23.2301 47.397 20.5474 48.7745 21.4898 50.3696C22.4324 51.9647 23.0125 51.8196 22.7224 52.7624C22.4324 53.7049 22.0699 53.4874 22.0699 54.5024C22.0699 55.5174 21.9974 55.6626 22.1424 56.17C22.2873 56.6776 22.5773 57.0401 22.0699 57.3301C21.5623 57.6202 20.2572 57.3301 20.4748 58.7077C20.6924 60.0852 19.8947 62.2604 21.4174 62.6229C22.94 62.9854 23.4474 63.203 23.9551 63.783C24.3248 64.2056 24.5396 64.5123 24.5455 64.76C24.7144 64.7984 24.8529 64.8445 24.8529 64.8445C24.8529 64.8445 25.6653 64.6413 26.004 64.6413C26.3425 64.6413 26.9519 64.5737 27.6289 63.8965C27.8187 63.7067 28.0723 63.5915 28.3391 63.5239C28.296 63.452 28.2616 63.371 28.2426 63.2751C28.1433 62.7787 27.9448 62.1833 28.1433 61.687C28.3418 61.1906 28.044 60.7936 28.3418 60.1981C28.6396 59.6025 27.0516 60.4959 28.4411 58.6101C29.8307 56.7242 30.8233 57.2205 31.4188 57.022C32.0144 56.8234 33.4039 56.0295 33.4039 56.0295C33.4039 56.0295 33.2054 55.4339 34.198 54.6399C35.1907 53.8458 37.5727 51.166 38.6647 49.8755C39.4074 48.9974 39.1858 48.5789 39.1555 48.1512Z" fill="url(#paint7_linear_281_2199)"/>
<path d="M56.8783 33.5639C57.2846 33.6316 57.0815 33.5639 57.8939 33.1576C58.7063 32.7513 58.7063 30.9232 58.7063 30.2461C58.7063 29.569 59.1803 29.8398 59.7896 29.2982C60.3989 28.7566 60.2636 28.6889 60.3312 28.1471C60.3989 27.6055 60.8728 27.1315 61.6853 26.3867C62.4977 25.6419 63.0393 25.5066 63.5133 25.168C63.9873 24.8295 63.8518 24.1524 62.904 23.6108C61.9563 23.0691 60.6697 25.7096 59.9926 26.2514C59.3154 26.793 59.6541 25.8451 58.8415 25.9129C58.029 25.9806 58.1643 26.1161 57.4196 26.3193C56.6748 26.5224 56.9456 26.6577 56.2008 26.9964C55.7853 27.1853 55.2643 26.7838 54.8848 26.3921C54.8651 26.5695 54.8018 26.7503 54.6449 26.9465C54.2478 27.4428 54.5456 26.9465 53.95 27.145C53.3544 27.3435 53.3544 27.2443 52.759 27.2443C52.1634 27.2443 53.1561 26.8472 52.1634 27.2443C51.2282 27.6184 52.0547 27.5519 51.3231 27.626C51.2833 27.7068 51.2192 27.7907 51.1227 27.8765C50.5134 28.4181 50.4455 28.2149 50.5134 28.6212C50.581 29.0276 50.5134 28.8244 50.7165 29.366C50.8652 29.7624 50.7594 30.1945 50.5334 30.5572C50.7354 31.2835 50.9086 31.4129 51.4687 31.4129C52.1636 31.4129 52.2629 31.2144 52.8583 31.5122C53.4539 31.81 56.233 31.1151 56.1337 31.9093C56.0879 32.2756 56.1476 32.494 56.1474 32.6816C56.4424 32.9942 56.6496 33.5258 56.8783 33.5639Z" fill="url(#paint8_linear_281_2199)"/>
<path d="M50.7169 29.366C50.5138 28.8244 50.5814 29.0275 50.5138 28.6212C50.4461 28.2149 50.5138 28.4181 51.123 27.8764C51.2195 27.7907 51.2835 27.7067 51.3234 27.626C51.2785 27.6306 51.2286 27.6356 51.1711 27.6413C50.1786 27.7406 49.3845 27.8398 48.8882 26.9464C48.3918 26.053 48.1933 25.6561 47.3993 25.5569C46.6052 25.4576 46.903 25.1598 46.0098 25.6561C45.7763 25.7859 45.5837 25.8612 45.428 25.9179C45.4573 26.2436 45.5639 26.659 45.8419 27.1318C46.5191 28.2829 46.4512 29.163 46.2482 29.5015C46.0451 29.84 45.7066 30.3139 45.8419 30.6526C45.9774 30.9911 46.2482 31.5329 46.2482 31.8713C46.2482 32.0347 46.1688 32.2301 46.0338 32.4719C46.4693 33.0215 46.7803 34.2663 46.214 34.7811C45.4166 35.5061 44.474 35.8686 44.474 35.8686C44.474 35.8686 43.6039 36.1587 43.5314 36.5212C43.459 36.8837 43.0965 37.1012 43.2414 37.4637C43.3863 37.8262 43.8215 38.5512 43.9664 38.8413C44.0866 39.0814 44.0071 39.7192 43.3174 39.9724C43.4385 40.0829 43.5983 40.1842 43.8107 40.2669C45.0295 40.7408 44.691 40.6053 45.2327 41.0117C45.6245 41.3056 45.8386 41.2819 45.9273 41.5019C46.087 41.1573 46.1131 41.0067 46.3076 40.9418C46.6054 40.8425 47.0025 40.1476 48.1935 40.0484C49.3845 39.9491 49.3845 38.9566 49.3845 38.9566C49.3845 38.9566 49.583 37.4678 49.4838 37.17C49.3845 36.8722 49.4838 36.2766 49.4838 35.979C49.4838 35.6812 49.0867 35.6812 48.4911 34.788C47.8955 33.8946 48.2925 33.4977 48.2925 32.9021C48.2925 32.3065 48.3918 32.7035 47.9947 32.0087C47.5977 31.3138 47.1013 31.6116 47.2999 31.016C47.4984 30.4204 47.1013 30.0235 47.9947 29.825C48.8882 29.6265 50.0792 28.634 50.377 29.9243C50.4346 30.1742 50.4849 30.3829 50.5335 30.5574C50.7598 30.1945 50.8655 29.7623 50.7169 29.366Z" fill="url(#paint9_linear_281_2199)"/>
<path d="M45.233 41.0118C44.6914 40.6055 45.0298 40.741 43.8111 40.267C43.5989 40.1844 43.4388 40.0833 43.3177 39.9725C43.1746 40.025 43.0058 40.0614 42.8066 40.074C41.6464 40.1465 41.0665 39.4939 40.6314 39.349C40.1964 39.2041 39.6164 38.6965 39.2539 38.8414C38.8914 38.9863 39.0363 38.2613 38.3837 38.9139C37.7312 39.5664 36.8611 40.9439 35.8461 41.7416C34.831 42.539 34.9759 41.7416 34.6134 42.7566C34.2509 43.7717 34.1058 44.5693 34.1785 44.9318C34.2509 45.2943 33.7435 45.2943 33.5984 45.8744C33.4535 46.4545 32.5109 46.382 32.6558 47.1795C32.8008 47.9769 33.4533 48.6296 33.2359 48.9195C33.0183 49.2095 32.2933 50.1521 32.2933 50.1521C32.2933 50.1521 32.5834 51.3123 31.6408 51.5296C31.5175 51.5581 31.3802 51.5612 31.2352 51.5461C31.4872 51.8733 31.8619 52.009 32.4364 51.8448C33.3843 51.574 32.978 51.574 33.3167 51.4385C33.6552 51.303 34.1291 51.1 34.3999 50.5582C34.6708 50.0166 35.2124 50.0843 35.4832 49.8135C35.754 49.5426 36.9727 49.2042 37.7852 48.5947C38.0399 48.4037 38.5606 48.2594 39.1557 48.1511C39.1415 47.9499 39.1692 47.7468 39.3598 47.493C39.9554 46.6988 40.1539 46.5005 41.1464 46.5005C42.1389 46.5005 43.2308 46.1034 43.2308 46.1034C43.2308 46.1034 43.7271 45.8056 44.3226 44.5153C44.9182 43.225 44.9182 43.1258 45.5136 42.2324C45.7203 41.9222 45.8424 41.6852 45.9273 41.502C45.8387 41.2819 45.6249 41.3057 45.233 41.0118Z" fill="url(#paint10_linear_281_2199)"/>
<path d="M19.3858 51.3628C18.6456 52.8431 19.139 52.7196 17.9057 53.4598C16.6721 54.1999 14.3285 54.3232 14.2051 56.2969C14.0818 58.2706 14.5751 58.6405 13.5884 59.2574C13.3634 59.398 13.0933 59.5707 12.7948 59.7533C13.3923 60.4499 14.0871 61.2544 14.1479 61.9847C14.2472 63.1757 14.6443 64.764 14.6443 65.1609C14.6443 65.558 14.8428 65.6572 15.2399 66.3519C15.6369 67.0468 15.3391 66.2526 15.7362 67.4437C16.0882 68.4997 15.9726 69.8675 16.5644 70.925C17.1008 70.8831 17.1417 71.0095 17.8648 70.4533C18.8074 69.7283 18.8798 69.9457 19.3148 69.5832C19.7498 69.2207 20.3298 69.0756 20.6923 68.8582C21.0548 68.6406 21.6349 68.6406 22.1425 68.2781C22.6501 67.9156 22.3601 67.7705 22.5775 66.683C22.7951 65.5955 23.5201 66.6105 23.7376 66.1754C23.9552 65.7404 24.2453 65.3053 24.4626 65.0152C24.6802 64.7252 24.4626 64.3627 23.955 63.7826C23.4474 63.2025 22.94 62.9851 21.4173 62.6225C19.8947 62.26 20.6923 60.0848 20.4748 58.7072C20.2572 57.3297 21.5623 57.6197 22.0699 57.3297C22.5775 57.0397 22.2875 56.6772 22.1423 56.1696C21.9974 55.6619 22.0699 55.517 22.0699 54.502C22.0699 53.4869 22.4324 53.7043 22.7224 52.7619C23.0125 51.8194 22.4324 51.9643 21.4898 50.3692C21.4194 50.25 21.3715 50.1324 21.3388 50.0161C20.5132 50.3013 19.7021 50.7306 19.3858 51.3628Z" fill="url(#paint11_linear_281_2199)"/>
<path d="M12.9802 35.206C12.5137 34.7395 12.7937 34.5529 12.4205 33.5266C12.0473 32.5003 11.6741 32.4071 10.7411 32.0339C9.80813 31.6607 9.62161 31.9406 8.40859 32.3138C7.88952 32.4735 7.43921 32.3424 7.09335 32.1406C6.95674 32.4471 6.76579 32.6663 6.50496 32.7035C5.81009 32.8027 5.01614 32.6042 5.01614 32.6042C5.01614 32.6042 4.61907 33.0013 4.222 33.2991C3.82494 33.5969 3.03099 33.2991 3.03099 33.2991C3.03099 33.2991 2.23685 33.2991 1.64143 33.4976C1.04583 33.6961 0.450415 33.3983 0.251881 33.9939C0.0533474 34.5895 -0.0459198 35.0857 0.0533472 35.3835C0.152614 35.6813 0.450415 36.3762 1.04602 36.2769C1.64162 36.1776 1.74089 36.1776 2.43557 36.1776C3.13044 36.1776 2.9319 36.2769 3.42824 36.4754C3.92457 36.674 4.12311 36.0784 4.42072 36.4754C5.01632 37.2696 5.11559 37.5674 4.61926 37.7657C4.12292 37.9642 3.72585 37.7657 3.32897 37.7657C2.9319 37.7657 2.53484 37.1701 2.3363 37.4679C2.13777 37.7657 1.64143 37.865 1.83997 38.262C2.0385 38.6591 1.93923 39.4531 2.43557 39.6516C2.9319 39.8501 3.32897 39.4531 3.92439 39.9494C4.51999 40.4457 4.22219 40.6443 4.51999 41.0413C4.81779 41.4384 5.01632 41.8355 5.31413 42.034C5.61193 42.2325 5.51266 42.4311 6.10826 42.2325C6.70386 42.034 7.00166 42.4311 7.69635 42.2325C8.39122 42.034 9.28443 41.8355 9.6815 40.9423C10.0786 40.0488 9.78077 39.9496 10.4756 39.652C11.1705 39.3542 11.5674 38.5602 11.8652 39.3542C12.163 40.1483 11.9645 40.4459 11.5674 40.9423C11.1703 41.4386 10.674 41.3393 10.5749 41.9347C10.4756 42.5303 10.0786 43.5228 10.0786 43.9199C10.0786 43.9441 10.0752 43.9851 10.0691 44.0408C10.3827 44.326 10.6873 44.6271 10.9258 44.7464C11.6134 45.0902 11.8199 44.9527 12.4388 44.4713C13.0577 43.9899 13.1265 44.0587 12.9889 43.3021C12.8514 42.5457 13.1265 42.4081 13.4015 41.3077C13.6766 40.2073 13.8829 40.4825 14.1579 39.8634C14.433 39.2445 14.2267 38.763 14.2267 38.1441C14.2267 37.5252 14.6393 37.4564 15.0521 37.0437C15.4212 36.6745 15.8993 36.1405 15.9961 35.638C15.3863 35.8179 14.8441 36.2701 14.5665 36.3255C14.0999 36.4189 13.4468 35.6724 12.9802 35.206Z" fill="url(#paint12_linear_281_2199)"/>
<path d="M24.1728 27.3131C23.2302 27.0956 23.1577 25.6456 22.8677 24.9204C22.5777 24.1954 22.5052 24.5579 21.9976 24.6303C21.49 24.7028 20.2576 25.0653 20.2576 25.0653C20.2576 25.0653 19.5326 24.6303 19.2425 24.0503C18.9525 23.4702 18.8076 23.6153 18.8076 22.1651C18.8076 20.7151 17.43 20.6425 16.9949 20.0624C16.5599 19.4823 16.6324 19.9175 16.1248 19.7724C15.6171 19.6274 15.9072 19.5548 15.4722 18.7573C15.0373 17.9598 15.4722 18.7573 14.8197 17.8147C14.6624 17.5874 14.5052 17.3861 14.357 17.2104C14.327 17.5558 14.2986 17.9756 13.751 18.1125C12.9569 18.3111 11.7659 18.6089 11.6666 19.2043C11.5674 19.7999 12.4608 20.4946 11.8652 21.1894C11.2696 21.8843 11.071 21.6858 10.5749 21.9836C10.0785 22.2814 9.88 22.1821 9.68146 22.4799C9.48293 22.7777 9.68147 22.877 9.48293 23.2741C9.2844 23.6711 8.39118 23.2741 8.39118 23.2741C8.39118 23.2741 6.70383 22.7777 6.20749 23.0755C5.71116 23.3733 5.41336 24.068 5.21482 25.0607C5.01629 26.0533 4.51995 26.5495 4.91702 27.0458C5.31409 27.5422 5.61189 28.0385 6.30657 28.4354C7.00144 28.8324 7.39833 29.428 7.39833 30.3213C7.39833 30.8792 7.32087 31.6306 7.0935 32.1406C7.43936 32.3425 7.88967 32.4735 8.40874 32.3138C9.62157 31.9406 9.80828 31.6607 10.7412 32.0339C11.6742 32.4072 12.0474 32.5003 12.4206 33.5266C12.7939 34.553 12.514 34.7395 12.9804 35.2061C13.447 35.6724 14.0999 36.4189 14.5664 36.3255C14.8441 36.2701 15.3863 35.8177 15.9961 35.6381C16.0076 35.5789 16.0148 35.5199 16.0148 35.4619C16.0148 34.9118 16.0148 34.0864 16.6337 33.0549C17.2526 32.0232 17.1838 32.8486 17.5966 32.7111C18.0092 32.5735 18.7658 32.9861 19.3159 32.8486C19.866 32.7111 20.21 32.3672 20.4851 31.7482C20.7602 31.1293 20.4851 31.1293 20.8289 30.5102C21.1728 29.8913 21.9294 29.8913 23.0296 29.4097C24.1301 28.9284 23.6485 29.2722 23.855 27.9655C23.9042 27.6546 24.0277 27.4497 24.1866 27.3166C24.182 27.3157 24.1776 27.3142 24.1728 27.3131Z" fill="url(#paint13_linear_281_2199)"/>
<path d="M28.654 46.4016C28.2807 45.8419 29.0272 45.0954 29.3071 44.4424C29.5869 43.7893 29.2137 42.2966 28.7473 41.5501C28.2807 40.8037 27.8144 40.9904 27.8144 40.9904C27.8144 40.9904 23.5228 42.0167 22.8697 42.0167C22.2166 42.0167 22.1232 41.8302 21.5635 41.3636C21.0038 40.8972 20.817 40.524 20.164 40.524C19.5109 40.524 18.4846 40.9906 16.9919 40.9906C16.0946 40.9906 14.8943 40.4513 14.0791 40.021C13.8417 40.4417 13.6495 40.3147 13.4012 41.3078C13.1262 42.4082 12.8511 42.5457 12.9886 43.3022C13.1262 44.0586 13.0574 43.9898 12.4385 44.4714C11.8196 44.9527 11.6133 45.0903 10.9255 44.7464C10.687 44.6272 10.3824 44.3261 10.0689 44.0408C9.97699 44.8969 9.25753 49.2532 10.3759 50.3717C11.5669 51.5628 11.8647 51.662 12.2618 52.9525C12.6589 54.2428 12.6589 55.0369 12.5596 55.9303C12.4603 56.8237 11.6662 57.8162 11.964 58.6103C12.0792 58.9176 12.4174 59.3143 12.7945 59.7539C13.0931 59.571 13.3632 59.3984 13.5881 59.2579C14.5749 58.6412 14.0815 58.2711 14.2048 56.2974C14.3281 54.3238 16.6719 54.2005 17.9054 53.4603C19.1389 52.7201 18.6456 52.8436 19.3855 51.3633C19.7016 50.7311 20.513 50.3019 21.3387 50.017C20.935 48.5772 23.2298 47.3974 23.2298 47.3974C23.2298 47.3974 23.9548 47.3974 24.6798 47.0349C25.4048 46.6724 25.5499 46.89 25.9124 46.9625C26.2749 47.0349 26.6374 47.2525 27.3626 47.4701C28.0876 47.6877 28.2327 48.1951 28.2327 48.1951L28.3173 48.4659C28.6593 48.1062 28.9307 47.7176 29.027 47.4285C29.2139 46.8682 29.0272 46.9616 28.654 46.4016Z" fill="url(#paint14_linear_281_2199)"/>
<path d="M45.4892 32.2432C44.9091 32.6057 45.2716 33.6932 44.4741 33.8383C43.6767 33.9833 43.314 33.7659 42.0089 33.9833C40.7038 34.2008 36.7886 34.3458 35.9185 34.7083C35.0484 35.0708 35.1935 34.6358 34.6134 34.4907C34.0334 34.3458 34.1785 34.3458 33.0908 32.968C32.0033 31.5905 29.7556 31.8079 28.668 31.953C27.5805 32.0979 27.7978 31.4454 27.0004 31.0104C26.2029 30.5755 26.1303 30.1403 25.5504 29.6329C24.9703 29.1253 25.6953 28.7628 25.768 28.4727C25.84 28.1842 25.1224 27.537 24.1867 27.3163C24.0277 27.4494 23.9041 27.6542 23.8551 27.9651C23.6488 29.2719 24.1301 28.928 23.0297 29.4094C21.9293 29.8908 21.1728 29.8908 20.829 30.5098C20.4852 31.1287 20.7602 31.1287 20.4852 31.7478C20.2101 32.3667 19.8663 32.7107 19.316 32.8482C18.7658 32.9858 18.0092 32.5732 17.5966 32.7107C17.184 32.8482 17.2528 32.0231 16.6337 33.0545C16.0148 34.0862 16.0148 34.9114 16.0148 35.4615C16.0148 36.0117 15.4647 36.6307 15.0519 37.0433C14.6393 37.4559 14.2266 37.5247 14.2266 38.1438C14.2266 38.7627 14.4328 39.2442 14.1578 39.8631C14.131 39.9234 14.1049 39.9751 14.0792 40.0206C14.8944 40.4509 16.0945 40.9902 16.992 40.9902C18.4847 40.9902 19.511 40.5236 20.1641 40.5236C20.8172 40.5236 21.0037 40.8968 21.5636 41.3632C22.1234 41.8298 22.2167 42.0163 22.8698 42.0163C23.5229 42.0163 27.8145 40.99 27.8145 40.99C27.8145 40.99 28.2811 40.8035 28.7474 41.5497C29.2138 42.2962 29.5871 43.7889 29.3072 44.442C29.0273 45.0951 28.2809 45.8415 28.6541 46.4012C29.0273 46.961 29.2138 46.8678 29.0273 47.4276C28.931 47.7167 28.6596 48.1052 28.3177 48.465L28.9582 50.5143C28.9582 50.5143 30.6984 51.7469 31.6408 51.5293C32.5834 51.3117 32.2933 50.1518 32.2933 50.1518C32.2933 50.1518 33.0183 49.2092 33.2359 48.9191C33.4535 48.6291 32.8009 47.9766 32.6558 47.1791C32.5109 46.3816 33.4533 46.4541 33.5984 45.874C33.7433 45.294 34.2509 45.294 34.1785 44.9315C34.106 44.569 34.2509 43.7713 34.6134 42.7563C34.9759 41.7412 34.831 42.5387 35.846 41.7412C36.8611 40.9436 37.7312 39.566 38.3837 38.9135C39.0363 38.261 38.8913 38.986 39.2538 38.841C39.6163 38.6961 40.1964 39.2035 40.6314 39.3487C41.0663 39.4936 41.6464 40.1461 42.8066 40.0737C43.9667 40.0012 44.1116 39.1311 43.9667 38.841C43.8218 38.551 43.3866 37.826 43.2417 37.4635C43.0968 37.101 43.4593 36.8834 43.5317 36.5209C43.6042 36.1584 44.4743 35.8684 44.4743 35.8684C44.4743 35.8684 45.4169 35.5059 46.2144 34.7809C47.0118 34.0559 46.0692 31.8807 45.4892 32.2432Z" fill="url(#paint15_linear_281_2199)"/>
<path d="M26.0438 40.9492L24.7399 39.644C23.8485 38.7518 23.4028 38.3056 22.9242 38.4112C22.4455 38.5169 22.2285 39.1092 21.7944 40.2938L21.5006 41.0956C21.3849 41.4114 21.3271 41.5693 21.223 41.6914C21.1763 41.7462 21.1231 41.7952 21.0647 41.8373C20.9345 41.931 20.7725 41.9757 20.4485 42.065C19.7183 42.2663 19.3531 42.367 19.2155 42.6059C19.1561 42.7091 19.1251 42.8264 19.1259 42.9456C19.1276 43.2213 19.3954 43.4894 19.931 44.0255L20.5531 44.6484L18.5846 46.6188C18.4536 46.75 18.4536 46.9627 18.5846 47.0938C18.7156 47.225 18.9281 47.225 19.0591 47.0938L21.0277 45.1233L21.6725 45.7687C22.2115 46.3082 22.481 46.578 22.7584 46.5784C22.8753 46.5786 22.9901 46.5482 23.0917 46.4903C23.3327 46.3527 23.4339 45.9849 23.6363 45.2493C23.7253 44.9259 23.7697 44.7642 23.8632 44.634C23.9041 44.5771 23.9515 44.5251 24.0045 44.4792C24.1256 44.3743 24.2825 44.3154 24.5962 44.1975L25.4072 43.8928C26.5788 43.4526 27.1646 43.2325 27.2678 42.7551C27.3711 42.2777 26.9286 41.8349 26.0438 40.9492Z" fill="#3B2B07"/>
<path d="M34.6417 28.5497L34.0549 27.9623C33.6538 27.5608 33.4533 27.3601 33.2379 27.4076C33.0225 27.4551 32.9248 27.7217 32.7295 28.2548L32.5973 28.6156C32.5452 28.7577 32.5192 28.8287 32.4723 28.8837C32.4513 28.9084 32.4274 28.9304 32.4011 28.9493C32.3425 28.9915 32.2696 29.0116 32.1238 29.0518C31.7952 29.1424 31.6309 29.1877 31.569 29.2952C31.5422 29.3417 31.5283 29.3944 31.5286 29.4481C31.5294 29.5722 31.6499 29.6928 31.8909 29.934L32.1709 30.2143L31.2851 31.101C31.2261 31.16 31.2261 31.2557 31.2851 31.3148C31.344 31.3738 31.4396 31.3738 31.4986 31.3148L32.3845 30.4281L32.6746 30.7185C32.9171 30.9613 33.0384 31.0826 33.1633 31.0828C33.2159 31.0829 33.2676 31.0692 33.3132 31.0432C33.4217 30.9813 33.4672 30.8158 33.5583 30.4847C33.5984 30.3392 33.6184 30.2664 33.6604 30.2079C33.6788 30.1822 33.7001 30.1588 33.724 30.1382C33.7785 30.091 33.8491 30.0645 33.9903 30.0114L34.3552 29.8743C34.8824 29.6762 35.146 29.5772 35.1925 29.3624C35.239 29.1475 35.0399 28.9482 34.6417 28.5497Z" fill="#3B2B07"/>
<path d="M38.3798 37.8081L37.7931 37.2208C37.392 36.8193 37.1914 36.6185 36.976 36.666C36.7606 36.7136 36.663 36.9801 36.4676 37.5132L36.3354 37.874C36.2834 38.0161 36.2573 38.0872 36.2105 38.1421C36.1895 38.1668 36.1656 38.1888 36.1393 38.2078C36.0807 38.2499 36.0078 38.27 35.862 38.3102C35.5334 38.4008 35.3691 38.4461 35.3072 38.5536C35.2804 38.6001 35.2665 38.6529 35.2668 38.7065C35.2676 38.8306 35.3881 38.9512 35.6291 39.1925L35.9091 39.4728L35.0232 40.3594C34.9643 40.4185 34.9643 40.5142 35.0232 40.5732C35.0822 40.6322 35.1778 40.6322 35.2368 40.5732L36.1226 39.6865L36.4128 39.9769C36.6553 40.2197 36.7766 40.3411 36.9014 40.3413C36.954 40.3413 37.0057 40.3277 37.0514 40.3016C37.1598 40.2397 37.2054 40.0742 37.2965 39.7432C37.3365 39.5976 37.3565 39.5249 37.3986 39.4663C37.417 39.4406 37.4383 39.4173 37.4622 39.3966C37.5167 39.3494 37.5873 39.3229 37.7284 39.2698L38.0934 39.1327C38.6206 38.9346 38.8842 38.8356 38.9307 38.6208C38.9771 38.406 38.778 38.2067 38.3798 37.8081Z" fill="#3B2B07"/>
<defs>
<linearGradient id="paint0_linear_281_2199" x1="47.2758" y1="32.8924" x2="18.0646" y2="11.4665" gradientUnits="userSpaceOnUse">
<stop stop-color="#A47A1E"/>
<stop offset="0.2279" stop-color="#D3A84C"/>
<stop offset="0.414" stop-color="#FFEC94"/>
<stop offset="0.586" stop-color="#E6BE69"/>
<stop offset="0.7721" stop-color="#FFD87C"/>
<stop offset="1" stop-color="#B58F3E"/>
</linearGradient>
<linearGradient id="paint1_linear_281_2199" x1="39.3397" y1="31.4436" x2="-17.4884" y2="-4.88214" gradientUnits="userSpaceOnUse">
<stop stop-color="#A47A1E"/>
<stop offset="0.2279" stop-color="#D3A84C"/>
<stop offset="0.414" stop-color="#FFEC94"/>
<stop offset="0.586" stop-color="#E6BE69"/>
<stop offset="0.7721" stop-color="#FFD87C"/>
<stop offset="1" stop-color="#B58F3E"/>
</linearGradient>
<linearGradient id="paint2_linear_281_2199" x1="32.1658" y1="20.1166" x2="-8.47835" y2="-13.8323" gradientUnits="userSpaceOnUse">
<stop stop-color="#A47A1E"/>
<stop offset="0.2279" stop-color="#D3A84C"/>
<stop offset="0.414" stop-color="#FFEC94"/>
<stop offset="0.586" stop-color="#E6BE69"/>
<stop offset="0.7721" stop-color="#FFD87C"/>
<stop offset="1" stop-color="#B58F3E"/>
</linearGradient>
<linearGradient id="paint3_linear_281_2199" x1="24.2577" y1="20.0751" x2="24.1943" y2="20.0531" gradientUnits="userSpaceOnUse">
<stop stop-color="#A47A1E"/>
<stop offset="0.2279" stop-color="#D3A84C"/>
<stop offset="0.414" stop-color="#FFEC94"/>
<stop offset="0.586" stop-color="#E6BE69"/>
<stop offset="0.7721" stop-color="#FFD87C"/>
<stop offset="1" stop-color="#B58F3E"/>
</linearGradient>
<linearGradient id="paint4_linear_281_2199" x1="29.7942" y1="10.5556" x2="-12.3061" y2="-19.4337" gradientUnits="userSpaceOnUse">
<stop stop-color="#A47A1E"/>
<stop offset="0.2279" stop-color="#D3A84C"/>
<stop offset="0.414" stop-color="#FFEC94"/>
<stop offset="0.586" stop-color="#E6BE69"/>
<stop offset="0.7721" stop-color="#FFD87C"/>
<stop offset="1" stop-color="#B58F3E"/>
</linearGradient>
<linearGradient id="paint5_linear_281_2199" x1="67.0112" y1="36.2444" x2="20.9915" y2="19.8005" gradientUnits="userSpaceOnUse">
<stop stop-color="#A47A1E"/>
<stop offset="0.2279" stop-color="#D3A84C"/>
<stop offset="0.414" stop-color="#FFEC94"/>
<stop offset="0.586" stop-color="#E6BE69"/>
<stop offset="0.7721" stop-color="#FFD87C"/>
<stop offset="1" stop-color="#B58F3E"/>
</linearGradient>
<linearGradient id="paint6_linear_281_2199" x1="30.0278" y1="77.1356" x2="-13.7424" y2="57.9673" gradientUnits="userSpaceOnUse">
<stop stop-color="#A47A1E"/>
<stop offset="0.2279" stop-color="#D3A84C"/>
<stop offset="0.414" stop-color="#FFEC94"/>
<stop offset="0.586" stop-color="#E6BE69"/>
<stop offset="0.7721" stop-color="#FFD87C"/>
<stop offset="1" stop-color="#B58F3E"/>
</linearGradient>
<linearGradient id="paint7_linear_281_2199" x1="40.7651" y1="61.3815" x2="-16.1843" y2="26.1789" gradientUnits="userSpaceOnUse">
<stop stop-color="#A47A1E"/>
<stop offset="0.2279" stop-color="#D3A84C"/>
<stop offset="0.414" stop-color="#FFEC94"/>
<stop offset="0.586" stop-color="#E6BE69"/>
<stop offset="0.7721" stop-color="#FFD87C"/>
<stop offset="1" stop-color="#B58F3E"/>
</linearGradient>
<linearGradient id="paint8_linear_281_2199" x1="64.8805" y1="31.6549" x2="30.3819" y2="4.57961" gradientUnits="userSpaceOnUse">
<stop stop-color="#A47A1E"/>
<stop offset="0.2279" stop-color="#D3A84C"/>
<stop offset="0.414" stop-color="#FFEC94"/>
<stop offset="0.586" stop-color="#E6BE69"/>
<stop offset="0.7721" stop-color="#FFD87C"/>
<stop offset="1" stop-color="#B58F3E"/>
</linearGradient>
<linearGradient id="paint9_linear_281_2199" x1="51.9964" y1="38.4021" x2="20.7341" y2="29.0622" gradientUnits="userSpaceOnUse">
<stop stop-color="#A47A1E"/>
<stop offset="0.2279" stop-color="#D3A84C"/>
<stop offset="0.414" stop-color="#FFEC94"/>
<stop offset="0.586" stop-color="#E6BE69"/>
<stop offset="0.7721" stop-color="#FFD87C"/>
<stop offset="1" stop-color="#B58F3E"/>
</linearGradient>
<linearGradient id="paint10_linear_281_2199" x1="47.1455" y1="49.3621" x2="4.07891" y2="21.0761" gradientUnits="userSpaceOnUse">
<stop stop-color="#A47A1E"/>
<stop offset="0.2279" stop-color="#D3A84C"/>
<stop offset="0.414" stop-color="#FFEC94"/>
<stop offset="0.586" stop-color="#E6BE69"/>
<stop offset="0.7721" stop-color="#FFD87C"/>
<stop offset="1" stop-color="#B58F3E"/>
</linearGradient>
<linearGradient id="paint11_linear_281_2199" x1="25.5211" y1="66.9054" x2="-18.8489" y2="52.103" gradientUnits="userSpaceOnUse">
<stop stop-color="#A47A1E"/>
<stop offset="0.2279" stop-color="#D3A84C"/>
<stop offset="0.414" stop-color="#FFEC94"/>
<stop offset="0.586" stop-color="#E6BE69"/>
<stop offset="0.7721" stop-color="#FFD87C"/>
<stop offset="1" stop-color="#B58F3E"/>
</linearGradient>
<linearGradient id="paint12_linear_281_2199" x1="17.3213" y1="42.4229" x2="-26.6208" y2="10.5533" gradientUnits="userSpaceOnUse">
<stop stop-color="#A47A1E"/>
<stop offset="0.2279" stop-color="#D3A84C"/>
<stop offset="0.414" stop-color="#FFEC94"/>
<stop offset="0.586" stop-color="#E6BE69"/>
<stop offset="0.7721" stop-color="#FFD87C"/>
<stop offset="1" stop-color="#B58F3E"/>
</linearGradient>
<linearGradient id="paint13_linear_281_2199" x1="25.7968" y1="32.6572" x2="-33.9684" y2="-3.36697" gradientUnits="userSpaceOnUse">
<stop stop-color="#A47A1E"/>
<stop offset="0.2279" stop-color="#D3A84C"/>
<stop offset="0.414" stop-color="#FFEC94"/>
<stop offset="0.586" stop-color="#E6BE69"/>
<stop offset="0.7721" stop-color="#FFD87C"/>
<stop offset="1" stop-color="#B58F3E"/>
</linearGradient>
<linearGradient id="paint14_linear_281_2199" x1="31.0325" y1="55.9603" x2="-30.0633" y2="19.8539" gradientUnits="userSpaceOnUse">
<stop stop-color="#A47A1E"/>
<stop offset="0.2279" stop-color="#D3A84C"/>
<stop offset="0.414" stop-color="#FFEC94"/>
<stop offset="0.586" stop-color="#E6BE69"/>
<stop offset="0.7721" stop-color="#FFD87C"/>
<stop offset="1" stop-color="#B58F3E"/>
</linearGradient>
<linearGradient id="paint15_linear_281_2199" x1="49.2111" y1="46.8953" x2="-34.2388" y2="-19.4016" gradientUnits="userSpaceOnUse">
<stop stop-color="#A47A1E"/>
<stop offset="0.2279" stop-color="#D3A84C"/>
<stop offset="0.414" stop-color="#FFEC94"/>
<stop offset="0.586" stop-color="#E6BE69"/>
<stop offset="0.7721" stop-color="#FFD87C"/>
<stop offset="1" stop-color="#B58F3E"/>
</linearGradient>
</defs>
</svg>
